<svg xmlns="http://www.w3.org/2000/svg" xmlns:xlink="http://www.w3.org/1999/xlink" version="1.1" x="0px" y="0px" viewBox="0 0 100 125" enable-background="new 0 0 100 100" xml:space="preserve"><path d="M35.8,37.2c-3,0-5.4-2.4-5.3-5.4c0-3,2.4-5.3,5.4-5.3c2.9,0,5.3,2.4,5.3,5.4C41.1,34.8,38.7,37.2,35.8,37.2z M28.2,55.1  c-0.3,1.9-0.6,3.8-0.9,5.7c-0.4,2.8,2.3,5.4,4.4,5.7c1.3,0.2,2.6,0.2,3.9,0.2c2.8,0,5.1-1.2,7-3.2c0.3-0.3,0.6-0.8,0.7-1.3  c0.2-0.8-0.4-1.3-1.2-1c-0.5,0.2-1,0.6-1.5,0.8c-0.6,0.2-1.3,0.5-2,0.6c-0.8,0.1-1.4-0.3-1.6-1.1c-0.2-0.6-0.2-1.2-0.2-1.8  c0.1-1.3,0.4-2.5,0.6-3.8c0.7-3.8,1.4-7.6,2.1-11.4c0.2-1,0.4-2.1,0.3-3.1c0-1.2-0.8-1.8-2-1.8c-1.7,0-3.5,0-5.2,0  c-1.6,0-3.3,0-4.9,0c-0.4,0-0.8,0-1.2,0.1c-0.8,0.1-1.1,0.5-1.2,1.1c-0.1,0.5,0.2,1.1,0.9,1.3c0.6,0.2,1.2,0.2,1.8,0.3  c1.4,0.2,1.8,0.7,1.8,2.1c0,0.2,0,0.4-0.1,0.6C29.3,48.4,28.7,51.7,28.2,55.1z M62.2,22.4V16c0-0.8-0.5-1.6-1.2-2  c-0.2-0.2-0.6-0.3-0.9-0.3c0,0-0.1,0-0.2,0H9.3c-0.5,0-0.9,0.2-1.3,0.4c-0.7,0.4-1.1,1.2-1.1,2v6.4c0,0,0,40.1,0,55.8  c0,0.8,0,1.5,0,2.2V81c0,1.5,1.2,2.7,2.7,2.7h16h0.1h21.2c1.6,0.8,3.1,1.7,4.7,2.7c0.5,0.4,1.2,0.8,1.9,1.2c0.8,0.4,1.6,0.9,2.1,1.3  c2.1,1.5,4.3,2.5,7.2,3c0.2,0.1,1,0.3,2.1,0.7c-1.4,1.6-3.4,2.6-5.6,2.6H46.4H34.3h-8.9H9.2c-3.9,0-7.1-3.2-7.1-7.1v-0.2v-3.4v-6.1  V22.6V11.3c0-3.1,1.9-5.7,4.5-6.8c0.9-0.4,1.9-0.6,2.9-0.6h25h25c1,0,2,0.2,2.9,0.4c2.6,1.1,4.5,3.8,4.5,6.8v11.3v29.8  c-1,0.3-1.9,0.5-2.7,0.7l-2-2.5V22.4z M29.1,89.4c0,0.3,0.1,0.6,0.2,0.9c0.3,0.6,1,1,1.7,1h7.1c1,0,1.9-0.9,2-1.9  c0-0.4-0.1-0.7-0.3-1c-0.1-0.1-0.2-0.2-0.3-0.3c-0.4-0.4-0.9-0.6-1.4-0.6H31c-0.7,0-1.4,0.4-1.7,1C29.2,88.8,29.1,89.1,29.1,89.4z   M96.2,78.8c-0.4-1-1.1-2.5-1.6-4.3c-1-7-4.7-14.2-6.1-16.8c-0.3-0.7-0.9-1.1-1.6-1.3c-12.7-3-23.9,1.3-23.9,1.3l-1.9-2.4  c-1.5-2-3.1-3.9-4.6-5.9c-1.7-2.2-3.3-4.3-5-6.4c-1.2-1.5-3.2-1.8-4.7-0.8c-1.5,1.1-1.9,2.9-0.9,4.6c4.4,7.8,8.8,15.5,13,23.3  c0.4,0.9,0.8,1.8,0.9,2.8c0.2,2-0.1,3.7-2,3c-2.2-0.8-7-3.2-8.1-3.3c-1.8-0.3-3.7-0.4-5.5,0.5c-0.8,0.4-1.7,1.4-2,2.2  c-0.6,1.6-0.2,2.6,1.4,3.1c3.6,1.2,7,3,10.2,5.1c1.2,0.8,3,1.7,4.2,2.6c1.8,1.3,3.6,1.9,5.6,2.3c0,0,7.9,1.6,14.3,6.5  c2.1,1.6,5,1.5,7-0.1L97,84.9c1-0.9,1.3-2.4,0.6-3.6L96.2,78.8z"/></svg>
