<svg xmlns="http://www.w3.org/2000/svg" xmlns:xlink="http://www.w3.org/1999/xlink" version="1.1" x="0px" y="0px" viewBox="0 0 100 125" enable-background="new 0 0 100 100" xml:space="preserve"><path d="M73.174,64c-5.238,0-9.5,4.262-9.5,9.5s4.262,9.5,9.5,9.5s9.5-4.262,9.5-9.5S78.412,64,73.174,64z M73.174,80  c-3.584,0-6.5-2.916-6.5-6.5s2.916-6.5,6.5-6.5s6.5,2.916,6.5,6.5S76.758,80,73.174,80z"/><path d="M41,40.827c-8.364,0-15.169-6.805-15.169-15.169S32.636,10.488,41,10.488s15.169,6.805,15.169,15.169  S49.364,40.827,41,40.827z M41,13.488c-6.71,0-12.169,5.459-12.169,12.169S34.29,37.827,41,37.827s12.169-5.459,12.169-12.169  S47.71,13.488,41,13.488z"/><path d="M88.729,68c-0.844,0-1.261-1.017-0.667-1.611c1.537-1.538,1.537-4.04,0-5.577l-2.201-2.201c-1.538-1.54-4.041-1.538-5.577,0  c-0.593,0.593-1.61,0.178-1.61-0.667c0-2.174-1.77-3.943-3.944-3.943h-3.112c-0.54,0-1.054,0.11-1.522,0.307  c-3.069-5.228-8.731-8.646-15.086-8.646c-20.97,0-14.784,0-28.018,0c-8.448,0-15.688,6.031-17.212,14.34L7.351,73.229  C7.182,74.151,7.893,75,8.826,75h25.17l-0.445,4.347c-0.09,0.88,0.6,1.653,1.492,1.653h11.914c0.89,0,1.582-0.771,1.492-1.653  L48.004,75h5.67v0.056c0,2.175,1.769,3.944,3.943,3.944c0.843,0,1.263,1.015,0.667,1.611c-1.537,1.538-1.537,4.04,0,5.577  l2.201,2.201c1.538,1.539,4.041,1.537,5.577,0c0.598-0.597,1.611-0.175,1.611,0.667c0,2.175,1.769,3.944,3.943,3.944h3.112  c2.175,0,3.944-1.769,3.944-3.944c0-0.844,1.014-1.263,1.61-0.667c1.537,1.538,4.04,1.54,5.577,0l2.201-2.201  c1.537-1.538,1.537-4.04,0-5.577C87.468,80.017,87.886,79,88.729,79c2.175,0,3.944-1.769,3.944-3.944v-3.113  C92.674,69.769,90.904,68,88.729,68z M34.303,72H10.627l2.104-11.457c1.263-6.885,7.261-11.882,14.261-11.882h7.854l-2.425,6.522  C32.276,55.57,32.298,56,32.481,56.37l2.835,5.74L34.303,72z M45.296,78h-8.592l1.641-16.014c0.028-0.281-0.022-0.564-0.147-0.817  l-2.739-5.547l2.589-6.961h5.906l2.589,6.961l-2.738,5.547c-0.125,0.253-0.176,0.536-0.147,0.817L45.296,78z M47.697,72l-1.012-9.89  l2.834-5.74c0.184-0.37,0.205-0.8,0.062-1.187l-2.425-6.522h7.854c5.573,0,10.498,3.175,12.915,7.942  c-0.153,0.42-0.25,0.868-0.25,1.341c0,0.844-1.015,1.264-1.611,0.667c-1.538-1.54-4.041-1.538-5.577,0l-2.201,2.201  c-1.537,1.538-1.537,4.04,0,5.578C58.88,66.985,58.46,68,57.617,68c-2.175,0-3.943,1.769-3.943,3.943V72H47.697z M89.674,75.056  c0,0.521-0.424,0.944-0.944,0.944c-3.506,0-5.269,4.251-2.788,6.732c0.367,0.368,0.367,0.967,0,1.335l-2.201,2.201  c-0.358,0.357-0.978,0.356-1.335,0c-2.478-2.48-6.731-0.721-6.731,2.788c0,0.521-0.424,0.944-0.944,0.944h-3.112  c-0.521,0-0.943-0.423-0.943-0.944c0-3.513-4.26-5.262-6.732-2.788c-0.37,0.369-0.967,0.367-1.335,0l-2.201-2.201  c-0.367-0.368-0.367-0.967,0-1.334c2.48-2.479,0.72-6.732-2.788-6.732c-0.521,0-0.943-0.423-0.943-0.944v-3.113  c0-0.52,0.423-0.943,0.943-0.943c3.506,0,5.27-4.252,2.788-6.732c-0.367-0.368-0.367-0.967,0-1.335l2.201-2.201  c0.368-0.368,0.965-0.37,1.335,0c2.478,2.479,6.732,0.721,6.732-2.789c0-0.52,0.423-0.943,0.943-0.943h3.112  c0.521,0,0.944,0.423,0.944,0.944c0,3.506,4.251,5.27,6.731,2.788c0.357-0.355,0.977-0.357,1.335,0l2.201,2.201  c0.367,0.368,0.367,0.967,0,1.335C83.462,66.747,85.221,71,88.729,71c0.521,0,0.944,0.423,0.944,0.943V75.056z"/><text x="0" y="115" fill="#000000" font-size="5px" font-weight="bold" font-family="'Helvetica Neue', Helvetica, Arial-Unicode, Arial, Sans-serif">Created by Ayub Irawan</text><text x="0" y="120" fill="#000000" font-size="5px" font-weight="bold" font-family="'Helvetica Neue', Helvetica, Arial-Unicode, Arial, Sans-serif">from the Noun Project</text></svg>