<svg xmlns="http://www.w3.org/2000/svg" data-name="Layer 1" viewBox="0 0 100 125" x="0px" y="0px"><title>sea</title><path d="M86.63281,41.63678l0.001-.001C78.458,30.68366,67.44238,24.30768,56.41016,24.1446A25.16733,25.16733,0,0,0,35.8877,33.752a31.58163,31.58163,0,0,0-4.02875,6.46991,20.237,20.237,0,0,0-8.29724,9.23822,10.84658,10.84658,0,0,0-6.00995,3.743,12.28829,12.28829,0,0,0-2.33173,4.381c-2.89307,1.83618-5.80615,4.08942-5.09991,7.5155,0.53125,2.57422,2.833,4.07031,6.05664,4.07031,0.32184,0,.65479-0.018.99469-0.04828a5.54293,5.54293,0,0,0,4.08636,1.78949A5.89619,5.89619,0,0,0,24.83051,69.694a8.78586,8.78586,0,0,0,5.22125,2.70251,8.63626,8.63626,0,0,0,1.07813.06738A11.41843,11.41843,0,0,0,36.743,70.813a13.27792,13.27792,0,0,0,7.76288,4.815,12.7609,12.7609,0,0,0,2.44629.2373c4.68848,0,9.23145-2.60254,12.64453-7.29883,6.21582,3.08789,12.16992,3.81055,17.28906,2.084,4.99707-1.68652,9.01172-5.63574,11.61035-11.41895A18.44906,18.44906,0,0,0,86.63281,41.63678ZM13.05762,64.49323c-0.16235-.78882.10321-1.60162,1.60706-2.84094a15.39327,15.39327,0,0,0,.28162,2.75208,12.626,12.626,0,0,0,.45819,1.70636C14.358,65.99164,13.28595,65.59394,13.05762,64.49323Zm7.82324,3.39063c-1.4541-.21289-2.5166-1.6543-2.99121-4.05957A10.20057,10.20057,0,0,1,19.85449,55.126a8.5974,8.5974,0,0,1,2.27173-1.91486c-0.10663.36176-.20795,0.726-0.29907,1.09454-1.23315,4.98309-.78534,9.632,1.18182,12.99927A2.84427,2.84427,0,0,1,20.88086,67.88385Zm9.5293,1.5332a6.50855,6.50855,0,0,1-4.35156-2.88672c-1.95312-2.64746-2.44629-6.94824-1.31934-11.50391a20.87237,20.87237,0,0,1,5.454-9.88092A21.439,21.439,0,0,0,32.06055,59.71a9.15286,9.15286,0,0,1,.86133,2.55078A20.41941,20.41941,0,0,0,35.059,68.32135,7.753,7.753,0,0,1,30.41016,69.41706Zm27.43848-3.60645c-3.35352,5.209-8.12891,7.77246-12.76953,6.873-4.63477-.90332-8.07715-5.00781-9.21-10.98145a12.11168,12.11168,0,0,0-1.15234-3.38574c-1.7334-3.30664-4.86035-12.1377,3.52051-22.69922a22.17635,22.17635,0,0,1,17.752-8.47559c0.125,0,.251.001,0.376,0.00293,7.87793,0.11621,15.793,3.75684,22.50781,10.19922-0.03711-.001-0.07422-0.001-0.1123-0.001-2.80469,0-6.44727,1.30859-10.51758,5.97363a18.71033,18.71033,0,0,0-4.47363,9.10059A39.39116,39.39116,0,0,1,57.84863,65.81061ZM85.75977,58.001c-2.248,5.00293-5.64844,8.39453-9.833,9.80664-4.26172,1.4375-9.30957.82422-14.67773-1.77148a40.778,40.778,0,0,0,5.42969-12.88574,15.83039,15.83039,0,0,1,3.82617-7.86133c4.09766-4.7002,8.18066-6.11426,11.499-3.99023a8.39238,8.39238,0,0,1,1.88867,1.68555c0.11328,0.14746.22559,0.29688,0.33691,0.44629l0.01074-.00879A15.41622,15.41622,0,0,1,85.75977,58.001Z"/><text x="0" y="115" fill="#000000" font-size="5px" font-weight="bold" font-family="'Helvetica Neue', Helvetica, Arial-Unicode, Arial, Sans-serif">Created by Jan Klever</text><text x="0" y="120" fill="#000000" font-size="5px" font-weight="bold" font-family="'Helvetica Neue', Helvetica, Arial-Unicode, Arial, Sans-serif">from the Noun Project</text></svg>