<svg xmlns:dc="http://purl.org/dc/elements/1.1/" xmlns:cc="http://creativecommons.org/ns#" xmlns:rdf="http://www.w3.org/1999/02/22-rdf-syntax-ns#" xmlns:svg="http://www.w3.org/2000/svg" xmlns="http://www.w3.org/2000/svg" xmlns:sodipodi="http://sodipodi.sourceforge.net/DTD/sodipodi-0.dtd" xmlns:inkscape="http://www.inkscape.org/namespaces/inkscape" viewBox="0 0 48 60" version="1.1" x="0px" y="0px"><g transform="translate(0,-1004.3622)"><path style="color:#000000;font-style:normal;font-variant:normal;font-weight:normal;font-stretch:normal;font-size:medium;line-height:normal;font-family:sans-serif;text-indent:0;text-align:start;text-decoration:none;text-decoration-line:none;text-decoration-style:solid;text-decoration-color:#000000;letter-spacing:normal;word-spacing:normal;text-transform:none;direction:ltr;block-progression:tb;writing-mode:lr-tb;baseline-shift:baseline;text-anchor:start;white-space:normal;clip-rule:nonzero;display:inline;overflow:visible;visibility:visible;opacity:1;isolation:auto;mix-blend-mode:normal;color-interpolation:sRGB;color-interpolation-filters:linearRGB;solid-color:#000000;solid-opacity:1;fill:#000000;fill-opacity:1;fill-rule:nonzero;stroke:none;stroke-width:1;stroke-linecap:round;stroke-linejoin:round;stroke-miterlimit:4;stroke-dasharray:none;stroke-dashoffset:0;stroke-opacity:1;color-rendering:auto;image-rendering:auto;shape-rendering:auto;text-rendering:auto;enable-background:accumulate" d="M 22.316406 2.6386719 L 22.316406 2.640625 A 0.50005 0.50005 0 0 0 22.044922 2.7070312 C 21.095979 3.2465312 20.595872 4.0912312 20.210938 4.8945312 C 19.826003 5.6978313 19.527864 6.4761406 19.037109 7.0566406 C 18.546355 7.6372406 17.883778 8.0680719 16.583984 8.2011719 C 15.284191 8.3341719 13.357551 8.1272438 10.513672 7.3398438 A 0.50005 0.50005 0 0 0 10.507812 7.3398438 C 8.1775063 6.7225437 6.0962629 7.8316719 4.7617188 9.6386719 C 3.4271744 11.445572 2.7472469 13.951875 3.0214844 16.359375 C 3.2957218 18.766875 4.572359 21.094869 7.1347656 22.355469 C 9.0443274 23.294821 11.628387 23.640707 14.998047 23.09375 C 16.347544 24.94189 18.640489 25.833234 20.90625 25.421875 L 30.107422 41.357422 C 32.319094 45.188022 37.20442 46.496856 41.035156 44.285156 C 44.865892 42.073456 46.174564 37.188122 43.962891 33.357422 L 41.222656 28.609375 A 0.50005 0.50005 0 0 0 40.341797 28.634766 L 37.126953 35.101562 A 0.50005 0.50005 0 0 0 37.824219 35.755859 L 40.003906 34.498047 L 40.5 35.355469 C 41.612313 37.282069 40.961769 39.708012 39.035156 40.820312 C 37.108542 41.932613 34.684602 41.282069 33.572266 39.355469 L 24.371094 23.419922 C 25.99622 21.501722 26.305557 18.772912 25.035156 16.570312 C 23.794748 14.421812 21.416085 13.330887 19.095703 13.617188 L 19.095703 13.619141 C 18.322242 13.714141 17.556004 13.963453 16.839844 14.376953 C 14.675136 15.626696 13.595341 18.026793 13.90625 20.365234 C 11.873924 20.614821 10.298577 20.398556 9.1347656 19.896484 C 7.3969465 19.146784 6.4969866 17.793781 6.1816406 16.300781 C 5.8662947 14.807681 6.1766706 13.17965 6.9003906 12.03125 C 7.6241132 10.88295 8.6805014 10.222959 10.019531 10.443359 C 13.164219 11.269959 15.488536 11.458997 17.259766 11.216797 C 19.041052 10.973197 20.266731 10.277216 21.128906 9.4160156 C 21.991082 8.5548156 22.496588 7.5495656 22.939453 6.6972656 C 23.382318 5.8450656 23.770895 5.1701562 24.263672 4.8476562 A 0.50028709 0.50028709 0 1 0 23.716797 4.0097656 C 22.922848 4.5293656 22.496714 5.3782281 22.050781 6.2363281 C 21.604849 7.0944281 21.146999 7.9865844 20.423828 8.7089844 C 19.700657 9.4312844 18.720086 10.006509 17.125 10.224609 C 15.529914 10.442709 13.318396 10.283597 10.228516 9.4667969 A 0.50005 0.50005 0 0 0 10.181641 9.4570312 C 8.4247688 9.1677312 6.9324457 10.1072 6.0546875 11.5 C 5.1769293 12.8928 4.8313838 14.747713 5.203125 16.507812 C 5.5748662 18.267912 6.706298 19.937853 8.7382812 20.814453 C 10.716208 21.667753 13.533369 21.732772 17.273438 20.638672 C 17.308377 20.670672 17.439419 20.75925 17.599609 20.96875 C 17.686119 21.08195 17.753286 21.253484 17.835938 21.396484 C 13.071838 22.741284 9.7280844 22.518084 7.5761719 21.458984 C 5.3281145 20.352984 4.2575045 18.386694 4.0136719 16.246094 C 3.7698392 14.105494 4.4012795 11.810022 5.5664062 10.232422 C 6.7302383 8.6566219 8.3364415 7.8015875 10.246094 8.3046875 C 10.246094 8.3046875 10.248047 8.3046875 10.248047 8.3046875 C 13.158158 9.1105875 15.186656 9.3507656 16.685547 9.1972656 C 18.184811 9.0438656 19.16314 8.4554719 19.800781 7.7011719 C 20.438422 6.9467719 20.755048 6.0736719 21.113281 5.3261719 C 21.471514 4.5785719 21.844631 3.972925 22.539062 3.578125 A 0.50005 0.50005 0 0 0 22.316406 2.6386719 z M 20.189453 14.580078 C 21.789673 14.692313 23.305134 15.574391 24.169922 17.072266 C 25.287937 19.010666 24.983147 21.449687 23.423828 23.054688 A 0.50005 0.50005 0 0 0 23.349609 23.652344 L 32.705078 39.857422 C 34.085766 42.248722 37.14375 43.0682 39.535156 41.6875 C 41.926566 40.3069 42.745894 37.248722 41.365234 34.857422 L 40.621094 33.566406 A 0.50005 0.50005 0 0 0 39.9375 33.382812 L 38.761719 34.0625 L 40.822266 29.916016 L 43.097656 33.857422 C 45.040973 37.223222 43.901088 41.476622 40.535156 43.419922 C 37.169224 45.363322 32.915976 44.223322 30.972656 40.857422 L 21.615234 24.650391 A 0.50005 0.50005 0 0 0 21.060547 24.414062 C 19.220481 24.878772 17.317741 24.2566 16.097656 22.876953 C 16.873332 22.71509 17.677293 22.517933 18.53125 22.263672 C 19.396983 22.683033 20.447425 22.684922 21.339844 22.169922 C 22.769581 21.344422 23.262984 19.501966 22.4375 18.072266 C 22.024767 17.357366 21.357851 16.876634 20.615234 16.677734 C 19.872618 16.478734 19.054718 16.561909 18.339844 16.974609 C 17.328361 17.558637 16.783927 18.649149 16.845703 19.746094 C 16.15669 19.943809 15.504529 20.101558 14.892578 20.214844 C 14.641546 18.274599 15.534569 16.284461 17.339844 15.242188 C 18.238567 14.7233 19.229321 14.512737 20.189453 14.580078 z M 19.980469 17.572266 C 20.620156 17.616727 21.225239 17.971203 21.572266 18.572266 C 22.12751 19.533966 21.801566 20.749388 20.839844 21.304688 C 20.236859 21.652856 19.53891 21.635661 18.960938 21.351562 C 18.7994 20.978764 18.604642 20.636186 18.394531 20.361328 C 18.217646 20.130004 18.058603 19.940588 17.857422 19.798828 C 17.769525 19.032895 18.124638 18.2527 18.839844 17.839844 C 19.200486 17.631606 19.596656 17.545589 19.980469 17.572266 z " transform="translate(0,1004.3622)"/></g><text x="0" y="63" fill="#000000" font-size="5px" font-weight="bold" font-family="'Helvetica Neue', Helvetica, Arial-Unicode, Arial, Sans-serif">Created by Dev Patel</text><text x="0" y="68" fill="#000000" font-size="5px" font-weight="bold" font-family="'Helvetica Neue', Helvetica, Arial-Unicode, Arial, Sans-serif">from the Noun Project</text></svg>