<svg xmlns="http://www.w3.org/2000/svg" xmlns:xlink="http://www.w3.org/1999/xlink" version="1.1" x="0px" y="0px" viewBox="0 0 56 70" style="enable-background:new 0 0 56 56;" xml:space="preserve"><g><path d="M55.9,32.2c-0.2-0.3-0.5-0.6-0.9-0.6H42.3V19.5c0-0.5-0.4-0.9-0.9-0.9h-6.1v-7.8c0-0.5-0.4-0.9-0.9-0.9h-5.1   c-0.5,0-0.9,0.4-0.9,0.9v7.8h-6.1c-0.5,0-0.9,0.4-0.9,0.9v3H11c-0.5,0-0.9,0.4-0.9,0.9v8.2H0.9c-0.3,0-0.6,0.1-0.7,0.4   C0,32.2,0,32.5,0,32.7l2.8,12.7c0.1,0.4,0.5,0.7,0.9,0.7h39.8c0.3,0,0.5-0.1,0.7-0.3l11.5-12.7C56,32.9,56.1,32.5,55.9,32.2z    M30.2,11.7h3.2v6.9h-3.2V11.7z M23.1,20.4c6.1,0,10.6,0,17.3,0v11.2H23.1C23.1,27.5,23.1,24.5,23.1,20.4z M12,24.4h9.2v7.2H12   V24.4z M43.1,44.3H4.5L2.1,33.5c38.4,0,12.7,0,50.8,0L43.1,44.3z"/><path d="M9.2,38H7.9c-0.5,0-0.9,0.4-0.9,0.9c0,0.5,0.4,0.9,0.9,0.9h1.4c0.5,0,0.9-0.4,0.9-0.9C10.2,38.4,9.8,38,9.2,38z"/><path d="M17.4,38h-1.4c-0.5,0-0.9,0.4-0.9,0.9c0,0.5,0.4,0.9,0.9,0.9h1.4c0.5,0,0.9-0.4,0.9-0.9C18.4,38.4,18,38,17.4,38z"/><path d="M25.7,38h-1.4c-0.5,0-0.9,0.4-0.9,0.9c0,0.5,0.4,0.9,0.9,0.9h1.4c0.5,0,0.9-0.4,0.9-0.9C26.6,38.4,26.2,38,25.7,38z"/><path d="M33.9,38h-1.4c-0.5,0-0.9,0.4-0.9,0.9c0,0.5,0.4,0.9,0.9,0.9h1.4c0.5,0,0.9-0.4,0.9-0.9C34.8,38.4,34.4,38,33.9,38z"/><path d="M39.8,38.9c0,0.5,0.4,0.9,0.9,0.9h1.4c0.5,0,0.9-0.4,0.9-0.9c0-0.5-0.4-0.9-0.9-0.9h-1.4C40.2,38,39.8,38.4,39.8,38.9z"/></g><text x="0" y="71" fill="#000000" font-size="5px" font-weight="bold" font-family="'Helvetica Neue', Helvetica, Arial-Unicode, Arial, Sans-serif">Created by Vectors Market</text><text x="0" y="76" fill="#000000" font-size="5px" font-weight="bold" font-family="'Helvetica Neue', Helvetica, Arial-Unicode, Arial, Sans-serif">from the Noun Project</text></svg>
