<svg xmlns="http://www.w3.org/2000/svg" xmlns:xlink="http://www.w3.org/1999/xlink" version="1.1" x="0px" y="0px" viewBox="0 0 100 125" enable-background="new 0 0 100 100" xml:space="preserve"><rect fill="none" width="100" height="100"/><path d="M27.282,49.129c3.924,0,7.104-3.182,7.104-7.099c0-3.917-3.18-7.099-7.104-7.099c-3.917,0-7.109,3.183-7.109,7.099  C20.173,45.947,23.365,49.129,27.282,49.129z M27.282,37.369c2.573,0,4.665,2.09,4.665,4.661s-2.092,4.661-4.665,4.661  c-2.57,0-4.663-2.09-4.663-4.661S24.711,37.369,27.282,37.369z M31.34,50.151h-8.121c-3.957,0-7.271,3.224-7.391,7.184  c0,0.014,0,0.315,0,0.324v6.19c0,0.674,0.549,1.22,1.222,1.22h20.469c0.675,0,1.222-0.546,1.222-1.22v-6.473  c0-0.066-0.005-0.122-0.014-0.179C38.545,53.3,35.261,50.151,31.34,50.151z M36.302,62.631H18.267v-4.972h-1.217l1.224-0.254  c0.075-2.65,2.292-4.812,4.945-4.812h8.121c2.657,0,4.884,2.156,4.952,4.812c0.005,0.085,0.017,0.169,0.036,0.249L36.302,62.631z   M82.808,18.845H17.195C10.475,18.845,5,24.315,5,31.038v37.92c0,6.727,5.475,12.197,12.195,12.197h65.612  C89.53,81.155,95,75.685,95,68.958v-37.92C95,24.315,89.53,18.845,82.808,18.845z M90.123,68.958c0,4.039-3.281,7.32-7.315,7.32  H17.195c-4.034,0-7.318-3.281-7.318-7.32v-37.92c0-4.035,3.284-7.316,7.318-7.316h65.612c4.034,0,7.315,3.281,7.315,7.316V68.958z   M85.255,29.743c0,0.678-0.546,1.22-1.224,1.22H55.785c-0.673,0-1.219-0.542-1.219-1.22c0-0.673,0.546-1.214,1.219-1.214h28.246  C84.709,28.528,85.255,29.07,85.255,29.743z M85.255,36.15c0,0.673-0.546,1.219-1.224,1.219H55.785  c-0.673,0-1.219-0.546-1.219-1.219c0-0.678,0.546-1.219,1.219-1.219h28.246C84.709,34.931,85.255,35.472,85.255,36.15z   M74.277,42.552c0,0.673-0.542,1.22-1.22,1.22H55.785c-0.673,0-1.219-0.546-1.219-1.22c0-0.678,0.546-1.219,1.219-1.219h17.272  C73.735,41.333,74.277,41.875,74.277,42.552z"/><text x="0" y="115" fill="#000000" font-size="5px" font-weight="bold" font-family="'Helvetica Neue', Helvetica, Arial-Unicode, Arial, Sans-serif">Created by hunotika</text><text x="0" y="120" fill="#000000" font-size="5px" font-weight="bold" font-family="'Helvetica Neue', Helvetica, Arial-Unicode, Arial, Sans-serif">from the Noun Project</text></svg>