<svg xmlns="http://www.w3.org/2000/svg" xmlns:xlink="http://www.w3.org/1999/xlink" xmlns:sketch="http://www.bohemiancoding.com/sketch/ns" viewBox="0 0 100 125" version="1.1" x="0px" y="0px"><title>Artboard 1</title><desc>Created with Sketch.</desc><g stroke="none" stroke-width="1" fill="none" fill-rule="evenodd" sketch:type="MSPage"><g sketch:type="MSArtboardGroup"><g sketch:type="MSLayerGroup" transform="translate(5.000000, 6.947115)"><path d="M83.2932692,21.1465385 L89.9713341,21.1465385 L89.9713341,71.6697476 L83.2932692,71.6697476 L83.2932692,21.1465385 Z" fill="#000000" sketch:type="MSShapeGroup"/><path d="M86.6324639,9.49975962 L83.2932692,18.7052885 L89.9713341,18.7052885 L86.6324639,9.49975962" fill="#000000" sketch:type="MSShapeGroup"/><path d="M83.2932692,73.6129687 L89.9713341,73.6129687 L89.9713341,78.5925 L83.2932692,78.5925 L83.2932692,73.6129687 Z" fill="#000000" sketch:type="MSShapeGroup"/><path d="M20.6719832,21.7789183 L53.7579087,21.7789183 L53.7579087,24.2359615 L20.6719832,24.2359615 L20.6719832,21.7789183 Z" fill="#000000" sketch:type="MSShapeGroup"/><path d="M20.6719832,28.6575361 L53.7579087,28.6575361 L53.7579087,31.1145793 L20.6719832,31.1145793 L20.6719832,28.6575361 Z" fill="#000000" sketch:type="MSShapeGroup"/><path d="M20.6719832,35.53875 L53.7579087,35.53875 L53.7579087,37.9947115 L20.6719832,37.9947115 L20.6719832,35.53875 Z" fill="#000000" sketch:type="MSShapeGroup"/><path d="M20.6719832,42.418125 L53.7579087,42.418125 L53.7579087,44.8750601 L20.6719832,44.8750601 L20.6719832,42.418125 Z" fill="#000000" sketch:type="MSShapeGroup"/><path d="M20.6719832,49.2949038 L53.7579087,49.2949038 L53.7579087,51.7528125 L20.6719832,51.7528125 L20.6719832,49.2949038 Z" fill="#000000" sketch:type="MSShapeGroup"/><path d="M20.6719832,56.1752524 L53.7579087,56.1752524 L53.7579087,58.6330529 L20.6719832,58.6330529 L20.6719832,56.1752524 Z" fill="#000000" sketch:type="MSShapeGroup"/><path d="M20.6719832,63.055601 L46.7394231,63.055601 L46.7394231,65.5116707 L20.6719832,65.5116707 L20.6719832,63.055601 Z" fill="#000000" sketch:type="MSShapeGroup"/><path d="M23.6791947,14.8995433 L53.758774,14.8995433 L53.758774,17.3564784 L23.6791947,17.3564784 L23.6791947,14.8995433 Z" fill="#000000" sketch:type="MSShapeGroup"/><path d="M65.8778365,5.48264423 L65.8778365,0.0756129808 L7.89555288,0.0756129808 L7.89555288,9.2543149 C3.61903846,9.32430288 0.101899038,12.8171034 0.101899038,17.1076803 C0.101899038,21.4397957 3.96519231,24.9654808 7.89555288,24.9673197 L7.89555288,32.3522957 C3.61903846,32.4213101 0.101899038,35.9132452 0.101899038,40.2064183 C0.101899038,44.5377764 3.96519231,48.0634615 7.89555288,48.0650841 L7.89555288,55.4528726 C3.61903846,55.521887 0.101899038,59.0130649 0.101899038,63.304399 C0.101899038,67.6365144 3.96519231,71.1621995 7.89555288,71.1639303 L7.89555288,80.6642308 L13.3016106,80.6642308 L13.3016106,86.0693149 L71.286274,86.0693149 L71.286274,5.48264423 L65.8778365,5.48264423 L65.8778365,5.48264423 Z M7.80695913,22.0179808 C4.99272837,22.0179808 2.8040625,19.7373678 2.8040625,16.9217308 C2.8040625,14.1079327 5.02323317,11.8264543 7.8384375,11.8264543 C7.89944712,11.8264543 7.89685096,11.8344591 7.89685096,11.8360817 L7.89685096,22.007488 C7.89555288,22.0100841 7.86796875,22.0179808 7.80695913,22.0179808 L7.80695913,22.0179808 Z M7.80695913,45.1176923 C4.99272837,45.1176923 2.8040625,42.8352404 2.8040625,40.0214423 C2.8040625,37.2067788 5.02323317,34.9269231 7.8384375,34.9269231 C7.89944712,34.9269231 7.89685096,34.9331971 7.89685096,34.9348197 L7.89685096,45.1078486 C7.89555288,45.1097957 7.86796875,45.1176923 7.80695913,45.1176923 L7.80695913,45.1176923 Z M7.89555288,68.2068029 C7.89555288,68.2085337 7.86796875,68.2148077 7.80695913,68.2148077 C4.99272837,68.2148077 2.8040625,65.9359255 2.8040625,63.1193149 C2.8040625,60.3064904 5.02323317,58.0267428 7.8384375,58.0267428 C7.89944712,58.0267428 7.89685096,58.0328005 7.89685096,58.0347476 L7.89685096,68.2068029 L7.89555288,68.2068029 L7.89555288,68.2068029 Z M10.8442428,77.7166226 L10.8442428,59.1041466 C12.3174519,60.0390865 12.8088822,61.4866587 12.8088822,63.1193149 C12.8088822,63.2247837 12.8014183,63.3273317 12.7961178,63.4292308 L15.7563822,63.4292308 L15.7563822,63.3034255 C15.7563822,59.9726683 13.7429567,57.1244712 10.8433774,55.9840024 L10.8433774,36.0053005 C12.3165865,36.936887 12.8080168,38.3870553 12.8080168,40.0205769 C12.8080168,40.1240986 12.8005529,40.2259976 12.7952524,40.3286538 L15.7554087,40.3286538 L15.7554087,40.2038221 C15.7554087,36.8730649 13.7417668,34.0257332 10.8415385,32.8835337 L10.8415385,12.9082933 C12.3157212,13.8407452 12.8071514,15.2909135 12.8071514,16.9227043 C12.8071514,17.0261178 12.7995793,17.1282332 12.7942788,17.2317548 L15.7541106,17.2317548 L15.7541106,17.1076803 C15.7541106,13.7760577 13.7407933,10.9295913 10.8406731,9.78739183 L10.8406731,3.02397837 L62.9274159,3.02397837 L62.9274159,77.7166226 L10.8442428,77.7166226 L10.8442428,77.7166226 Z M68.3348798,83.1203005 L16.2495433,83.1203005 L16.2495433,80.6642308 L65.8778365,80.6642308 L65.8778365,8.42927885 L68.3348798,8.42927885 L68.3348798,83.1203005 L68.3348798,83.1203005 Z" fill="#000000" sketch:type="MSShapeGroup"/></g></g></g><text x="0" y="115" fill="#000000" font-size="5px" font-weight="bold" font-family="'Helvetica Neue', Helvetica, Arial-Unicode, Arial, Sans-serif">Created by Nick Kinling</text><text x="0" y="120" fill="#000000" font-size="5px" font-weight="bold" font-family="'Helvetica Neue', Helvetica, Arial-Unicode, Arial, Sans-serif">from the Noun Project</text></svg>