<svg xmlns="http://www.w3.org/2000/svg" xmlns:xlink="http://www.w3.org/1999/xlink" version="1.1" x="0px" y="0px" viewBox="0 0 100 125" enable-background="new 0 0 100 100" xml:space="preserve"><g><g><g><path d="M54.085,50.607c0-4.201-1.8-8.019-4.637-10.747c-2.182,2.509-3.491,5.892-3.546,9.492     c0.055,4.255,1.855,8.074,4.692,10.747C52.775,57.535,54.085,54.262,54.085,50.607z M60.631,64.082     c8.129,0,14.73-6.601,14.73-14.73s-6.601-14.675-14.73-14.675c-1.473,0-2.946,0.218-4.255,0.6     c3.655,4.037,5.892,9.438,5.892,15.33c0,4.964-1.582,9.547-4.255,13.257C58.885,64.027,59.758,64.082,60.631,64.082z      M39.355,65.336c1.528,0,2.946-0.218,4.31-0.655c-3.71-4.037-5.946-9.438-5.946-15.33c0-4.964,1.582-9.492,4.255-13.202     c-0.873-0.164-1.746-0.273-2.619-0.273c-8.129,0.055-14.675,6.601-14.73,14.73c0.055,4.092,1.691,7.747,4.31,10.42     C31.609,63.7,35.264,65.336,39.355,65.336z M95,19.948v15.548c0,2.237-1.8,4.092-4.092,4.092c-2.237,0-4.092-1.855-4.092-4.092     v-6.492l-7.365,7.31c2.564,3.655,4.092,8.183,4.092,13.038c0,12.656-10.256,22.913-22.913,22.913     c-3.382,0-6.546-0.709-9.438-2.073c-3.437,2.128-7.474,3.328-11.838,3.328c-4.855,0-9.329-1.528-13.038-4.092l-4.473,4.528     l4.037,4.037c1.637,1.582,1.637,4.201,0,5.783c-1.582,1.582-4.201,1.582-5.783,0l-4.037-4.037l-4.037,4.037     c-1.637,1.582-4.201,1.582-5.783,0c-1.637-1.582-1.637-4.201,0-5.783l4.037-4.037l-4.092-4.092c-1.582-1.582-1.582-4.201,0-5.783     c1.637-1.582,4.201-1.582,5.783,0l4.092,4.092l4.473-4.528c-2.564-3.71-4.092-8.183-4.092-13.038     c0-12.656,10.256-22.913,22.913-22.913c3.382,0,6.601,0.709,9.492,2.073h0.055c3.437-2.073,7.419-3.273,11.729-3.273     c4.855,0,9.274,1.528,12.984,4.092h0.055l7.365-7.365h-6.492c-2.237,0-4.092-1.855-4.092-4.092c0-2.291,1.855-4.092,4.092-4.092     h15.602c-0.055,0.055-0.055,0.055-0.055,0.055c0.273,0,0.546-0.055,0.818-0.055c0.218,0,0.436,0,0.6,0.055     c0.055,0,0.055,0,0.109,0c0.109,0,0.273,0.055,0.382,0.109c0.109,0,0.218,0.055,0.327,0.109c0.055,0,0.164,0.055,0.218,0.109     l0.055,0.055c0.218,0.055,0.436,0.164,0.655,0.327c0.218,0.109,0.382,0.273,0.546,0.436c0.164,0.164,0.327,0.327,0.436,0.546     c0.164,0.218,0.273,0.436,0.327,0.655l0.055,0.055c0.055,0.109,0.109,0.164,0.109,0.273c0.055,0.055,0.109,0.164,0.109,0.273     c0.055,0.109,0.109,0.273,0.109,0.382c0,0.055,0,0.055,0,0.109C95,18.693,95,18.911,95,19.129c0,0.273-0.055,0.546-0.055,0.818     C94.945,19.948,94.945,19.948,95,19.948z"/></g></g></g></svg>
