<svg xmlns="http://www.w3.org/2000/svg" xmlns:xlink="http://www.w3.org/1999/xlink" version="1.1" x="0px" y="0px" viewBox="0 0 100 125" enable-background="new 0 0 100 100" xml:space="preserve"><g><path d="M50.076,10.599c-11.285,0-20.548,8.012-25.204,17.818c-3.417,7.197-3.964,14.764-3.991,22.564   c-0.045,12.744-0.215,25.488-0.26,38.232c1.797,0,16.379,0.24,16.379-0.229c0-6.467,0-12.934,0-19.4c0-7.53,0-15.061,0-22.591   c0-4.01,0.501-7.974,2.128-11.697c1.832-4.192,6.255-9.486,11.485-8.146c4.167,1.067,6.941,5.425,8.457,9.126   C59.552,37.455,62.134,49,61.34,49c5.638,0,11.276,0,16.915,0c1.047,0,0.997,0.261,0.997-0.866c0-2.472-0.146-4.878-0.52-7.324   c-0.815-5.327-2.593-10.5-5.334-15.146C68.507,17.374,60.077,10.599,50.076,10.599z M64.673,46   c-0.45-10-9.084-28.805-21.933-20.001C34.972,31.323,34,41.171,34,49.752c0,8.416,0,16.832,0,25.248c0,3.215,0,6.429,0,9.644   c0,0.52,0,1.04,0,1.561C34,86.225,30.59,86,30.348,86c-2.196,0-4.394,0-6.591,0c0.046-13,0.092-26.012,0.138-39.071   c0.039-11.083,4.179-22.743,13.595-29.28c10.275-7.133,22.875-4.202,30.558,5.147C73.385,29.294,76.155,38,76.45,46   C72.524,46,68.599,46,64.673,46z"/><path d="M77.333,77.976c-2.137-8.815-4.272-17.631-6.409-26.446c-2.209,7.927-4.417,15.854-6.626,23.781   c-1.101,3.95-3.177,8.539,0.329,11.897c2.675,2.562,7.029,2.864,10.165,0.986C78.879,85.746,78.298,81.957,77.333,77.976z    M75.227,82.973c-0.889,4.145-7.22,4.483-9.264,1.156c-1.078-1.754,0.305-4.709,0.826-6.581c1.313-4.71,2.624-9.419,3.937-14.128   c0.722,2.985,1.444,5.971,2.166,8.956c0.421,1.741,0.843,3.482,1.264,5.224C74.562,79.28,75.59,81.279,75.227,82.973   C74.722,85.328,75.409,82.121,75.227,82.973z"/></g></svg>
