<svg xmlns="http://www.w3.org/2000/svg" xmlns:xlink="http://www.w3.org/1999/xlink" version="1.1" x="0px" y="0px" viewBox="0 0 72 90" enable-background="new 0 0 72 72" xml:space="preserve"><g><g><path fill="#000000" d="M55.3,38.2h-6.7c-1.3,0-2.4,1.1-2.4,2.4c0,1.3,1.1,2.4,2.4,2.4h6.7c1.3,0,2.4-1.1,2.4-2.4    C57.7,39.3,56.6,38.2,55.3,38.2z"/><path fill="#000000" d="M55.3,45.5h-6.7c-1.3,0-2.4,1.1-2.4,2.4c0,1.3,1.1,2.4,2.4,2.4h6.7c1.3,0,2.4-1.1,2.4-2.4    C57.7,46.6,56.6,45.5,55.3,45.5z"/><path fill="#000000" d="M55.3,52.9h-6.5c-1.3,0-2.5,1-2.6,2.3c-0.1,1.4,1,2.6,2.4,2.6h1.1c0.3,0,0.5,0.2,0.5,0.5v0.1    c0,0.9-0.7,1.6-1.6,1.6H24.5c-0.9,0-1.6-0.7-1.6-1.6V35.6c0-0.4,0.2-0.8,0.5-1.1l8.7-7.3c2.4-2-0.2-5.7-2.9-4.1l-5.6,3.2    c-0.3,0.2-0.7-0.1-0.7-0.4v-3.3c0-0.9,0.7-1.6,1.6-1.6h24.1c0.9,0,1.6,0.7,1.6,1.6v7.8c0,0.2-0.2,0.4-0.4,0.4h-1    c-1.3,0-2.5,1-2.6,2.3c-0.1,1.4,1,2.6,2.4,2.6h6.5c1.3,0,2.5-1,2.6-2.3c0.1-1.4-1-2.6-2.4-2.6h-1.1c-0.2,0-0.4-0.2-0.4-0.4V15.9    c0-1.1-0.9-2.1-2.1-2.1H21.4c-1.1,0-2.1,0.9-2.1,2.1V28c0,0.5-0.3,1-0.7,1.2l-7.1,4c0,0,0,0,0,0c-3.7,2.2-6.2,6.3-6.2,10.9l0,0    C5.3,51.3,11,57,18,57h0.7c0.3,0,0.6,0.3,0.6,0.6v11.9c0,1.1,0.9,2.1,2.1,2.1h30.3c1.1,0,2.1-0.9,2.1-2.1V58.2    c0-0.3,0.2-0.5,0.5-0.5l0.9,0c1.3,0,2.5-1,2.6-2.3C57.8,54,56.7,52.9,55.3,52.9z M30.3,16.1h12.6c0.5,0,1,0.4,1,1c0,0.5-0.4,1-1,1    H30.3c-0.5,0-1-0.4-1-1C29.3,16.6,29.8,16.1,30.3,16.1z M36.6,69.2c-1.9,0-3.5-1.6-3.5-3.5c0-1.9,1.6-3.5,3.5-3.5    c1.9,0,3.5,1.6,3.5,3.5C40.1,67.6,38.5,69.2,36.6,69.2z"/></g><g><path fill="#000000" d="M58.4,8.8C57,7.3,55,6.5,53,6.5c-0.8,0-1.5,0.7-1.5,1.5c0,0.8,0.7,1.5,1.5,1.5c1.3,0,2.5,0.5,3.4,1.4    c0.9,0.9,1.4,2.1,1.4,3.4c0,0.4,0.2,0.8,0.4,1c0.3,0.3,0.6,0.4,1,0.4c0.8,0,1.5-0.7,1.5-1.5C60.7,12.2,59.9,10.2,58.4,8.8z"/><path fill="#000000" d="M66.7,13.2c0-7-5.7-12.7-12.7-12.7c-0.8,0-1.5,0.7-1.5,1.5c0,0.8,0.7,1.5,1.5,1.5c2.6,0,5,1,6.9,2.9    c1.8,1.8,2.9,4.3,2.9,6.9c0,0.4,0.2,0.8,0.4,1c0.3,0.3,0.6,0.4,1,0.4C66,14.6,66.7,14,66.7,13.2z"/></g></g></svg>
