<svg xmlns="http://www.w3.org/2000/svg" xmlns:xlink="http://www.w3.org/1999/xlink" version="1.1" x="0px" y="0px" viewBox="0 0 100 125" enable-background="new 0 0 100 100" xml:space="preserve"><g><polygon points="65.51,22.229 51.516,28.561 39.732,41.216 41.562,42.92 53.004,30.632 66.049,24.729 66.567,24.729 79.614,30.632    91.056,42.92 92.886,41.216 81.103,28.561 67.106,22.229  "/><path d="M91.888,82.647l-1.917,1.827V82.64l3.642-3.473l-1.725-1.809l-1.917,1.827V73.68h-2.5v5.638l-2.556-2.033l-1.557,1.957   l4.112,3.271v2.094l-2.556-2.033l-1.557,1.957l3.484,2.771h-7.85l2.985-2.845l-1.725-1.811l-1.918,1.828v-1.836l3.643-3.471   l-1.725-1.811l-1.918,1.828V73.68h-2.5v5.639l-2.557-2.034l-1.557,1.957l4.113,3.272v2.094l-2.557-2.034l-1.557,1.957l3.484,2.771   H65.121l2.921-11.539l-0.027-0.231c-0.142-1.174-0.312-2.846-0.373-3.904h25.692v-2.5h-3.645V43.41l-10.521-11.3l-12.134-5.49   h-1.452l-12.134,5.49l-10.521,11.3v10.797c-2.006-0.023-2.744-0.076-3.013-0.111c-1.697-0.223-5.444,0.568-6.572,0.825   l-5.671-1.563c0.439-1.053,0.459-2.126,0.459-2.313v-0.847l-0.786-0.314c-0.397-0.159-0.839-0.239-1.315-0.239   c-1.303,0-2.637,0.609-3.357,0.999l-0.51-0.156c-0.219-0.068-0.443-0.102-0.666-0.102c-1.326,0-2.106,1.141-2.393,1.663   l-2.562,2.563L16.3,57.113c-3.344,3.752-3.498,4.293-3.571,4.553c-0.204,0.71-0.067,1.665,2.494,3.372l0.46,0.307l2.209-0.553   l5.383,0.741c0.518,1.201,1.341,2.43,2.276,3.594H6.569v2.5H27.8c1.51,1.527,2.95,2.746,3.663,3.326l0.622,12.349H23.26   l-2.402-5.609l-3.362,5.609H6.569v2.5h12.343l1.574-2.627l1.125,2.627l30.447-0.011l0.374-0.519c0.005-0.008,0.553-0.742,1.2-0.773   c0.535,0.004,1.073,0.462,1.435,0.876l0.373,0.427h37.895v-2.5h-2.706l2.984-2.846L91.888,82.647z M55.334,45.151v8.478   c-2.027,0.246-3.679,0.48-4.076,0.538c-0.49,0.009-3.158,0.047-5.83,0.05v-9.065H55.334z M57.834,47.715l3.902,5.313   c-1.176,0.058-2.543,0.178-3.902,0.318V47.715z M65.038,53.202c-0.026-0.009-0.061-0.016-0.089-0.024l-5.896-8.026h14.509   l-6.604,8.991C66.296,53.705,65.623,53.405,65.038,53.202z M70.118,60.214c-0.047-1.87-0.576-3.283-1.333-4.334l5.997-8.165v18.848   L70.118,60.214z M69.701,63.87l3.861,5.257h-5.339C68.636,68.052,69.178,66.447,69.701,63.87z M77.282,69.127V45.151h9.907v23.976   H77.282z M66.122,29.12h0.374l6.134,2.776H59.988L66.122,29.12z M54.738,34.396H77.88l7.688,8.256H47.05L54.738,34.396z    M34.587,87.302l-0.685-13.609l-0.454-0.353c-1.882-1.459-7.002-5.979-8.078-9.327l-0.241-0.748l-7.376-1.016l-1.586,0.397   c-0.286-0.212-0.558-0.432-0.76-0.614c0.611-0.793,1.9-2.297,3.029-3.557l0.273-0.306l0.235-2.426l2.231-2.231l0.094-0.212   c0.046-0.104,0.175-0.294,0.273-0.389l1.474,0.45l0.487-0.312c0.312-0.199,1.143-0.65,1.927-0.83   c-0.115,0.343-0.278,0.631-0.485,0.74l-2.78,1.474l11.132,3.067l0.314-0.076c1.109-0.268,4.622-1.03,5.98-0.852   c0.27,0.035,1.092,0.144,5.521,0.144c3.079,0,6.264-0.052,6.264-0.052l0.16-0.013c0.08-0.012,8.021-1.165,11.558-1.165   c0.869,0,1.113,0.073,1.121,0.075c1.917,0.666,3.009,1.971,3.308,3.862c-0.399,1.29-1.046,2.173-1.998,2.644   c-1.751,0.86-4.058,0.229-5.027-0.107c-0.31-0.695-0.954-1.782-2.121-2.375c-0.685-0.348-1.816-0.646-3.321-0.093l0.865,2.346   c0.529-0.195,0.96-0.205,1.316-0.027c0.628,0.313,1.001,1.166,1.09,1.46l0.16,0.562l0.533,0.237   c0.12,0.054,2.114,0.925,4.429,0.925c1.039,0,2.142-0.176,3.168-0.679c0.171-0.084,0.331-0.18,0.491-0.277   c-0.557,2.533-1.117,3.948-1.476,4.844c-0.269,0.668-0.462,1.15-0.503,1.691c-0.079,1.007,0.254,3.998,0.374,5.023l-2.384,9.416   l0.622-8.471l-4.447-9.019l-1.234,1.357c-0.036,0.039-3.695,3.982-9.951,3.982c-1.807,0-3.677-0.333-5.56-0.989l-0.259-0.09   l-5.389,0.52l-2.053,14.996H34.587z M56.543,87.302c-0.952-0.923-1.973-1.358-3.062-1.298c-1.228,0.07-2.137,0.777-2.645,1.298   H37.374l1.739-12.697l2.879-0.277c2.06,0.688,4.117,1.038,6.12,1.038c5.068,0,8.673-2.19,10.482-3.614L61.2,77.04l-0.753,10.262   H56.543z"/><path d="M34.776,37.524H13.912c0.458-2.98,2.526-5.526,5.438-6.547l1.086-0.381l-0.29-1.114c-0.225-0.865-0.339-1.725-0.339-2.558   c0-5.609,4.563-10.172,10.171-10.172c3.706,0,7.122,2.021,8.914,5.274l0.625,1.135l1.111-0.665   c1.076-0.644,2.298-0.983,3.536-0.983c0.288,0,0.595,0.024,0.966,0.077l1.676,0.236l-0.267-1.671   c-0.077-0.479-0.114-0.904-0.114-1.3c0-4.561,3.71-8.272,8.271-8.272c4.073,0,7.46,2.962,8.14,6.844h-8.181v2.5h37.315v-2.5H65.361   c-0.702-5.265-5.211-9.344-10.665-9.344c-5.939,0-10.771,4.833-10.771,10.772c0,0.054,0,0.107,0.001,0.161   c-1.198,0.031-2.379,0.293-3.481,0.771c-2.348-3.441-6.257-5.534-10.467-5.534c-6.987,0-12.671,5.685-12.671,12.672   c0,0.696,0.063,1.403,0.187,2.115c-3.361,1.584-5.668,4.806-6.1,8.484H6.569v2.5h28.207V37.524z"/><rect x="14.855" y="41.818" width="21.859" height="2.5"/><rect x="79.881" y="22.803" width="12.09" height="2.5"/></g></svg>
