<svg xmlns="http://www.w3.org/2000/svg" xmlns:xlink="http://www.w3.org/1999/xlink" version="1.1" x="0px" y="0px" viewBox="0 0 100 125" enable-background="new 0 0 100 100" xml:space="preserve"><path d="M91.1252441,15.779541H13.1247559c-1.5439453,0-2.7998047,1.2558594-2.7998047,2.7998047v1.2001953H8.8747559  c-1.5439453,0-2.7998047,1.2558594-2.7998047,2.7998047v58.8413086c0,1.5439453,1.2558594,2.7998047,2.7998047,2.7998047h78.0004883  c1.5439453,0,2.7998047-1.2558594,2.7998047-2.7998047V80.220459h1.4501953c1.5439453,0,2.7998047-1.2558594,2.7998047-2.7998047  V18.5793457C93.9250488,17.0354004,92.6691895,15.779541,91.1252441,15.779541z M88.0754395,81.4206543  c0,0.6621094-0.5380859,1.2001953-1.2001953,1.2001953H8.8747559c-0.6616211,0-1.2001953-0.5380859-1.2001953-1.2001953V22.5793457  c0-0.6616211,0.5385742-1.2001953,1.2001953-1.2001953h78.0004883c0.6621094,0,1.2001953,0.5385742,1.2001953,1.2001953V81.4206543z   M31.9953613,25.9055176l-20.8704834,0.0411377c-0.3034058,0.0648804-0.5741577,0.2108765-0.7999268,0.4077759  c-0.3786011,0.3301392-0.6230469,0.8101196-0.6230469,1.3508911v48.5893555c0,0.552063,0.255188,1.0407715,0.6478271,1.3712158  c0.2496948,0.210144,0.5539551,0.3527222,0.8916016,0.4022827c0.0856934,0.0125732,0.1712036,0.0263062,0.260376,0.0263062  h0.6570435h19.8366089c0.9926758,0,1.7998047-0.8076172,1.7998047-1.7998047V27.7053223  C33.795166,26.7126465,32.9880371,25.9055176,31.9953613,25.9055176z M32.1955566,76.2946777  c0,0.1103516-0.0898438,0.2001953-0.2001953,0.2001953H11.9245605H11.501709c-0.1103516,0-0.2001953-0.0898438-0.2001953-0.2001953  V27.7053223c0-0.1103516,0.0898438-0.2001953,0.2001953-0.2001953h20.4936523c0.1103516,0,0.2001953,0.0898438,0.2001953,0.2001953  V76.2946777z M28.4934082,59.979248c0,0.4414063-0.3579102,0.7998047-0.7998047,0.7998047H15.8034668  c-0.4418945,0-0.7998047-0.3583984-0.7998047-0.7998047s0.3579102-0.7998047,0.7998047-0.7998047h11.8901367  C28.135498,59.1794434,28.4934082,59.5378418,28.4934082,59.979248z M28.4934082,65.2507324  c0,0.4414063-0.3579102,0.7998047-0.7998047,0.7998047H15.8034668c-0.4418945,0-0.7998047-0.3583984-0.7998047-0.7998047  s0.3579102-0.7998047,0.7998047-0.7998047h11.8901367C28.135498,64.4509277,28.4934082,64.8093262,28.4934082,65.2507324z   M26.0222168,37.9758301c-0.4291992,0.0161133-0.8476563,0.0908203-1.2514648,0.222168  c-0.7250977-1.2148438-1.9697266-2.0463867-3.4023438-2.2333984c-2.3920898-0.3071289-4.5927734,1.2475586-5.1416016,3.5400391  c-1.8774414,0.4418945-3.3032227,1.9912109-3.5581055,3.9487305c-0.1616211,1.2402344,0.1694336,2.4697266,0.9321289,3.4609375  c0.7631836,0.9916992,1.8662109,1.6264648,3.1064453,1.7880859c0.9990234,0.1264648,1.9892578-0.0600586,2.8549805-0.5361328  c0.7714844,0.6899414,1.7319336,1.1333008,2.7661133,1.2685547c0.2265625,0.0292969,0.4521484,0.0439453,0.6757813,0.0439453  c1.722168,0,3.328125-0.855957,4.2900391-2.3037109c2.1435547-0.5126953,3.6557617-2.4750977,3.5703125-4.7143555  c-0.0478516-1.2456055-0.5776367-2.3984375-1.4926758-3.2456055C28.4572754,38.3679199,27.2658691,37.9289551,26.0222168,37.9758301  z M26.6740723,45.6677246c-0.2421875,0.0371094-0.4536133,0.1835938-0.5742188,0.3969727  c-0.7192383,1.2714844-2.121582,1.9697266-3.5649414,1.7832031c-0.8745117-0.1142578-1.6738281-0.5498047-2.2509766-1.2270508  c-0.1577148-0.1855469-0.3823242-0.28125-0.609375-0.28125c-0.1704102,0-0.3417969,0.0537109-0.4863281,0.1650391  c-0.6513672,0.5-1.4570313,0.7172852-2.2739258,0.6108398c-0.8168945-0.105957-1.5429688-0.5239258-2.0454102-1.1767578  c-0.5019531-0.652832-0.7197266-1.4619141-0.6132813-2.2788086c0.1855469-1.4257813,1.3149414-2.5219727,2.7470703-2.6660156  c0.3793945-0.0380859,0.684082-0.4179688,0.7211914-0.7973633c0.2182617-1.6777344,1.7670898-2.8632813,3.4375-2.6450195  c1.1245117,0.1464844,2.0727539,0.8979492,2.4741211,1.9609375c0.081543,0.215332,0.2519531,0.3852539,0.4672852,0.4663086  c0.2143555,0.0800781,0.4541016,0.0644531,0.6586914-0.043457c0.4145508-0.2216797,0.859375-0.3432617,1.3217773-0.3608398  c0.8061523-0.034668,1.6000977,0.2578125,2.2016602,0.8144531c0.6010742,0.5571289,0.9492188,1.3144531,0.980957,2.1333008  C29.3249512,44.0778809,28.2106934,45.4299316,26.6740723,45.6677246z M84.248291,25.9055176H63.7541504  c-0.9921875,0-1.7998047,0.8071289-1.7998047,1.7998047v48.5893555c0,0.9921875,0.8076172,1.7998047,1.7998047,1.7998047H84.248291  c0.9921875,0,1.7998047-0.8076172,1.7998047-1.7998047V27.7053223  C86.0480957,26.7126465,85.2404785,25.9055176,84.248291,25.9055176z M84.4484863,76.2946777  c0,0.1103516-0.0898438,0.2001953-0.2001953,0.2001953H63.7541504c-0.1103516,0-0.2001953-0.0898438-0.2001953-0.2001953V27.7053223  c0-0.1103516,0.0898438-0.2001953,0.2001953-0.2001953H84.248291c0.1103516,0,0.2001953,0.0898438,0.2001953,0.2001953V76.2946777z   M80.7463379,59.979248c0,0.4414063-0.3583984,0.7998047-0.7998047,0.7998047h-11.890625  c-0.4414063,0-0.7998047-0.3583984-0.7998047-0.7998047s0.3583984-0.7998047,0.7998047-0.7998047h11.890625  C80.3879395,59.1794434,80.7463379,59.5378418,80.7463379,59.979248z M80.7463379,65.2507324  c0,0.4414063-0.3583984,0.7998047-0.7998047,0.7998047h-11.890625c-0.4414063,0-0.7998047-0.3583984-0.7998047-0.7998047  s0.3583984-0.7998047,0.7998047-0.7998047h11.890625C80.3879395,64.4509277,80.7463379,64.8093262,80.7463379,65.2507324z   M70.4621582,51.1218262c-0.4414063,0-0.7998047-0.3583984-0.7998047-0.800293v-1.7958984  c0-0.4418945,0.3583984-0.7998047,0.7998047-0.7998047s0.7998047,0.3579102,0.7998047,0.7998047v1.7958984  C71.2619629,50.7634277,70.9035645,51.1218262,70.4621582,51.1218262z M78.2746582,36.3322754  c-0.4287109,0.0161133-0.8466797,0.0908203-1.2509766,0.222168c-0.7255859-1.2148438-1.9697266-2.0463867-3.4023438-2.2333984  c-1.2392578-0.1601563-2.4619141,0.168457-3.4492188,0.9291992c-0.8583984,0.6601563-1.4482422,1.5761719-1.6933594,2.6113281  c-1.8769531,0.4418945-3.3027344,1.9907227-3.5566406,3.9482422c-0.1621094,1.2402344,0.1689453,2.4697266,0.9316406,3.4609375  c0.7626953,0.9916992,1.8662109,1.6264648,3.1064453,1.7880859c0.9960938,0.1293945,1.9882813-0.0585938,2.8544922-0.5361328  c0.4130249,0.3693848,0.8830566,0.6616211,1.3867188,0.880188v1.8429565c0,0.4418945,0.3583984,0.7998047,0.7998047,0.7998047  s0.7998047-0.3579102,0.7998047-0.7998047V47.805603c0.1522217,0.0133057,0.3046875,0.0296021,0.4560547,0.0296021  c0.5101929,0,1.0072632-0.0836792,1.4833984-0.2271118v2.7134399c0,0.4418945,0.3583984,0.800293,0.7998047,0.800293  s0.7998047-0.3583984,0.7998047-0.800293v-3.5203857c0.4631348-0.3475952,0.8754272-0.7705688,1.2070313-1.2696533  c2.1435547-0.5126953,3.65625-2.4750977,3.5703125-4.7143555C83.0187988,38.2453613,80.8312988,36.244873,78.2746582,36.3322754z   M78.927002,44.0241699c-0.2421875,0.0371094-0.4541016,0.1835938-0.5742188,0.3969727  c-0.7174683,1.2669678-2.1132202,1.9666138-3.5517578,1.7839355c-0.0045776-0.0006104-0.0090942-0.0001221-0.0136719-0.0007324  c-0.5717773-0.0744019-1.1043091-0.2987671-1.5706787-0.6263428c-0.246582-0.1731567-0.4800415-0.3665161-0.6793213-0.600708  c-0.1582031-0.1855469-0.3828125-0.28125-0.609375-0.28125c-0.1708984,0-0.3417969,0.0537109-0.4863281,0.1650391  c-0.6533203,0.5-1.4609375,0.715332-2.2744141,0.6108398c-0.8173828-0.105957-1.5429688-0.5239258-2.0449219-1.1767578  c-0.5029297-0.652832-0.7207031-1.4619141-0.6142578-2.2788086c0.1855469-1.4257813,1.3154297-2.5219727,2.7470703-2.6660156  c0.375-0.0375977,0.6806641-0.4228516,0.7216797-0.7978516c0.1064453-0.8120117,0.5214844-1.534668,1.1708984-2.0341797  c0.6494141-0.4990234,1.4550781-0.7158203,2.2666016-0.6103516c1.125,0.1464844,2.0722656,0.8979492,2.4746094,1.9609375  c0.0810547,0.215332,0.2509766,0.3852539,0.4667969,0.4663086c0.2158203,0.0800781,0.4550781,0.0634766,0.6582031-0.043457  c0.4150391-0.2216797,0.8603516-0.3432617,1.3212891-0.3608398c1.6767578-0.059082,3.1171875,1.2573242,3.1826172,2.9477539  C81.5783691,42.4343262,80.4641113,43.786377,78.927002,44.0241699z M58.1213379,25.9055176H37.6281738  c-0.9926758,0-1.7998047,0.8071289-1.7998047,1.7998047v48.5893555c0,0.9921875,0.8071289,1.7998047,1.7998047,1.7998047h20.4931641  c0.9921875,0,1.7998047-0.8076172,1.7998047-1.7998047V27.7053223  C59.9211426,26.7126465,59.1135254,25.9055176,58.1213379,25.9055176z M58.3215332,76.2946777  c0,0.1103516-0.0898438,0.2001953-0.2001953,0.2001953H37.6281738c-0.1103516,0-0.2001953-0.0898438-0.2001953-0.2001953V27.7053223  c0-0.1103516,0.0898438-0.2001953,0.2001953-0.2001953h20.4931641c0.1103516,0,0.2001953,0.0898438,0.2001953,0.2001953V76.2946777z   M54.6193848,59.979248c0,0.4414063-0.3583984,0.7998047-0.7998047,0.7998047H41.9299316  c-0.4418945,0-0.7998047-0.3583984-0.7998047-0.7998047s0.3579102-0.7998047,0.7998047-0.7998047h11.8896484  C54.2609863,59.1794434,54.6193848,59.5378418,54.6193848,59.979248z M54.6193848,65.2507324  c0,0.4414063-0.3583984,0.7998047-0.7998047,0.7998047H41.9299316c-0.4418945,0-0.7998047-0.3583984-0.7998047-0.7998047  s0.3579102-0.7998047,0.7998047-0.7998047h11.8896484C54.2609863,64.4509277,54.6193848,64.8093262,54.6193848,65.2507324z   M47.0749512,37.5788574V35.557373c0-0.4418945,0.3579102-0.7998047,0.7998047-0.7998047s0.7998047,0.3579102,0.7998047,0.7998047  v2.0214844c0,0.4418945-0.3579102,0.7998047-0.7998047,0.7998047S47.0749512,38.020752,47.0749512,37.5788574z   M47.8747559,47.0246582c0.4418945,0,0.7998047,0.3579102,0.7998047,0.7998047v2.0214844  c0,0.4418945-0.3579102,0.7998047-0.7998047,0.7998047s-0.7998047-0.3579102-0.7998047-0.7998047v-2.0214844  C47.0749512,47.3825684,47.4328613,47.0246582,47.8747559,47.0246582z M55.8186035,42.701416  c0,0.4418945-0.3583984,0.7998047-0.7998047,0.7998047H52.998291c-0.4414063,0-0.7998047-0.3579102-0.7998047-0.7998047  s0.3583984-0.7998047,0.7998047-0.7998047h2.0205078C55.4602051,41.9016113,55.8186035,42.2595215,55.8186035,42.701416z   M42.751709,43.5012207h-2.0209961c-0.4418945,0-0.7998047-0.3579102-0.7998047-0.7998047s0.3579102-0.7998047,0.7998047-0.7998047  h2.0209961c0.4418945,0,0.7998047,0.3579102,0.7998047,0.7998047S43.1936035,43.5012207,42.751709,43.5012207z   M52.0627441,45.7580566l1.4296875,1.4296875c0.3125,0.3125,0.3125,0.8193359,0,1.1318359  c-0.15625,0.1557617-0.3603516,0.2338867-0.5654297,0.2338867s-0.4091797-0.078125-0.5654297-0.2338867l-1.4301758-1.4296875  c-0.3120117-0.3125-0.3120117-0.8193359,0-1.1318359C51.2443848,45.4465332,51.7512207,45.4470215,52.0627441,45.7580566z   M42.2570801,38.2150879c-0.3120117-0.3125-0.3120117-0.8188477,0.0004883-1.1313477s0.8188477-0.3120117,1.1313477,0.0004883  l1.4291992,1.4296875c0.3120117,0.3125,0.3120117,0.8188477-0.0004883,1.1313477  c-0.15625,0.15625-0.3608398,0.2338867-0.5654297,0.2338867s-0.409668-0.078125-0.565918-0.234375L42.2570801,38.2150879z   M44.817627,45.7580566c0.3125,0.3125,0.3125,0.8188477,0.0004883,1.1313477l-1.4291992,1.4296875  c-0.15625,0.15625-0.3613281,0.234375-0.565918,0.234375s-0.4091797-0.0776367-0.5654297-0.2338867  c-0.3125-0.3125-0.3125-0.8188477-0.0004883-1.1313477l1.4291992-1.4296875  C43.9987793,45.4460449,44.505127,45.4455566,44.817627,45.7580566z M50.9313965,39.6452637  c-0.3120117-0.3125-0.3120117-0.8193359,0-1.1318359l1.4301758-1.4296875c0.3125-0.3115234,0.8183594-0.3115234,1.1308594,0  c0.3125,0.3125,0.3125,0.8193359,0,1.1318359l-1.4296875,1.4296875c-0.15625,0.1557617-0.3603516,0.2338867-0.5654297,0.2338867  C51.2927246,39.8791504,51.0876465,39.8010254,50.9313965,39.6452637z M47.8747559,46.3449707  c2.0087891,0,3.6430664-1.6342773,3.6430664-3.6435547c0-2.0087891-1.6342773-3.6430664-3.6430664-3.6430664  s-3.6430664,1.6342773-3.6430664,3.6430664C44.2316895,44.7106934,45.8659668,46.3449707,47.8747559,46.3449707z   M47.8747559,40.657959c1.1264648,0,2.043457,0.9169922,2.043457,2.043457c0,1.1269531-0.9169922,2.0439453-2.043457,2.0439453  s-2.043457-0.9169922-2.043457-2.0439453C45.8312988,41.5749512,46.748291,40.657959,47.8747559,40.657959z"/></svg>
