<svg xmlns="http://www.w3.org/2000/svg" xmlns:xlink="http://www.w3.org/1999/xlink" version="1.0" x="0px" y="0px" viewBox="0 0 100 125" enable-background="new 0 0 100 100" xml:space="preserve"><path d="M68.057,70.134c0-2.182,1.769-3.95,3.95-3.95s3.95,1.769,3.95,3.95s-1.769,3.95-3.95,3.95S68.057,72.315,68.057,70.134  L68.057,70.134z M77.438,61.082c0-2.182,1.769-3.95,3.95-3.95s3.95,1.769,3.95,3.95s-1.769,3.949-3.95,3.949  S77.438,63.264,77.438,61.082L77.438,61.082z M77.438,79.186c0-2.182,1.769-3.95,3.95-3.95s3.95,1.769,3.95,3.95  s-1.769,3.95-3.95,3.95S77.438,81.367,77.438,79.186L77.438,79.186z M37.58,55.945c-1.542,1.543-1.542,4.043,0,5.586  c1.543,1.543,4.044,1.543,5.587,0c1.542-1.543,1.542-4.043,0-5.586C41.624,54.403,39.123,54.403,37.58,55.945L37.58,55.945z   M46.658,46.868c-1.929,1.929-1.929,5.055,0,6.982c1.928,1.929,5.055,1.928,6.982,0s1.928-5.054,0-6.982  C51.713,44.94,48.586,44.94,46.658,46.868L46.658,46.868z M55.735,37.791c-1.543,1.543-1.543,4.043,0,5.586  c1.542,1.542,4.044,1.542,5.586,0c1.543-1.543,1.543-4.043,0-5.586C59.779,36.248,57.277,36.248,55.735,37.791L55.735,37.791z   M62.842,25.098l9.52-9.519l1.356,1.355l-9.463,9.462c1.346,1.417,2.172,3.332,2.172,5.44v8.649  c0.025,2.054-0.745,4.116-2.312,5.684c-1.464,1.464-3.36,2.233-5.278,2.308c0.615,2.853-0.186,5.949-2.402,8.166  s-5.313,3.018-8.166,2.402c-0.074,1.918-0.844,3.814-2.308,5.278c-1.86,1.859-4.415,2.599-6.828,2.216h-7.408  c-2.802,0-5.264-1.458-6.666-3.657l9.729-9.73l0.452-0.452l1.96-1.959l6.666-6.666l11.19-11.19  c-4.824,2.379-10.254,3.716-15.996,3.716c-9.794,0-18.679-3.888-25.196-10.204c6.518-6.316,15.402-10.204,25.196-10.204  C48.162,16.192,56.48,19.552,62.842,25.098L62.842,25.098z M63.854,53.25c1.928-1.928,5.054-1.928,6.982,0  c1.928,1.929,1.928,5.055,0,6.982c-1.929,1.929-5.055,1.929-6.982,0C61.926,58.305,61.926,55.179,63.854,53.25L63.854,53.25z   M53.04,64.063c1.928-1.928,5.055-1.928,6.982,0c1.929,1.929,1.929,5.055,0,6.982c-1.928,1.929-5.055,1.929-6.982,0  C51.111,69.118,51.111,65.992,53.04,64.063L53.04,64.063z"/></svg>
