<svg xmlns:dc="http://purl.org/dc/elements/1.1/" xmlns:cc="http://creativecommons.org/ns#" xmlns:rdf="http://www.w3.org/1999/02/22-rdf-syntax-ns#" xmlns:svg="http://www.w3.org/2000/svg" xmlns="http://www.w3.org/2000/svg" xmlns:sodipodi="http://sodipodi.sourceforge.net/DTD/sodipodi-0.dtd" xmlns:inkscape="http://www.inkscape.org/namespaces/inkscape" viewBox="0 0 48 60.00000125" version="1.1" x="0px" y="0px"><g transform="translate(0,-1004.3622)"><path style="color:#000000;font-style:normal;font-variant:normal;font-weight:normal;font-stretch:normal;font-size:medium;line-height:normal;font-family:sans-serif;text-indent:0;text-align:start;text-decoration:none;text-decoration-line:none;text-decoration-style:solid;text-decoration-color:#000000;letter-spacing:normal;word-spacing:normal;text-transform:none;direction:ltr;block-progression:tb;writing-mode:lr-tb;baseline-shift:baseline;text-anchor:start;white-space:normal;clip-rule:nonzero;display:inline;overflow:visible;visibility:visible;opacity:1;isolation:auto;mix-blend-mode:normal;color-interpolation:sRGB;color-interpolation-filters:linearRGB;solid-color:#000000;solid-opacity:1;fill:#000000;fill-opacity:1;fill-rule:evenodd;stroke:none;stroke-width:2;stroke-linecap:round;stroke-linejoin:round;stroke-miterlimit:4;stroke-dasharray:none;stroke-dashoffset:0;stroke-opacity:1;color-rendering:auto;image-rendering:auto;shape-rendering:auto;text-rendering:auto;enable-background:accumulate" d="m 8.4987507,1004.4218 c -0.8221158,-0.081 -1.6642565,-0.084 -2.5334077,0.019 a 1.0001808,1.0001157 0 0 0 -0.8809305,0.922 c -0.216149,3.0722 0.6481159,5.5417 1.9513295,8.1368 -0.083923,0.3664 -0.708534,3.0729 -0.9473421,4.7481 -0.4407386,3.0921 -0.8226865,6.2455 -0.8125656,9.4357 0.00951,2.9978 0.4736312,5.9125 0.808659,8.7619 0.2688605,2.2866 0.9073768,6.3868 0.9610151,6.7325 -1.2281892,2.5152 -2.3849845,5.1351 -1.9532828,8.2384 a 1.0001808,1.0001157 0 0 0 0.9297626,0.8613 c 3.3980181,0.2035 6.2218388,-0.7647 9.1823818,-1.9921 l 18.554232,0 c 2.53177,1.2417 5.169058,2.4202 8.297546,1.9843 a 1.0001808,1.0001157 0 0 0 0.859443,-0.9218 c 0.21615,-3.0723 -0.648119,-5.5398 -1.951328,-8.1349 0.08312,-0.3648 0.705486,-3.0767 0.947341,-4.7482 0.426154,-2.9453 0.809174,-5.9491 0.812566,-8.9962 0.0035,-3.1407 -0.463004,-6.2029 -0.808659,-9.1994 -0.264318,-2.2914 -0.90703,-6.391 -0.961015,-6.7364 1.228165,-2.5152 2.384975,-5.1332 1.953283,-8.2364 a 1.0001808,1.0001157 0 0 0 -0.929763,-0.8615 c -3.400224,-0.2035 -6.225619,0.7638 -9.188242,1.9923 l -17.575637,0 c -2.120832,-0.8664 -4.323758,-1.7701 -6.7153863,-2.0059 z m -1.3204191,2.0958 c 2.4915792,-0.024 4.9139254,0.786 7.4849784,1.8359 a 1.0001808,1.0001157 0 0 0 0.376985,0.074 l 17.919414,0 a 1.0001808,1.0001157 0 0 0 0.384798,-0.078 c 2.621085,-1.0956 4.917945,-1.767 7.494746,-1.8164 0.02224,2.1756 -0.710512,4.1951 -1.810694,6.4317 a 1.0001808,1.0001157 0 0 0 -0.08985,0.5977 c 0,0 0.727287,4.6554 0.990314,6.9356 0.351018,3.043 0.798306,6.0299 0.794986,8.9689 -0.0032,2.8806 -0.368406,5.7918 -0.791078,8.7131 -0.227262,1.5706 -0.980549,4.9044 -0.980549,4.9044 a 1.0001808,1.0001157 0 0 0 0.08595,0.6797 c 1.164636,2.2558 1.743128,4.1723 1.783347,6.4356 -2.173675,0.023 -4.189991,-0.7087 -6.424346,-1.8106 a 1.0001808,1.0001157 0 0 0 -0.443395,-0.1035 l -18.913636,0 a 1.0001808,1.0001157 0 0 0 -0.384797,0.078 c -2.621079,1.0958 -4.9179356,1.7653 -7.4947459,1.8145 -0.021681,-2.1749 0.7108414,-4.1959 1.810693,-6.4317 a 1.0001808,1.0001157 0 0 0 0.089851,-0.5938 c 0,0 -0.7217561,-4.6555 -0.9903143,-6.9396 -0.3411933,-2.9017 -0.7861227,-5.7423 -0.794986,-8.5353 -0.0096,-3.0262 0.3545469,-6.084 0.7910794,-9.1466 0.2233654,-1.5669 0.9805479,-4.9004 0.9805479,-4.9004 a 1.0001808,1.0001157 0 0 0 -0.085944,-0.6817 c -1.163946,-2.2546 -1.7423651,-4.1703 -1.7833471,-6.4317 z"/><path style="color:#000000;font-style:normal;font-variant:normal;font-weight:normal;font-stretch:normal;font-size:medium;line-height:normal;font-family:sans-serif;text-indent:0;text-align:start;text-decoration:none;text-decoration-line:none;text-decoration-style:solid;text-decoration-color:#000000;letter-spacing:normal;word-spacing:normal;text-transform:none;direction:ltr;block-progression:tb;writing-mode:lr-tb;baseline-shift:baseline;text-anchor:start;white-space:normal;clip-rule:nonzero;display:inline;overflow:visible;visibility:visible;opacity:1;isolation:auto;mix-blend-mode:normal;color-interpolation:sRGB;color-interpolation-filters:linearRGB;solid-color:#000000;solid-opacity:1;fill:#000000;fill-opacity:1;fill-rule:evenodd;stroke:none;stroke-width:2;stroke-linecap:round;stroke-linejoin:round;stroke-miterlimit:4;stroke-dasharray:none;stroke-dashoffset:0;stroke-opacity:1;color-rendering:auto;image-rendering:auto;shape-rendering:auto;text-rendering:auto;enable-background:accumulate" d="m 14.999275,1031.3617 a 1.0001808,1.0001157 0 0 0 -1.00008,1 l 0,8.0001 a 1.0001808,1.0001157 0 0 0 1.00008,1 l 19.001535,0 a 1.0001808,1.0001157 0 0 0 1.00008,-1 l 0,-8.0001 a 1.0001808,1.0001157 0 0 0 -1.00008,-1 l -19.001535,0 z m 1.000081,2 17.001373,0 0,6.0001 -17.001373,0 0,-6.0001 z"/><path style="color:#000000;font-style:normal;font-variant:normal;font-weight:normal;font-stretch:normal;font-size:medium;line-height:normal;font-family:sans-serif;text-indent:0;text-align:start;text-decoration:none;text-decoration-line:none;text-decoration-style:solid;text-decoration-color:#000000;letter-spacing:normal;word-spacing:normal;text-transform:none;direction:ltr;block-progression:tb;writing-mode:lr-tb;baseline-shift:baseline;text-anchor:start;white-space:normal;clip-rule:nonzero;display:inline;overflow:visible;visibility:visible;opacity:1;isolation:auto;mix-blend-mode:normal;color-interpolation:sRGB;color-interpolation-filters:linearRGB;solid-color:#000000;solid-opacity:1;fill:#000000;fill-opacity:1;fill-rule:nonzero;stroke:none;stroke-width:1.99999976;stroke-linecap:round;stroke-linejoin:round;stroke-miterlimit:4;stroke-dasharray:none;stroke-dashoffset:0;stroke-opacity:1;color-rendering:auto;image-rendering:auto;shape-rendering:auto;text-rendering:auto;enable-background:accumulate" d="m 21.728335,1012.0157 c -1.013288,0.3514 -1.502791,1.3106 -1.664198,2.3496 -1.140165,0.1944 -2.180399,0.7353 -2.482622,1.8594 -0.232768,0.8665 0.04692,1.7463 0.562545,2.3966 0.420069,0.5297 1.077973,0.8488 1.757955,1.1113 0.143483,1.5702 1.104015,2.9904 2.683811,3.1211 1.13389,0.094 2.029079,-0.6244 2.623258,-1.5683 1.082755,0.2354 2.19721,0.1425 2.937737,-0.6895 a 1.0001807,1.0001156 0 0 0 0.002,0 c 0.827168,-0.9333 0.637726,-2.2032 0.0293,-3.2833 0.770994,-1.0512 1.093008,-2.3751 0.292993,-3.4219 a 1.0001807,1.0001156 0 0 0 -0.002,0 1.0001807,1.0001156 0 0 0 -0.677789,-0.3828 c -0.820516,-0.5917 -1.806402,-0.7333 -2.83226,-0.4336 -0.870948,-0.9044 -2.037591,-1.4652 -3.228776,-1.0547 a 1.0001807,1.0001156 0 0 0 -0.002,0 z m 0.652395,1.8906 c 0.368126,-0.1268 1.030726,0.076 1.461056,0.7344 a 1.0001807,1.0001156 0 0 0 1.289166,0.3457 c 0.761587,-0.3856 1.508318,-0.1969 1.752095,0.1172 1.36e-4,2e-4 -1.34e-4,0 0,0 0.239857,0.3156 0.205227,0.8587 -0.421908,1.3886 a 1.0001807,1.0001156 0 0 0 -0.101571,1.4298 c 0.535833,0.6006 0.502447,1.1039 0.292992,1.3418 -3.61e-4,4e-4 3.61e-4,0 0,0 -0.195681,0.2177 -0.767501,0.3714 -1.464962,0.053 a 1.0001807,1.0001156 0 0 0 -1.375111,0.625 c -0.19497,0.6597 -0.648758,0.9482 -1.062586,0.9141 -0.511911,-0.042 -1.055879,-0.6589 -1.003987,-1.5332 l 0,0 c 0.0026,-0.042 0.0062,-0.085 0.01172,-0.1269 a 1.0001807,1.0001156 0 0 0 -0.796938,-1.1133 c -0.04981,-0.01 -0.09919,-0.02 -0.14845,-0.033 -0.498708,-0.1318 -0.888155,-0.4051 -1.099698,-0.6719 -0.211544,-0.2669 -0.243929,-0.4685 -0.199235,-0.6349 0.07155,-0.2661 0.505521,-0.6255 1.318465,-0.5761 a 1.0001807,1.0001156 0 0 0 1.050866,-1.1309 c -0.08813,-0.6564 0.159645,-1.0128 0.498087,-1.1309 z"/><path style="opacity:1;fill:#000000;fill-opacity:1;stroke:none;stroke-width:2;stroke-linecap:round;stroke-linejoin:round;stroke-miterlimit:4;stroke-dasharray:none;stroke-dashoffset:0;stroke-opacity:1" d="m 24.500042,1017.3624 a 1.0000807,1.0000157 0 0 1 -1.00008,1 1.0000807,1.0000157 0 0 1 -1.000081,-1 1.0000807,1.0000157 0 0 1 1.000081,-1.0001 1.0000807,1.0000157 0 0 1 1.00008,1.0001 z"/><path style="color:#000000;font-style:normal;font-variant:normal;font-weight:normal;font-stretch:normal;font-size:medium;line-height:normal;font-family:sans-serif;text-indent:0;text-align:start;text-decoration:none;text-decoration-line:none;text-decoration-style:solid;text-decoration-color:#000000;letter-spacing:normal;word-spacing:normal;text-transform:none;direction:ltr;block-progression:tb;writing-mode:lr-tb;baseline-shift:baseline;text-anchor:start;white-space:normal;clip-rule:nonzero;display:inline;overflow:visible;visibility:visible;opacity:1;isolation:auto;mix-blend-mode:normal;color-interpolation:sRGB;color-interpolation-filters:linearRGB;solid-color:#000000;solid-opacity:1;fill:#000000;fill-opacity:1;fill-rule:evenodd;stroke:none;stroke-width:2;stroke-linecap:round;stroke-linejoin:round;stroke-miterlimit:4;stroke-dasharray:none;stroke-dashoffset:0;stroke-opacity:1;color-rendering:auto;image-rendering:auto;shape-rendering:auto;text-rendering:auto;enable-background:accumulate" d="m 25.005942,1020.3615 a 1.0001808,1.0001157 0 0 0 -0.927809,1.3848 c 0,0 0.24684,0.6188 0.488321,1.4023 0.24148,0.7836 0.447197,1.7678 0.431676,2.174 -0.0094,0.2466 -0.214669,0.9832 -0.441442,1.5586 -0.226773,0.5753 -0.447302,1.0273 -0.447302,1.0273 a 1.0001808,1.0001157 0 1 0 1.795067,0.8809 c 0,0 0.254871,-0.5171 0.513713,-1.1739 0.258841,-0.6567 0.547504,-1.4141 0.578172,-2.2168 0.03676,-0.9621 -0.252345,-1.9709 -0.519574,-2.838 -0.267228,-0.867 -0.541059,-1.5546 -0.541059,-1.5546 a 1.0001808,1.0001157 0 0 0 -0.929763,-0.6446 z"/><path style="color:#000000;font-style:normal;font-variant:normal;font-weight:normal;font-stretch:normal;font-size:medium;line-height:normal;font-family:sans-serif;text-indent:0;text-align:start;text-decoration:none;text-decoration-line:none;text-decoration-style:solid;text-decoration-color:#000000;letter-spacing:normal;word-spacing:normal;text-transform:none;direction:ltr;block-progression:tb;writing-mode:lr-tb;baseline-shift:baseline;text-anchor:start;white-space:normal;clip-rule:nonzero;display:inline;overflow:visible;visibility:visible;opacity:1;isolation:auto;mix-blend-mode:normal;color-interpolation:sRGB;color-interpolation-filters:linearRGB;solid-color:#000000;solid-opacity:1;fill:#000000;fill-opacity:1;fill-rule:evenodd;stroke:none;stroke-width:2;stroke-linecap:round;stroke-linejoin:round;stroke-miterlimit:4;stroke-dasharray:none;stroke-dashoffset:0;stroke-opacity:1;color-rendering:auto;image-rendering:auto;shape-rendering:auto;text-rendering:auto;enable-background:accumulate" d="m 29.033611,1023.3635 a 1.0001808,1.0001157 0 0 0 -0.36331,0.055 l -2.972896,0.9903 a 1.0006273,1.0005622 0 0 0 0.632863,1.8984 l 2.972896,-0.9902 a 1.0001808,1.0001157 0 0 0 -0.269553,-1.9532 z"/><path style="color:#000000;font-style:normal;font-variant:normal;font-weight:normal;font-stretch:normal;font-size:medium;line-height:normal;font-family:sans-serif;text-indent:0;text-align:start;text-decoration:none;text-decoration-line:none;text-decoration-style:solid;text-decoration-color:#000000;letter-spacing:normal;word-spacing:normal;text-transform:none;direction:ltr;block-progression:tb;writing-mode:lr-tb;baseline-shift:baseline;text-anchor:start;white-space:normal;clip-rule:nonzero;display:inline;overflow:visible;visibility:visible;opacity:1;isolation:auto;mix-blend-mode:normal;color-interpolation:sRGB;color-interpolation-filters:linearRGB;solid-color:#000000;solid-opacity:1;fill:#000000;fill-opacity:1;fill-rule:evenodd;stroke:none;stroke-width:2;stroke-linecap:round;stroke-linejoin:round;stroke-miterlimit:4;stroke-dasharray:none;stroke-dashoffset:0;stroke-opacity:1;color-rendering:auto;image-rendering:auto;shape-rendering:auto;text-rendering:auto;enable-background:accumulate" d="m 22.034999,1024.3636 a 1.0001808,1.0001157 0 0 0 -0.337917,1.9531 l 2.972896,0.9902 a 1.0006273,1.0005622 0 1 0 0.632863,-1.8984 l -2.972896,-0.9902 a 1.0001808,1.0001157 0 0 0 -0.294946,-0.055 z"/></g></svg>
