<svg xmlns="http://www.w3.org/2000/svg" xmlns:xlink="http://www.w3.org/1999/xlink" version="1.1" x="0px" y="0px" viewBox="0 0 60 87.5" enable-background="new 0 0 60 70" xml:space="preserve"><g><path d="M34.484,30.751c-0.902,0-1.668,0.342-2.296,1.027s-0.942,1.505-0.942,2.459c0,0.955,0.316,1.774,0.949,2.459   c0.634,0.685,1.396,1.027,2.289,1.027c0.894,0,1.653-0.347,2.282-1.042c0.628-0.694,0.942-1.509,0.942-2.445   c0-0.935-0.312-1.75-0.936-2.445C36.15,31.098,35.387,30.751,34.484,30.751z"/><path d="M7.63,45.547h47.244c1.022,0,1.852-0.829,1.852-1.852V25.535c0-1.023-0.829-1.851-1.852-1.851H45.44L45.367,5.021   c-0.002-0.781-0.636-1.413-1.417-1.413H4.691c-0.783,0-1.417,0.635-1.417,1.417v53.288c0,4.436,3.608,8.044,8.044,8.045   l37.362,0.032c4.437,0,8.045-3.609,8.045-8.078c0-0.783-0.634-1.417-1.417-1.417H17.946c-0.783,0-1.417,0.635-1.417,1.417   c0,2.873-2.337,5.21-5.21,5.21s-5.211-2.337-5.211-5.21V44.748C6.442,45.23,6.999,45.547,7.63,45.547z M18.335,35.825   c0,0.974-0.346,1.803-1.035,2.488s-1.521,1.027-2.494,1.027c-0.775,0-1.47-0.227-2.084-0.68s-1.034-1.04-1.261-1.758   c-0.066-0.208-0.05-0.408,0.049-0.602c0.1-0.194,0.251-0.321,0.454-0.383s0.401-0.045,0.595,0.05   c0.194,0.094,0.324,0.246,0.391,0.453c0.132,0.397,0.368,0.721,0.708,0.971c0.341,0.25,0.751,0.375,1.233,0.375   c0.481,0,0.914-0.191,1.297-0.574c0.383-0.382,0.574-0.838,0.574-1.368v-5.626c0-0.217,0.078-0.402,0.233-0.553   c0.156-0.151,0.343-0.227,0.56-0.227c0.218,0,0.402,0.076,0.553,0.227c0.151,0.151,0.228,0.335,0.228,0.553V35.825z M26.726,38.482   c-0.775,0.562-1.668,0.843-2.679,0.843c-1.238-0.009-2.447-0.482-3.629-1.417c-0.151-0.123-0.238-0.288-0.262-0.496   c-0.024-0.208,0.025-0.387,0.148-0.539c0.123-0.151,0.288-0.238,0.496-0.262c0.208-0.023,0.388,0.031,0.539,0.163   c0.906,0.737,1.809,1.101,2.707,1.091c0.708,0,1.282-0.163,1.722-0.489c0.439-0.326,0.659-0.678,0.659-1.056   c0-0.718-0.832-1.233-2.494-1.545h-0.029c-0.736-0.142-1.374-0.34-1.913-0.595c-0.538-0.255-0.933-0.583-1.184-0.985   c-0.25-0.401-0.375-0.815-0.375-1.24c0-0.822,0.361-1.498,1.084-2.027c0.723-0.529,1.557-0.793,2.502-0.793   c0.415,0,0.841,0.071,1.275,0.212s0.758,0.274,0.971,0.397c0.213,0.123,0.493,0.297,0.844,0.524   c0.16,0.113,0.262,0.269,0.305,0.468c0.042,0.198,0.009,0.38-0.1,0.545c-0.108,0.166-0.263,0.27-0.461,0.312   s-0.383,0.007-0.553-0.106c-0.444-0.302-0.839-0.529-1.184-0.68c-0.345-0.151-0.711-0.227-1.098-0.227   c-0.624,0-1.134,0.147-1.531,0.439c-0.396,0.293-0.595,0.605-0.595,0.936c0,0.161,0.037,0.298,0.113,0.411   c0.264,0.435,0.978,0.761,2.14,0.978h0.028c0.794,0.161,1.446,0.359,1.956,0.595c1.172,0.576,1.758,1.37,1.758,2.381   C27.888,37.2,27.5,37.92,26.726,38.482z M37.894,37.823c-0.426,0.473-0.936,0.843-1.531,1.113   c-0.595,0.269-1.214,0.404-1.856,0.404c-1.37,0-2.525-0.5-3.465-1.502c-0.94-1.001-1.411-2.202-1.411-3.6   c0-1.398,0.471-2.598,1.411-3.6c0.939-1.001,2.085-1.502,3.437-1.502s2.497,0.508,3.438,1.523c0.939,1.016,1.41,2.213,1.41,3.593   C39.325,35.631,38.848,36.822,37.894,37.823z M43.52,29.83l4.578,6.335v-5.839c0-0.208,0.075-0.387,0.227-0.539   c0.151-0.151,0.331-0.227,0.539-0.227c0.207,0,0.39,0.076,0.546,0.227c0.155,0.151,0.233,0.331,0.233,0.539v8.235   c0,0.217-0.078,0.401-0.233,0.553c-0.156,0.151-0.343,0.227-0.561,0.227c-0.217,0-0.406-0.094-0.566-0.284   c-0.038-0.038-0.062-0.066-0.071-0.085l-4.535-6.293v5.882c0,0.208-0.076,0.39-0.227,0.545c-0.151,0.156-0.333,0.234-0.546,0.234   s-0.395-0.076-0.546-0.227c-0.151-0.151-0.227-0.335-0.227-0.553v-8.249c-0.02-0.274,0.073-0.482,0.276-0.624   c0.203-0.142,0.408-0.196,0.616-0.163S43.396,29.66,43.52,29.83z M6.108,6.443h36.43l0.068,17.241H7.63   c-0.631,0-1.188,0.317-1.521,0.799V6.443z M19.238,59.731h34.466c-0.607,2.203-2.63,3.825-5.022,3.825L17.44,63.529   C18.348,62.465,18.983,61.163,19.238,59.731z"/></g></svg>
