<svg xmlns="http://www.w3.org/2000/svg" data-name="Layer 1" viewBox="0 0 128 160" x="0px" y="0px"><title>Artboard 38</title><circle cx="64" cy="46" r="3"/><path d="M103,110c-3-1.19-5.11-.77-10,.17V74h4a5,5,0,0,0-5-5H71.61L74,37.15A2,2,0,0,0,72,35V0H68V35H60V0H56V35a2,2,0,0,0-2,2.15L56.39,69H36a5,5,0,0,0-5,5h4V95.14A10.44,10.44,0,0,0,31,96a12.85,12.85,0,0,0-6,6c-7.35,2-12.18,7.62-12,13a9.3,9.3,0,0,0,2,5.34V124a2,2,0,0,0,4,0v0a23.08,23.08,0,0,0,7,3c7,1.67,10.17-2,17-3a2,2,0,0,0,4,0,4,4,0,0,0,7.76,1.32A25.26,25.26,0,0,0,63,127c6.32.28,10.59-1.16,14-2a47.77,47.77,0,0,1,9-1.31V124a2,2,0,0,0,4,0v-.35q1.54,0,3,.17V124a4,4,0,0,0,7.88.94c6.42,1.22,10.68,2.52,12.12.06C115.06,121.49,109.93,112.75,103,110ZM69.84,39,67.46,70.85s0,0,0,0h0c-.58,8.33-2.11,16.51-3.46,18.75-1.34-2.24-2.88-10.43-3.46-18.75h0s0,0,0,0L58.16,39ZM56.7,73c1.12,13.92,3.57,21,7.3,21s6.18-7.08,7.3-21H89v37.92c-2,.35-4.25.72-7,1.08-9.38,1.25-14.07,1.88-17,1-8.76-2.62-8.2-9.4-20-15a34.54,34.54,0,0,0-6-2.35V73Z"/></svg>
