<svg xmlns="http://www.w3.org/2000/svg" viewBox="0 0 64 78.75" x="0px" y="0px"><path fill="#000000" fill-rule="evenodd" d="M669,551 C665.686292,551 663,548.313708 663,545 C663,541.686292 665.686292,539 669,539 C672.313708,539 675,541.686292 675,545 C675,548.313708 672.313708,551 669,551 Z M669,549 C671.209139,549 673,547.209139 673,545 C673,542.790861 671.209139,541 669,541 C666.790861,541 665,542.790861 665,545 C665,547.209139 666.790861,549 669,549 Z M713,563.585786 L721.707107,572.292893 C722.097631,572.683418 722.097631,573.316582 721.707107,573.707107 C721.316582,574.097631 720.683418,574.097631 720.292893,573.707107 L713,566.414214 L713,580 C713,580.552285 712.552285,581 712,581 C711.447715,581 711,580.552285 711,580 L711,566.414214 L703.707107,573.707107 C703.316582,574.097631 702.683418,574.097631 702.292893,573.707107 C701.902369,573.316582 701.902369,572.683418 702.292893,572.292893 L711,563.585786 L711,554.414214 L704.707107,560.707107 C704.316582,561.097631 703.683418,561.097631 703.292893,560.707107 C702.902369,560.316582 702.902369,559.683418 703.292893,559.292893 L711,551.585786 L711,542.414214 L706.707107,546.707107 C706.316582,547.097631 705.683418,547.097631 705.292893,546.707107 C704.902369,546.316582 704.902369,545.683418 705.292893,545.292893 L711.292893,539.292893 C711.683418,538.902369 712.316582,538.902369 712.707107,539.292893 L718.707107,545.292893 C719.097631,545.683418 719.097631,546.316582 718.707107,546.707107 C718.316582,547.097631 717.683418,547.097631 717.292893,546.707107 L713,542.414214 L713,551.585786 L720.707107,559.292893 C721.097631,559.683418 721.097631,560.316582 720.707107,560.707107 C720.316582,561.097631 719.683418,561.097631 719.292893,560.707107 L713,554.414214 L713,563.585786 Z M666,561.414214 L659.707107,567.707107 C659.316582,568.097631 658.683418,568.097631 658.292893,567.707107 C657.902369,567.316582 657.902369,566.683418 658.292893,566.292893 L665.292893,559.292893 C665.683418,558.902369 666.316582,558.902369 666.707107,559.292893 L672,564.585786 L677.292893,559.292893 C677.683418,558.902369 678.316582,558.902369 678.707107,559.292893 L695.707107,576.292893 C696.097631,576.683418 696.097631,577.316582 695.707107,577.707107 C695.316582,578.097631 694.683418,578.097631 694.292893,577.707107 L678,561.414214 L665.707107,573.707107 C665.316582,574.097631 664.683418,574.097631 664.292893,573.707107 C663.902369,573.316582 663.902369,572.683418 664.292893,572.292893 L670.585786,566 L666,561.414214 Z M659.573462,587.819232 C659.121013,588.135946 658.497483,588.025912 658.180768,587.573462 C657.864054,587.121013 657.974088,586.497483 658.426538,586.180768 C659.056165,585.740029 660.25928,585.113614 662.044857,584.498907 C669.032046,582.093481 678.442721,582.093481 690.316228,586.051317 C701.776055,589.871259 710.73575,589.871259 717.304117,587.610018 C718.245049,587.28609 719.043316,586.94116 719.700223,586.599134 C720.080996,586.400881 720.322736,586.253429 720.426538,586.180768 C720.878987,585.864054 721.502517,585.974088 721.819232,586.426538 C722.135946,586.878987 722.025912,587.502517 721.573462,587.819232 C720.943835,588.259971 719.74072,588.886386 717.955143,589.501093 C710.967954,591.906519 701.557279,591.906519 689.683772,587.948683 C678.223945,584.128741 669.26425,584.128741 662.695883,586.389982 C661.754951,586.71391 660.956684,587.05884 660.299777,587.400866 C659.919004,587.599119 659.677264,587.746571 659.573462,587.819232 Z M659.573462,597.819232 C659.121013,598.135946 658.497483,598.025912 658.180768,597.573462 C657.864054,597.121013 657.974088,596.497483 658.426538,596.180768 C659.056165,595.740029 660.25928,595.113614 662.044857,594.498907 C669.032046,592.093481 678.442721,592.093481 690.316228,596.051317 C701.776055,599.871259 710.73575,599.871259 717.304117,597.610018 C718.245049,597.28609 719.043316,596.94116 719.700223,596.599134 C720.080996,596.400881 720.322736,596.253429 720.426538,596.180768 C720.878987,595.864054 721.502517,595.974088 721.819232,596.426538 C722.135946,596.878987 722.025912,597.502517 721.573462,597.819232 C720.943835,598.259971 719.74072,598.886386 717.955143,599.501093 C710.967954,601.906519 701.557279,601.906519 689.683772,597.948683 C678.223945,594.128741 669.26425,594.128741 662.695883,596.389982 C661.754951,596.71391 660.956684,597.05884 660.299777,597.400866 C659.919004,597.599119 659.677264,597.746571 659.573462,597.819232 Z" transform="translate(-658 -539)"/></svg>
