<svg xmlns:dc="http://purl.org/dc/elements/1.1/" xmlns:cc="http://creativecommons.org/ns#" xmlns:rdf="http://www.w3.org/1999/02/22-rdf-syntax-ns#" xmlns:svg="http://www.w3.org/2000/svg" xmlns="http://www.w3.org/2000/svg" xmlns:sodipodi="http://sodipodi.sourceforge.net/DTD/sodipodi-0.dtd" xmlns:inkscape="http://www.inkscape.org/namespaces/inkscape" viewBox="0 0 100 125" version="1.1" x="0px" y="0px"><g><path style="opacity:1;fill:#000000;fill-opacity:1;stroke:none;stroke-width:2;stroke-linejoin:miter;stroke-miterlimit:4;stroke-dasharray:none;stroke-opacity:1" d="M 35.734375 25.123047 C 33.995645 28.8003 32.708039 32.508752 31.701172 36.238281 C 31.009992 34.530189 30.254374 32.843929 29.419922 31.183594 C 30.155094 33.240922 30.77674 35.43321 31.310547 37.728516 C 28.876447 47.476559 28.268912 57.355113 26.769531 67.169922 C 24.505746 54.248387 26.625778 41.327785 13.763672 28.40625 C 22.522875 39.955843 22.352328 51.146744 22.980469 62.371094 C 18.757034 57.799593 14.204984 53.599584 7.3242188 52.017578 C 17.399591 57.693883 20.84357 64.286682 22.222656 70.580078 C 20.485157 66.921448 19.475131 64.798082 15.404297 64.644531 C 18.420888 66.858383 19.18756 72.77771 19.314453 76.261719 L 8.5859375 76.261719 L 8.5859375 78.787109 L 91.417969 78.787109 L 91.417969 76.261719 L 83.220703 76.261719 C 83.171748 71.765989 83.751254 64.368021 85.736328 60.478516 C 83.269104 64.170312 82.078487 71.618901 81.476562 76.261719 L 78.433594 76.261719 C 79.764485 63.314345 82.902059 43.43939 91.671875 29.037109 C 83.771927 38.292565 80.140648 50.482657 75.888672 62.246094 C 76.240543 57.489959 76.319627 52.732698 75.255859 47.976562 C 75.355179 52.733362 74.957607 57.19337 73.867188 61.236328 C 73.590521 54.754516 72.527195 48.270874 70.583984 41.789062 C 72.275145 51.312803 71.400357 60.517242 71.341797 69.822266 C 69.566985 63.834456 68.280591 57.779289 64.816406 52.021484 C 65.096524 50.168188 65.389055 48.316187 65.660156 46.462891 C 65.258826 48.144589 64.87602 49.826114 64.494141 51.507812 C 64.110583 50.895735 63.704322 50.286524 63.267578 49.681641 C 65.255716 41.784158 68.172592 33.83997 72.351562 27.015625 C 65.29258 33.431772 62.247006 43.001116 58.335938 51.890625 C 58.142339 47.32945 56.8921 43.08639 55.265625 38.955078 C 55.362515 38.55336 55.452552 38.151678 55.558594 37.75 C 55.427388 38.074403 55.312104 38.416526 55.185547 38.746094 C 54.513293 37.053429 53.785867 35.377526 53.033203 33.708984 C 53.648915 36.065857 54.151613 38.24793 54.591797 40.333984 C 52.047223 47.534405 50.513646 55.858315 49.623047 64.896484 C 48.447868 60.539141 46.509246 56.457699 43.064453 52.912109 C 47.317879 59.293304 47.525603 69.43954 48.173828 76.261719 L 43.453125 76.261719 C 42.65651 70.844233 43.388789 62.3128 43.689453 57.447266 C 42.745445 62.370415 41.527406 70.98542 41.859375 76.261719 L 39.855469 76.261719 C 41.154066 69.482858 41.687587 59.23178 43.064453 52.912109 L 43.064453 52.910156 C 44.346283 47.027507 46.375559 41.295034 50.507812 35.982422 C 43.819378 41.998696 40.041969 51.411156 37.375 62.119141 C 36.797059 54.05297 35.360661 46.273363 32.714844 38.896484 C 33.357033 34.38906 34.29372 29.814733 35.734375 25.123047 z M 54.773438 41.179688 C 57.956276 56.798964 56.391354 68.888075 54.148438 76.261719 L 53.279297 76.261719 C 53.287305 65.674161 52.698191 51.468688 54.773438 41.179688 z M 32.263672 42.474609 C 33.814139 51.442385 34.290183 65.58723 34.640625 76.261719 L 30.595703 76.261719 C 31.294027 66.068731 31.161591 52.450989 32.263672 42.474609 z M 63.253906 49.734375 C 63.660921 50.531954 64.02371 51.335889 64.347656 52.144531 C 62.858331 58.780268 61.671909 69.198077 61.615234 76.261719 L 59.548828 76.261719 C 59.80332 68.897382 60.834679 59.364013 63.253906 49.734375 z M 64.669922 52.992188 C 66.931932 59.171946 67.057341 69.404895 67.535156 76.261719 L 64.199219 76.261719 C 63.069403 69.465248 63.733428 59.33288 64.669922 52.992188 z "/></g><text x="0" y="115" fill="#000000" font-size="5px" font-weight="bold" font-family="'Helvetica Neue', Helvetica, Arial-Unicode, Arial, Sans-serif">Created by Hamish</text><text x="0" y="120" fill="#000000" font-size="5px" font-weight="bold" font-family="'Helvetica Neue', Helvetica, Arial-Unicode, Arial, Sans-serif">from the Noun Project</text></svg>