<svg xmlns:dc="http://purl.org/dc/elements/1.1/" xmlns:cc="http://creativecommons.org/ns#" xmlns:rdf="http://www.w3.org/1999/02/22-rdf-syntax-ns#" xmlns:svg="http://www.w3.org/2000/svg" xmlns="http://www.w3.org/2000/svg" version="1.1" x="0px" y="0px" viewBox="0 0 100 125"><path d="m 77.546875,5 c -9.63196,0 -17.4375,7.80551 -17.4375,17.4375 0,9.632 7.80554,17.4375 17.4375,17.4375 9.63196,0 17.4375,-7.8055 17.4375,-17.4375 C 94.984375,12.80551 87.178835,5 77.546875,5 z m -0.53125,6.375 2.1875,0 0,2.8125 c 1.18431,0.19239 2.13716,0.47793 2.84375,0.84375 0.70656,0.36588 1.04488,0.58352 1.0625,0.625 l -1.46875,2.90625 c -0.0327,-0.0452 -0.35882,-0.24567 -1,-0.5625 -0.64121,-0.31684 -1.39257,-0.48598 -2.25,-0.53125 -0.63408,0.004 -1.11774,0.12439 -1.4375,0.375 -0.31976,0.25061 -0.46834,0.58453 -0.46875,1.03125 0.0247,0.4623 0.33803,0.8959 0.96875,1.25 0.63072,0.3542 1.43499,0.69084 2.375,1.0625 0.93999,0.38517 1.76977,0.94784 2.53125,1.6875 0.76147,0.73971 1.1739,1.65965 1.21875,2.71875 -0.0306,1.55511 -0.4586,2.73788 -1.28125,3.53125 -0.82267,0.79331 -1.84615,1.2714 -3.09375,1.46875 l 0,2.90625 -2.1875,0 0,-2.75 c -1.1573,-0.0831 -2.14822,-0.32062 -2.96875,-0.65625 -0.82054,-0.33569 -1.43891,-0.65325 -1.875,-0.96875 -0.4361,-0.3155 -0.65228,-0.47726 -0.65625,-0.5 l 1.84375,-3.0625 c 0.0155,0.0223 0.19304,0.17816 0.59375,0.46875 0.4007,0.29053 0.90036,0.58441 1.5,0.875 0.59962,0.29059 1.23144,0.44639 1.84375,0.46875 0.43876,0.0276 0.91574,-0.0403 1.4375,-0.21875 0.52175,-0.17855 0.79722,-0.62711 0.84375,-1.34375 -0.0319,-0.57957 -0.39808,-1.06662 -1.09375,-1.4375 -0.69568,-0.37089 -1.5227,-0.76991 -2.5,-1.21875 -0.97227,-0.48988 -1.72029,-1.10376 -2.25,-1.8125 -0.52973,-0.70863 -0.80579,-1.47053 -0.8125,-2.3125 0.0352,-1.25978 0.46044,-2.29271 1.25,-3.125 0.78955,-0.8323 1.72228,-1.40219 2.84375,-1.65625 l 0,-2.875 z m -37.125,13.96875 -17.4375,11.15625 -17.40625,11.125 5.03125,0 0,3.34375 59.59375,0 0,-3.34375 5.0625,0 L 57.296875,36.5 39.890625,25.34375 z m -12.53125,28.34375 -10.5625,0.0937 -2.21875,32.375 12.78125,0 0,-32.46875 z m 17.8125,0 -10.5625,0.0937 -1.125,32.375 12.78125,0 -1.09375,-32.46875 z m 17.78125,0 -10.5625,0.0937 0,32.375 12.78125,0 -2.21875,-32.46875 z m -53.71875,35.1875 0,3 -4.21875,0 0,3.125 4.21875,0 61.28125,0 4.21875,0 0,-3.125 -4.21875,0 0,-3 -61.28125,0 z" style="color:#000000;enable-background:accumulate;" fill="#000000" fill-opacity="1" fill-rule="nonzero" stroke="none" marker="none" visibility="visible" display="inline" overflow="visible"/></svg>
