<svg xmlns="http://www.w3.org/2000/svg" xmlns:xlink="http://www.w3.org/1999/xlink" version="1.1" x="0px" y="0px" viewBox="0 0 57.9998283 69.443359375" style="enable-background:new 0 0 57.9998283 55.5546875;" xml:space="preserve"><style type="text/css">
	.st0{fill:none;stroke:#90D400;stroke-width:1.2;stroke-miterlimit:10;}
	.st1{fill:#747173;}
	.st2{fill:url(#SVGID_1_);}
	.st3{fill:#747173;stroke:#FFFFFF;stroke-width:0.4;stroke-miterlimit:10;}
	.st4{fill:#747173;stroke:#FFFFFF;stroke-width:0.6;stroke-miterlimit:10;}
	.st5{fill:#424242;}
	.st6{fill:#747173;stroke:#747173;stroke-width:0.5;stroke-miterlimit:10;}
	.st7{fill:#747173;stroke:#FFFFFF;stroke-width:0.25;stroke-miterlimit:10;}
	.st8{fill:none;stroke:#505050;stroke-width:2;stroke-linejoin:round;stroke-miterlimit:10;}
	.st9{fill:#FFFFFF;}
	.st10{fill:#58595B;}
	.st11{fill:#90D400;}
	.st12{fill:none;}
	.st13{fill:none;stroke:#747173;stroke-width:3;stroke-linecap:round;stroke-miterlimit:10;}
	.st14{fill:none;stroke:#747173;stroke-width:2;stroke-linejoin:round;stroke-miterlimit:10;}
	.st15{fill:#5B5B5B;}
	.st16{fill:none;stroke:#5B5B5B;stroke-width:3.1600001;stroke-miterlimit:10;}
	.st17{fill:none;stroke:#5B5B5B;stroke-width:3.1600001;stroke-linecap:round;stroke-miterlimit:10;}
	.st18{fill:#747173;stroke:#747173;stroke-width:0.32;stroke-miterlimit:10;}
	.st19{fill:#747173;stroke:#747173;stroke-width:0.9;stroke-miterlimit:10;}
	.st20{fill:#FFFFFF;stroke:#B9DD22;stroke-miterlimit:10;}
	.st21{fill:#FFFFFF;stroke:#B9DD22;stroke-width:1.5;stroke-miterlimit:10;}
	.st22{fill:#B9DD22;}
	.st23{fill:#FFFFFF;stroke:#747173;stroke-width:1.5;stroke-miterlimit:10;}
	.st24{fill:none;stroke:#FFFFFF;stroke-width:1.2;stroke-miterlimit:10;}
</style><g><path d="M31.5059261,11.8233643c3.2596416,0,5.9115582-2.6519165,5.9115582-5.9115601   C37.4174843,2.6520386,34.7655678,0,31.5059261,0c-3.2597656,0-5.9118042,2.6520386-5.9118042,5.9118042   C25.5941219,9.1714478,28.2461605,11.8233643,31.5059261,11.8233643z M31.5059261,1.5   c2.4363384,0,4.4115582,1.9752197,4.4115582,4.4118042c0,2.4363403-1.9752197,4.4115601-4.4115582,4.4115601   c-2.4366455,0-4.4118042-1.9752197-4.4118042-4.4115601C27.0941219,3.4752197,29.0692806,1.5,31.5059261,1.5z"/><path d="M57.7914467,34.9920654l-4.4058228-10.7008057c-0.4276123-1.0325317-1.4276123-1.697876-2.5487671-1.697876   l-0.9899902-0.0079956l-0.0060425-0.000061h-0.0060425h-5.8481445l-0.4197998-1.0215454   c0.7952271,0.5740967,1.7635498,0.921875,2.8170776,0.921875c2.666748,0,4.8363647-2.1697388,4.8363647-4.8366699   c0-2.6668091-2.1696167-4.8364258-4.8363647-4.8364258c-2.3922729,0-4.3706055,1.749939-4.7555542,4.0344238l-1.105835-2.6907349   c-0.5195312-1.2680664-1.7467651-2.0883789-3.1259766-2.0883789l-11.775877-0.0020142h-0.0002441   c-1.3782349,0-2.6063232,0.8203125-3.1286621,2.0898438l-0.0601196,0.1463013   c-0.27771-0.0715332-0.5666504-0.1112061-0.8621826-0.1112061l-0.0836792-0.0010986   c0.0679932-0.3580322,0.1071167-0.7262573,0.1071167-1.1037598c0-3.2597656-2.6519165-5.9118042-5.911561-5.9118042   c-3.2597656,0-5.9118042,2.6520386-5.9118042,5.9118042c0,0.3741455,0.0388184,0.7388916,0.1055908,1.0939331H9.8311205   l-0.0579224-0.0006714c-0.4958496,0-0.960022,0.0974731-1.3797607,0.2897949   c-5.8657227,2.6549072-8.8303223,7.8994141-8.3413086,14.7645264c0.0603027,0.8535767,0.4436646,1.6135254,1.0194702,2.1740723   c-0.0474243,0.1895752-0.0800781,0.3847046-0.0800781,0.5888062v20.6918335c0,1.3450928,1.0942993,2.4393921,2.4393311,2.4393921   c1.345093,0,2.4393923-1.0942993,2.4393923-2.4393921V31.9963989c0-0.2109985-0.0353394-0.4122314-0.0859375-0.607605   c0.6764526-0.6697998,1.0806885-1.6106567,1.0079956-2.6347656c-0.1862793-2.6156006,0.2894897-4.5628662,1.5158076-6.0263062   v12.4404297c-1.0646968,5.1790771-1.0503535,10.7635498,0.0431519,17.06604   c0.3343506,1.9241943,1.9929199,3.3204956,3.9437866,3.3204956c0.2261353,0,0.4555664-0.0195312,0.6819458-0.0580444   c1.0587158-0.1831665,1.9788818-0.765686,2.5950928-1.6409912c0.0355225-0.050354,0.0697021-0.1013794,0.1026611-0.1529541   c0.7122202,1.112854,1.9592905,1.8519897,3.3757944,1.8519897c2.208374,0,4.0050049-1.7966309,4.0050049-4.0050049v-14.329834   l0.0010376-1.5v-5.1565552l0.8046875-1.958374l0.2591553-0.6306763v1.0964355v5.8580322l-0.0016479,0.0053101l-0.0016479,0.2324219   v16.3832397c0,2.208374,1.7966309,4.0050049,4.0050049,4.0050049c1.4168701,0,2.6643677-0.7396851,3.3765259-1.8530884   c0.7120953,1.1134033,1.9595928,1.8530884,3.3764629,1.8530884c2.208374,0,4.0050049-1.7966309,4.0050049-4.0050049V38.4295044   c0.5235596-0.2963257,0.9500122-0.757019,1.1908569-1.3403931l0.3619995-0.8791504v3.7938843l-0.0039673,0.0130615   l-0.0042725,0.2437134v11.9153442c0,1.8630371,1.515686,3.3787231,3.3787231,3.3787231   c1.0335083,0,1.9602051-0.4664917,2.5805054-1.1999512c0.6201782,0.7263184,1.5423584,1.1876831,2.5700684,1.1876831   c1.8630371,0,3.3787231-1.515686,3.3787231-3.3787231V41.8518066l0.0020142-1.5v-4.1522827l0.3657227,0.8882446   c0.4276123,1.0357666,1.4265137,1.7041626,2.5453491,1.7041626c0.357605,0,0.7081909-0.0688477,1.0421753-0.2046509   c0.6854858-0.2816162,1.2159424-0.8098145,1.4988403-1.4893188C58.0692177,36.4195557,58.0708656,35.6716919,57.7914467,34.9920654   z M46.3839149,14.312561c1.8426514,0,3.3363647,1.4940186,3.3363647,3.3364258   c0,1.8426514-1.4937134,3.3366699-3.3363647,3.3366699c-1.8427124,0-3.3366699-1.4940186-3.3366699-3.3366699   C43.047245,15.8065796,44.5412025,14.312561,46.3839149,14.312561z M15.6813402,8.6741333   c2.4363413,0,4.411561,1.9751587,4.411561,4.4118042c0,0.4009399-0.0708008,0.7819214-0.1710205,1.151123   c-0.5088501,1.8743286-2.2051392,3.260437-4.2405405,3.260437c-2.0567017,0-3.7697754-1.4136353-4.258606-3.317627   c-0.090332-0.3517456-0.1531982-0.7140503-0.1531982-1.0939331C11.269536,10.649292,13.2446947,8.6741333,15.6813402,8.6741333z    M4.3702445,52.6882324c0,0.5187988-0.4208376,0.9393921-0.9393923,0.9393921   c-0.5184937,0-0.9393311-0.4205933-0.9393311-0.9393921V32.2258911c0.2974243,0.0863647,0.6052856,0.1465454,0.9283447,0.1465454   c0.0862427,0,0.171875-0.0029297,0.2583008-0.0100098c0.2392578-0.0169678,0.470032-0.0613403,0.6920779-0.1257935V52.6882324z    M21.5565853,35.7198486h-0.0010376v15.829834c0,1.3833008-1.1217651,2.5050049-2.5050049,2.5050049   c-1.3834839,0-2.5050049-1.1217041-2.5050049-2.5050049v-15.829834h-1.7943125   c-0.0067749,0.1367798,0.0238037,0.2687988-0.0062866,0.4070435c-0.9661865,4.4376221-0.960144,9.3411865,0.020813,14.9946899   c0.2359619,1.3624878-0.6763306,2.6603394-2.0403442,2.8963013c-0.1442261,0.0245361-0.2885742,0.0368042-0.4303589,0.0368042   c-1.1963501,0-2.2542114-0.8587036-2.4658813-2.0769043c-1.0751953-6.1970825-1.0734253-11.6449585-0.0210571-16.6554565   V19.6582642c-3.3724971,1.8244019-4.8283687,4.7608032-4.5120234,9.2019043   c0.0325928,0.4589233-0.109375,0.8860474-0.3601074,1.2313843c-0.3146362,0.4333496-0.8044434,0.7350464-1.3803103,0.7758789   c-0.0454102,0.0037231-0.0904541,0.0050049-0.1358032,0.0050049c-0.6134644,0-1.1668091-0.2991943-1.5111084-0.7667847   c-0.2034912-0.2763062-0.3344727-0.611145-0.3604126-0.9786987C1.100774,22.8436279,3.6841481,18.2469482,9.0182543,15.8326416   c0.2454224-0.1124268,0.5009155-0.1534424,0.7549438-0.1534424c0.0192871,0,0.0386353,0.0001831,0.0579224,0.0006714h0.5461426   c0.9632568,1.9611206,2.975647,3.317627,5.3040771,3.317627c2.3270273,0,4.3385019-1.3549805,5.3023081-3.31427l0.572937,0.0076294   c0.0042725,0,0.008606-0.000061,0.0128784-0.000061c0.0939331,0,0.1850586,0.0211792,0.2775269,0.0341797L16.1212826,29.65979   c-0.706605,1.7227783,0.1188965,3.7004395,1.8398438,4.4093628c0.4134521,0.1688843,0.8442383,0.2536011,1.2845459,0.2536011   c0.8806152,0,1.6976929-0.3394165,2.3109131-0.9151611V35.7198486z M37.3801308,51.5496826   c0,1.3835449-1.1217651,2.5050049-2.5050049,2.5050049c-1.3834839,0-2.5050049-1.12146-2.5050049-2.5050049V35.2866821h-1.742979   v16.2630005c0,1.3835449-1.1217041,2.5050049-2.5050049,2.5050049c-1.3834839,0-2.5050049-1.12146-2.5050049-2.5050049V35.1664429   c0-0.0059814,0.0032959-0.0107422,0.0032959-0.0167847v-3.7113647v-2.756897v-7.7269897v-0.5774536l-0.1364746,0.3322144   l-1.826416,4.4448853l-2.1009521,5.1131592L20.98493,31.6584473c-0.2984009,0.7252197-0.9992676,1.1643066-1.7392578,1.1643066   c-0.2372437,0-0.4794312-0.0450439-0.7131958-0.1405029c-0.9588623-0.3950195-1.4175415-1.4922485-1.0237427-2.4523926   l5.6292114-13.7000732l0.6307983-1.5352783l0.1101685-0.2680664c0.2984009-0.7252197,1.0012817-1.1605835,1.7415161-1.1605835   l11.7709942,0.0020142c0.001709,0,0.003418,0,0.005127,0c0.741333,0,1.4414062,0.4332886,1.7385864,1.1585693l3.2312622,7.8625488   l-0.4431763,0.0028687c-1.1138916,0.0022583-2.1121826,0.6691895-2.536499,1.6992188l-0.1921997,0.4667358l-1.8031006-4.3876343   v8.7668457l-2.4105225,5.8543701c-0.2797241,0.6804199-0.2780762,1.4282837,0.0043945,2.1066895   c0.2828979,0.6795044,0.8135376,1.2077026,1.4940796,1.4871826c0.2921753,0.1188354,0.5942383,0.1760864,0.9007568,0.1924438   V51.5496826z M55.7230263,37.1977539c-0.1565552,0.0636597-0.3181152,0.0941772-0.4771729,0.0941772   c-0.4917603,0-0.9589233-0.2922974-1.1583252-0.7752686l-3.2527466-7.9000244v11.7351685h-0.0020142v11.8118896   c0,1.0370483-0.8414307,1.8787231-1.8787231,1.8787231c-1.0371094,0-1.8787842-0.8416748-1.8787842-1.8787231V40.3518066   h-1.3930054v11.8241577c0,1.0370483-0.8416748,1.8787231-1.8787842,1.8787231   c-1.0372925,0-1.8787231-0.8416748-1.8787231-1.8787231V40.2606201c0-0.0145264,0.0077515-0.0265503,0.0082397-0.0408325   v-6.4405518v-2.3578491v-2.7940063l-0.574646,1.3956299l-0.8116455,1.9711914L38.8858681,36.02771l-0.201355,0.4889526   c-0.1994019,0.4829712-0.6665649,0.7752686-1.1583252,0.7752686c-0.0487061,0-0.0971069-0.0230713-0.1460571-0.0288696   c-0.1108398-0.0131226-0.22229-0.0211182-0.3308716-0.0653076c-0.6397705-0.2627563-0.9443359-0.9954834-0.6813354-1.6352539   l1.0234985-2.4857178l1.5-3.6430054l0.3018188-0.7329712l0.8116455-1.9711914l0.7687988-1.8672485   c0.1989136-0.4829102,0.6660767-0.7695312,1.1593018-0.7705078l1-0.0065308h0.0484009l0,0l7.8533936,0.0080566l0,0   c0.0006714,0,0.0014038,0,0.0014038,0c0.4946289,0,0.9620972,0.2852173,1.1624146,0.7689819L56.4041176,35.5625   C56.6671791,36.2022705,56.3625526,36.9349976,55.7230263,37.1977539z"/></g><text x="0" y="70.5546875" fill="#000000" font-size="5px" font-weight="bold" font-family="'Helvetica Neue', Helvetica, Arial-Unicode, Arial, Sans-serif">Created by Fabio Rinaldi</text><text x="0" y="75.5546875" fill="#000000" font-size="5px" font-weight="bold" font-family="'Helvetica Neue', Helvetica, Arial-Unicode, Arial, Sans-serif">from the Noun Project</text></svg>