<svg xmlns="http://www.w3.org/2000/svg" xmlns:xlink="http://www.w3.org/1999/xlink" version="1.1" x="0px" y="0px" viewBox="-20.686 -35.602 188.667 235" enable-background="new -20.686 -35.602 188.667 188" xml:space="preserve"><path d="M124.596-5.685c-3.561-6.789-7.084-12.715-9.414-16.491c-1.375-2.228-2.453-3.907-3.116-4.924  c-1.225-1.875-1.233-1.86-1.365-1.873c-0.114,0.003-0.13,0.004-1.353,1.89c-0.663,1.019-1.742,2.708-3.121,4.959  c-2.327,3.798-5.847,9.755-9.412,16.576C90.58,6.382,83.148,23.056,83.148,34.738c0,7.363,2.866,14.285,8.071,19.489  c5.206,5.206,12.127,8.071,19.488,8.071c15.196,0.001,27.561-12.361,27.561-27.559C138.268,22.872,130.833,6.207,124.596-5.685z"/><path d="M158.999,115.812c-0.152-0.366-0.224-0.539-0.252-0.603c0.038,0.089,0.145,0.338,0.25,0.599  c-3.167-7.84-13.047-3.918-19.204-1.548c-9.368,2.614-19.021,4.346-28.747,4.745c-9.913,0.409-37.532,0.043-41.818-12.464  c6.774-5.286,43.315,11.573,37.719-8.734c-2.045-9.583-31.346-14.042-39.847-14.042c-27.002-1.783-54.717,0.029-81.784,0.029v38.314  h38.781c2.329,0,13.808,12.895,17.332,14.826c20.179,11.053,44.979,9.617,66.768,5.055  C118.246,139.886,165.51,131.451,158.999,115.812C159.229,116.368,159.461,116.92,158.999,115.812z"/></svg>
