<svg xmlns="http://www.w3.org/2000/svg" xmlns:xlink="http://www.w3.org/1999/xlink" version="1.1" x="0px" y="0px" viewBox="0 0 160 200" style="enable-background:new 0 0 160 160;" xml:space="preserve"><g><path d="M20.7,30.6c7.5-10.3,17.1-15.9,26.8-15.9s19.3,5.7,26.8,15.9c6.3,8.6,10.2,19.1,10.7,28.8h3c-1-22.2-18.7-47.9-40.5-47.9   C25.7,11.5,8,37.2,7,59.3h3C10.5,49.7,14.4,39.1,20.7,30.6z"/><polygon points="55.9,142.3 51.8,144.3 48.1,143.4 44.7,144.2 40.4,141.1 36.1,144.2 32.7,143.4 29,144.3 24.9,142.3 20.6,144.4    18.1,144.4 13.3,138.5 8.5,144.4 7,144.5 7,148.5 10.4,148.4 13.3,144.8 16.2,148.4 21.5,148.4 24.9,146.7 28.6,148.5 32.7,147.5    37,148.5 40.4,146 43.8,148.5 48.1,147.5 52.2,148.5 55.9,146.7 59.3,148.4 65.7,148.4 65.7,144.4 60.2,144.4  "/><rect x="141.3" y="144.5" width="11.7" height="4"/><path d="M70.7,79.1h10.4V61.6c0-19.3-15.5-43-33.6-43c-18.1,0-33.6,23.6-33.6,43v31.1h17.9v-27h31.4v15.8   C65.5,80,68.1,79.1,70.7,79.1z M55.3,43.7H39.2v-8h16.2V43.7z"/><polygon points="82,126.6 79.7,129.9 79.7,133.5 84.1,147 90.8,147 84.2,126.6  "/><polygon points="112.8,126.6 116.5,131.8 111.1,147 117.7,147 123.4,131.7 113.3,126.6  "/><path d="M142.5,124.5c2.2-2.2,3.3-5.1,3.3-8c0-1.8-0.4-3.7-1.3-5.3V94.6c0-6.4-5.2-11.5-11.5-11.5H70.7c-2.1,0-4.2,0.8-5.8,2.1   l-18.3,15.6l-4.1,1.2c-1.7-0.3-3.3-0.5-4.5-0.8c-0.1,0-0.1,0-0.2,0c-0.7,0-1.1,0.8-0.8,1.4l0.6,0.9l-4.6,1.4   c-0.8,0.2-0.9,1.3-0.2,1.6l3.1,1.6l-2.2,3.4c-0.3,0.5-0.5,1-0.4,1.6l0.1,1.1c0.6,4.4,0.6,8.8-0.1,13.1l-0.7,4.1   c-0.1,0.4,0.2,0.9,0.6,1l4.9,1.5c0.1,0,0.2,0,0.3,0c0.2,0,0.3,0,0.5-0.1l2.3-1.5c3.8-2.4,7-5.5,9.4-9.3h13.2l5.6,6.8v18.7h6.3   v-19.7l4.1-6.1h34.4l17.2,8.8v17h6.3v-18.3c0-0.4-0.1-0.8-0.2-1.1l-4.5-14l3-10.5c0.3-1.2,0.5-2.4,0.5-3.6V88c2.4,1.3,4,3.8,4,6.7   v16.5C138.2,115.5,138.9,120.9,142.5,124.5z"/><path d="M149,67.4v4.4h-5.7v-4.4h-4v4.4h-5.7v-4.4h-4v4.4h-5.7v-4.4h-4v4.4h-5.7v-4.4h-4v4.4h-5.7v-4.4h-4v4.4h-5.7v-4.4h-4v4.4   h-5.7v4h5.7v3.4h4v-3.4h5.7v3.4h4v-3.4h5.7v3.4h4v-3.4h5.7v3.4h4v-3.4h5.7v3.4h3.4c0.2,0,0.4,0,0.6,0v-3.4h5.7v4.7   c1.5,0.7,2.8,1.5,4,2.6v-7.3h5.7v19h4V67.4H149z"/></g></svg>
