<svg xmlns="http://www.w3.org/2000/svg" xmlns:xlink="http://www.w3.org/1999/xlink" version="1.1" x="0px" y="0px" viewBox="0 0 100 125" enable-background="new 0 0 100 100" xml:space="preserve"><g><path d="M89.5,84.454h-4.321c0.219-0.591,0.265-1.25,0.069-1.899l-3.171-10.57l1.753-10.052c0.003-0.015,0.001-0.029,0.003-0.044   c0.171-0.716,0.217-1.473,0.105-2.245L80.87,38.367c-0.473-3.28-3.521-5.56-6.795-5.082c-3.279,0.473-5.555,3.515-5.082,6.795   l0.032,0.225l-0.995,2.972l-11.72,4.398c-1.292,0.485-1.947,1.927-1.462,3.22c0.377,1.003,1.329,1.622,2.341,1.622   c0.292,0,0.589-0.052,0.879-0.16l12.043-4.521l0.603,4.177L65.57,54.62l-3.224,0.199c-1.269,0.078-2.246,1.092-2.329,2.326   c-2.222,0.395-3.961,2.156-4.33,4.387h-0.592l-0.023,4.511c-0.017,3.241,2.597,5.881,5.838,5.898s5.882-2.597,5.899-5.838   l0.022-4.571h-0.614c-0.114-0.688-0.358-1.326-0.708-1.898l0.884-0.055c0.341-0.021,0.673-0.111,0.978-0.266l4.097-2.077   l0.479,3.321l-4.31,6.396c-0.328,0.487-0.506,1.061-0.512,1.648l-0.138,14.787c-0.004,0.376,0.07,0.732,0.193,1.065H46.676v-2.449   c0.145,0.024,0.287,0.041,0.422,0.041c1.751,0,2.316-1.948,2.372-3.1l0.027-0.53l-0.529,0.042   c-1.015,0.079-1.782,0.365-2.292,0.845v-0.894c0.464-0.337,0.756-0.763,0.848-1.281c0.239-1.351-0.98-2.754-1.033-2.813   l-0.35-0.397l-0.35,0.397c-0.832,0.945-1.178,1.852-1.03,2.692c0.141,0.799,0.694,1.289,0.982,1.496v1.02   c-0.465-0.584-1.246-0.965-2.328-1.132l-0.524-0.082l-0.014,0.53c-0.002,0.071-0.035,1.762,0.864,2.684   c0.384,0.394,0.87,0.594,1.445,0.594c0.173,0,0.357-0.019,0.545-0.057l0.012-0.002v2.396h-9.067v-2.449   c0.145,0.024,0.287,0.041,0.422,0.041c1.751,0,2.316-1.948,2.372-3.1l0.027-0.53l-0.529,0.042   c-1.015,0.079-1.782,0.365-2.292,0.845v-0.894c0.464-0.337,0.756-0.763,0.848-1.281c0.239-1.351-0.98-2.754-1.033-2.813   l-0.35-0.397l-0.35,0.397c-0.832,0.945-1.178,1.852-1.03,2.692c0.141,0.799,0.694,1.289,0.982,1.496v1.02   c-0.465-0.584-1.246-0.965-2.328-1.132l-0.524-0.082l-0.014,0.53c-0.002,0.071-0.035,1.762,0.864,2.684   c0.384,0.394,0.87,0.594,1.445,0.594c0.173,0,0.357-0.019,0.545-0.057l0.012-0.002v2.396h-9.067v-2.449   c0.145,0.024,0.287,0.041,0.422,0.041c1.751,0,2.316-1.948,2.372-3.1l0.027-0.53l-0.529,0.042   c-1.015,0.079-1.782,0.365-2.292,0.845v-0.894c0.464-0.337,0.756-0.763,0.848-1.281c0.239-1.351-0.98-2.754-1.033-2.813   l-0.35-0.397l-0.35,0.397c-0.832,0.945-1.178,1.852-1.03,2.692c0.141,0.799,0.694,1.289,0.982,1.496v1.02   c-0.465-0.584-1.246-0.965-2.328-1.132l-0.524-0.082l-0.014,0.53c-0.002,0.071-0.035,1.762,0.864,2.684   c0.384,0.394,0.87,0.594,1.445,0.594c0.173,0,0.357-0.019,0.545-0.057l0.012-0.002v2.396h-9.067v-2.449   c0.145,0.024,0.287,0.041,0.422,0.041c1.751,0,2.316-1.948,2.372-3.1l0.027-0.53l-0.529,0.042   c-1.015,0.079-1.782,0.365-2.292,0.845v-0.894c0.464-0.337,0.756-0.763,0.848-1.281c0.239-1.351-0.98-2.754-1.033-2.813   l-0.35-0.397l-0.35,0.397c-0.832,0.945-1.178,1.852-1.03,2.692c0.141,0.799,0.694,1.289,0.982,1.496v1.02   c-0.465-0.584-1.246-0.965-2.328-1.132l-0.524-0.082l-0.014,0.53c-0.002,0.071-0.035,1.762,0.864,2.684   c0.384,0.394,0.87,0.594,1.445,0.594c0.173,0,0.357-0.019,0.545-0.057l0.012-0.002v2.396H10.5c-1.104,0-2,0.896-2,2s0.896,2,2,2h79   c1.104,0,2-0.896,2-2S90.604,84.454,89.5,84.454z M57.729,61.532c0.367-1.355,1.557-2.363,3.003-2.459   c0.455,0.457,1.079,0.741,1.766,0.741c0.052,0,0.104-0.002,0.155-0.005l0.37-0.022c0.554,0.439,0.963,1.044,1.152,1.745H57.729z    M72.791,84.454c0.117-0.316,0.193-0.652,0.196-1.009l0.129-13.887l2.43-3.605c0.45,0.203,0.919,0.366,1.414,0.454l-0.915,5.244   c-0.08,0.459-0.053,0.931,0.082,1.378l3.375,11.25c0.019,0.062,0.047,0.116,0.068,0.175H72.791z"/><path d="M38.86,53.999c0.646,0,0.59-0.998-0.053-0.998C38.162,53.001,38.217,53.999,38.86,53.999z"/><path d="M44.86,52.499c0.646,0,0.59-0.998-0.053-0.998C44.162,51.501,44.217,52.499,44.86,52.499z"/><path d="M51.193,51.166c0.646,0,0.59-0.998-0.053-0.998C50.495,50.168,50.551,51.166,51.193,51.166z"/><path d="M51.526,57.999c0.646,0,0.59-0.998-0.053-0.998C50.828,57.001,50.884,57.999,51.526,57.999z"/><path d="M50.193,69.833c0.646,0,0.59-0.998-0.053-0.998C49.495,68.835,49.551,69.833,50.193,69.833z"/><path d="M47.526,56.499c0.646,0,0.59-0.998-0.053-0.998C46.828,55.501,46.884,56.499,47.526,56.499z"/><path d="M42.526,62.166c0.646,0,0.59-0.998-0.053-0.998C41.828,61.168,41.884,62.166,42.526,62.166z"/><path d="M41.026,68.333c0.646,0,0.59-0.998-0.053-0.998C40.328,67.335,40.384,68.333,41.026,68.333z"/><path d="M32.693,63.666c0.646,0,0.59-0.998-0.053-0.998C31.995,62.668,32.051,63.666,32.693,63.666z"/><path d="M33.026,71.333c0.646,0,0.59-0.998-0.053-0.998C32.328,70.335,32.384,71.333,33.026,71.333z"/><path d="M47.36,73.499c0.646,0,0.59-0.998-0.053-0.998C46.662,72.501,46.717,73.499,47.36,73.499z"/><path d="M42.86,73.166c0.646,0,0.59-0.998-0.053-0.998C42.162,72.168,42.217,73.166,42.86,73.166z"/><path d="M54.526,74.666c0.646,0,0.59-0.998-0.053-0.998C53.828,73.668,53.884,74.666,54.526,74.666z"/><path d="M47.36,63.666c0.646,0,0.59-0.998-0.053-0.998C46.662,62.668,46.717,63.666,47.36,63.666z"/><path d="M36.86,60.333c0.646,0,0.59-0.998-0.053-0.998C36.162,59.335,36.217,60.333,36.86,60.333z"/><path d="M65.487,27.288c1.013,2.563,3.507,4.379,6.43,4.379c3.819,0,6.917-3.097,6.917-6.917c0-0.272-0.02-0.54-0.051-0.804   c5.468-1.695,9.169-3.332,8.975-4.096c-0.175-0.692-3.512-0.489-8.318,0.383c-1.951-3.449-6.061-5.254-10.04-4.116   c-3.811,1.09-6.3,4.54-6.354,8.309c-4.341,1.453-7.138,2.782-6.97,3.449C56.266,28.619,60.102,28.33,65.487,27.288z"/></g></svg>
