<svg xmlns="http://www.w3.org/2000/svg" xmlns:xlink="http://www.w3.org/1999/xlink" version="1.1" x="0px" y="0px" viewBox="0 0 64 80" style="enable-background:new 0 0 64 64;" xml:space="preserve"><g><path d="M55,24C55,11.318,44.683,1,32,1S9,11.318,9,24c0,7.986,4.2,15.449,11,19.618V45h-2v2h2v2h-2v2h2v2h-2v2h2v2h-2v2h2v4h24v-4   h2v-2h-2v-2h2v-2h-2v-2h2v-2h-2v-2h2v-2h-2v-1.382C50.8,39.449,55,31.986,55,24z M42,61H22v-2h20V61z M42,53h-2v2h2v2H22v-2h16v-2   H22v-2h20V53z M42,49H22v-2h20V49z M33,45V30h3c7.168,0,13-5.832,13-13v-1h-5c-5.4,0-10.039,3.311-12,8.008   C30.039,19.311,25.4,16,20,16h-5v1c0,7.168,5.832,13,13,13h3v15h-9v-2.527l-0.499-0.289C15.023,38.436,11,31.468,11,24   c0-11.58,9.421-21,21-21s21,9.42,21,21c0,7.468-4.023,14.436-10.501,18.184L42,42.473V45H33z M33.045,28   C33.552,22.401,38.271,18,44,18h2.955C46.448,23.599,41.729,28,36,28H33.045z M30.955,28H28c-5.729,0-10.448-4.401-10.955-10H20   C25.729,18,30.448,22.401,30.955,28z"/><rect x="35" y="39" width="2" height="2"/><rect x="39" y="39" width="2" height="2"/><rect x="27" y="39" width="2" height="2"/><rect x="23" y="39" width="2" height="2"/></g></svg>
