<svg xmlns:dc="http://purl.org/dc/elements/1.1/" xmlns:cc="http://creativecommons.org/ns#" xmlns:rdf="http://www.w3.org/1999/02/22-rdf-syntax-ns#" xmlns:svg="http://www.w3.org/2000/svg" xmlns="http://www.w3.org/2000/svg" xmlns:sodipodi="http://sodipodi.sourceforge.net/DTD/sodipodi-0.dtd" xmlns:inkscape="http://www.inkscape.org/namespaces/inkscape" version="1.1" x="0px" y="0px" viewBox="0 0 100 125"><g transform="translate(0,-952.36218)"><path d="m 36.000542,957.36209 c 3.2179,0 6.23052,1.7434 7.93741,4.5312 4.6134,-1.068 9.06239,2.2515 9.06239,6.4688 0,2.1667 -1.10004,3.9547 -2.43747,5.125 -1.33742,1.1703 -2.8958,1.875 -4.56245,1.875 l -11.99986,0 c -2.38887,0 -4.21007,-1.5802 -5.31244,-3.3125 -1.10237,-1.7323 -1.68748,-3.7431 -1.68748,-5.6875 0,-2.1667 0.98092,-4.2633 2.53122,-5.9688 1.5503,-1.7053 3.80204,-3.0312 6.46868,-3.0312 z m 41.09328,1.3125 16.99981,11 c 0.5574,0.3641 0.91054,1.0217 0.90624,1.6875 2.8e-4,24.66388 0,49.33111 0,74.00021 -1.1e-4,1.0472 -0.95282,1.9999 -1.99998,2 l -85.9990299,0 c -1.04716,-10e-5 -1.99987,-0.9528 -1.99997,-2 -0.002,-22.3467 0,-44.6665 0,-67.00001 -0.0244,-1.1345 1.09076,-2.1555 2.21872,-2.0312 0.98273,0.108 1.80247,1.0428 1.78123,2.0312 l 0,3.7188 c 2.5605199,-0.3154 5.2308099,-0.584 7.9999099,-0.8438 l 0,-2.875 c -0.0244,-1.1345 1.09077,-2.1555 2.21872,-2.0312 0.98273,0.108 1.80247,1.0428 1.78123,2.0312 l 0,2.5312 c 2.61903,-0.215 5.28852,-0.4252 7.99991,-0.5937 l 0,-1.9375 c -0.0244,-1.1345 1.09077,-2.1555 2.21873,-2.0312 0.98273,0.108 1.80247,1.0428 1.78123,2.0312 l 0,1.7188 c 1.99258,-0.1062 3.9973,-0.2308 5.99993,-0.3126 l 0,-1.4062 c -0.0244,-1.1345 1.09077,-2.1555 2.21873,-2.0312 0.98273,0.108 1.80247,1.0428 1.78123,2.0312 l 0,1.2812 c 2.01671,-0.066 4.00864,-0.1146 5.99993,-0.1562 l 0,-1.125 c -0.0244,-1.1345 1.09077,-2.1555 2.21872,-2.0312 0.98273,0.108 1.80247,1.0428 1.78123,2.0312 l 0,1.0312 c 1.35139,-0.017 2.67611,-0.025 3.99996,-0.031 l 0,-8 c -0.004,-0.6658 0.34883,-1.3234 0.90624,-1.6875 l 16.99981,-11 c 0.92356,-0.4632 1.35482,-0.3284 2.18747,-4e-4 z m -62.09305,-0.3125 0,4 -1.99998,0 0,-4 z m 3.93746,1.625 1.43748,1.4062 -2.84372,2.8438 -1.40623,-1.4375 z m -9.8748899,0 2.8124699,2.8125 -1.40624,1.4375 -2.8437099,-2.8438 z m 66.9367399,2.75 -14.99983,9.6875 0,11.7813 c 1.65345,-0.1753 3.31569,-0.31 4.99995,-0.4376 l 0,-10.4062 c 1e-4,-1.0472 0.95282,-1.9999 1.99997,-2 5.38981,0 10.81138,0 16.18732,0 0.98316,0.093 1.81674,1.0125 1.81248,2 l 0,9.8438 c 1.63407,0.023 3.31011,0.049 4.99994,0.094 l 0,-10.875 z m -61.9993,0.625 c 1.65683,0 2.99997,1.3431 2.99997,3 0,1.6569 -1.34314,3 -2.99997,3 -1.65683,0 -2.99996,-1.3431 -2.99996,-3 0,-1.6569 1.34313,-3 2.99996,-3 z m 7.99991,2 0,2 -3.99995,0 0,-2 z m -11.99986,0 0,2 -3.9999599,0 0,-2 z m 7.53116,3.0938 2.84372,2.8437 -1.43748,1.4063 -2.81247,-2.8126 z m -7.06242,0 1.40624,1.4374 -2.8124699,2.8126 -1.43748,-1.4063 z m 4.5312,1.9062 0,4 -1.99998,0 0,-4 z m 41.99953,13 c -1.32524,0.01 -2.6458,0.014 -3.99996,0.031 l 0,1.8438 c 1.32257,-0.2117 2.66775,-0.3863 3.99996,-0.5625 z m -7.99991,0.125 c -1.98672,0.042 -3.98747,0.089 -5.99993,0.1562 l 0,3.5938 c 1.99794,-0.4679 4.00654,-0.9038 5.99993,-1.2812 z m -9.99989,0.2812 c -2.0069,0.083 -4.00488,0.2053 -5.99993,0.3126 l 0,5.875 c 2.01633,-0.6228 4.01669,-1.1942 5.99993,-1.7188 z m -9.99989,0.5626 c -2.71481,0.1701 -5.38639,0.346 -7.99991,0.5624 l 0,9.25 c 2.71981,-1.06 5.38398,-1.9927 7.99991,-2.875 z m -11.99986,0.9062 c -2.77949,0.2633 -5.45136,0.5561 -7.9999099,0.875 l 0,13.12498 c 2.7280099,-1.2424 5.4067699,-2.3965 7.9999099,-3.4688 z m 64.84302,2.0312 c -18.55132,15.05351 -28.16835,37.30071 -28.81218,56.09381 l 21.99975,0 c 0.13537,-18.4673 2.26464,-37.2979 14.24984,-56.03121 -2.58503,-0.066 -5.22038,-0.063 -7.43741,-0.063 z m -6.21868,0.063 c -2.84982,0.075 -5.62147,0.2189 -8.34366,0.4062 -15.39929,13.64781 -36.19552,32.72661 -38.18707,55.62501 l 19.93728,0 c 0.59316,-18.7722 9.45776,-40.337 26.59345,-56.03121 z m -15.24983,1.0312 c -3.80433,0.4245 -7.55201,0.9664 -11.28112,1.6875 -9.0489,7.39128 -39.3789297,33.12361 -40.0932999,43.31251 l 0,10 16.0623199,0 c 3.07179,-23.8307 19.41684,-40.7571 35.3121,-55.00001 z m -20.03102,3.6875 c -9.75708,2.5539 -19.83065,6.28988 -31.3433999,11.62501 l 0,19.875 c 8.2036599,-12.1742 20.7902099,-22.6621 31.3433999,-31.50001 z m 50.65567,0.062 c -10.03659,17.01401 -11.84581,33.97861 -11.96861,51.25001 l 11.96861,0 z" style="text-indent:0;text-transform:none;direction:ltr;block-progression:tb;baseline-shift:baseline;color:#000000;enable-background:accumulate;" fill="#000000" fill-opacity="1" stroke="none" marker="none" visibility="visible" display="inline" overflow="visible"/></g></svg>
