<svg xmlns="http://www.w3.org/2000/svg" xmlns:xlink="http://www.w3.org/1999/xlink" version="1.1" x="0px" y="0px" viewBox="0 0 100 125" enable-background="new 0 0 100 100" xml:space="preserve"><path fill="#000000" d="M50,8.221C26.926,8.221,8.221,26.926,8.221,50S26.926,91.779,50,91.779  c23.074,0,41.779-18.705,41.779-41.779S73.074,8.221,50,8.221z M50,85.594c-19.657,0-35.593-15.938-35.593-35.594  c0-8.715,3.137-16.695,8.337-22.882L41.627,46c-0.048,0.122-0.102,0.231-0.148,0.357l0.104-0.311c0,0-4.102-2.532-4.666-1.968  c-0.564,0.563-1.851,3.915-1.851,3.915l-1.646,0.484h1.805c0,0,2.239-2.506,2.086-2.961c-0.169-0.507,3.869,1.727,3.875,1.729  c-0.575,1.912-0.924,4.247-1,7.049c-1.401-0.775-4.874-2.604-5.456-2.022c-0.731,0.73-2.399,5.074-2.399,5.074l-2.134,0.627h2.34  c0,0,2.902-3.249,2.705-3.838c-0.176-0.527,3.471,1.422,4.938,2.225c0.037,1.775,0.164,3.574,0.39,5.351  c-1.356-0.668-2.886-1.294-3.238-0.94c-0.666,0.664-2.184,4.618-2.184,4.618l-1.942,0.572h2.129c0,0,2.642-2.958,2.462-3.495  c-0.125-0.374,1.69,0.515,3.069,1.236c0.422,2.532,1.024,4.951,1.766,7.121c-0.173-0.016-0.309,0.006-0.381,0.079  c-0.564,0.563-1.851,3.916-1.851,3.916L38.753,75.3h1.806c0,0,2.237-2.505,2.086-2.959c-0.044-0.131,0.199-0.076,0.574,0.073  c1.716,4.292,4.01,7.23,6.54,7.23c2.509,0,4.78-2.886,6.489-7.113c0.188-0.053,0.32-0.07,0.291,0.02  c-0.154,0.455,2.088,2.962,2.088,2.962h1.803l-1.646-0.484c0,0-1.287-3.352-1.85-3.915c-0.027-0.027-0.094-0.019-0.137-0.032  c0.744-2.128,1.359-4.504,1.795-7.004c0.216-0.115,0.465-0.247,0.728-0.385l13.563,13.563C66.695,82.456,58.715,85.594,50,85.594z   M77.257,72.882l-16.65-16.65c1.687-0.903,4.303-2.247,4.153-1.8c-0.199,0.591,2.707,3.84,2.707,3.84h2.336l-2.131-0.627  c0,0-1.668-4.345-2.402-5.076c-0.666-0.669-5.162,1.851-5.926,2.286c-0.037-2.862-0.357-5.25-0.898-7.216  c0.871-0.476,3.754-2.018,3.609-1.585c-0.15,0.455,2.088,2.96,2.088,2.96h1.805l-1.646-0.483c0,0-1.287-3.352-1.85-3.916  c-0.488-0.485-3.576,1.203-4.436,1.686c-1.246-3.405-3.275-5.293-5.691-6.026c1.436-0.339,2.402-0.944,2.402-1.642  c0-0.673-0.895-1.264-2.244-1.608c0.102-2.568,0.768-10.925,5.182-14.313c1.938-1.488,4.4-1.833,7.316-1.03l0.24-0.869  c-3.201-0.883-5.93-0.486-8.105,1.183c-4.691,3.6-5.42,11.999-5.531,14.847c-0.564-0.086-1.179-0.135-1.823-0.135  c-0.454,0-0.891,0.025-1.309,0.069c-0.12-2.908-0.871-11.208-5.527-14.782c-2.175-1.669-4.902-2.067-8.104-1.183l0.241,0.869  c2.915-0.803,5.375-0.458,7.313,1.028c4.351,3.337,5.06,11.512,5.175,14.201c-1.632,0.315-2.756,0.967-2.756,1.721  c0,0.698,0.967,1.303,2.404,1.642c-0.614,0.186-1.202,0.448-1.759,0.789l-18.32-18.32c6.188-5.2,14.167-8.336,22.881-8.336  c19.659,0,35.594,15.935,35.594,35.593C85.594,58.714,82.457,66.693,77.257,72.882z"/></svg>
