<svg xmlns="http://www.w3.org/2000/svg" xmlns:xlink="http://www.w3.org/1999/xlink" version="1.1" x="0px" y="0px" viewBox="0 0 100 125" style="enable-background:new 0 0 100 100;" xml:space="preserve"><path d="M89.203,42H88.29l0.41-6.409c0.182-1.784-0.404-3.57-1.606-4.901c-0.977-1.081-2.295-1.779-3.717-2.006v-1.417  c1.085-0.662,4.103-2.422,6.052-3.548c0.478-0.276,0.642-0.888,0.365-1.366c-0.276-0.479-0.888-0.643-1.366-0.365  c-2.429,1.404-4.007,2.318-5.051,2.948V21.47c0.903-0.551,3.192-1.893,5.275-3.101c0.478-0.277,0.641-0.889,0.364-1.367  s-0.889-0.64-1.367-0.364c-1.99,1.154-3.345,1.94-4.272,2.498v-3.462c0.725-0.441,2.303-1.373,3.744-2.214  c0.477-0.279,0.638-0.891,0.359-1.368s-0.891-0.637-1.368-0.359c-1.182,0.69-2.069,1.208-2.735,1.607v-2.285c0-0.552-0.448-1-1-1  s-1,0.448-1,1v2.259c-0.661-0.395-1.533-0.905-2.692-1.582c-0.478-0.279-1.09-0.118-1.368,0.359  c-0.278,0.477-0.117,1.089,0.359,1.368c1.413,0.825,2.958,1.736,3.701,2.188v3.462c-0.926-0.557-2.273-1.338-4.23-2.473  c-0.477-0.274-1.089-0.113-1.367,0.364c-0.277,0.478-0.114,1.089,0.364,1.367c2.055,1.191,4.304,2.51,5.233,3.075v3.464  c-1.044-0.63-2.612-1.537-5.008-2.923c-0.479-0.277-1.089-0.113-1.366,0.365c-0.276,0.478-0.113,1.09,0.365,1.366  c1.925,1.113,4.892,2.842,6.009,3.522v1.443c-1.42,0.228-2.738,0.925-3.714,2.006c-1.202,1.331-1.788,3.117-1.609,4.864L76.467,42  H62.874v-8.063c1.644-0.066,4.847-0.488,6.958-2.664c2.876-2.964,2.442-7.879,2.422-8.086c-0.047-0.488-0.441-0.871-0.93-0.903  c-0.206-0.013-5.133-0.302-8.011,2.664c-0.158,0.162-0.301,0.333-0.439,0.506v-2.476c0.842-0.825,2.707-2.945,2.73-5.546  c0.029-3.287-2.903-5.865-3.028-5.973c-0.372-0.321-0.92-0.325-1.296-0.012c-0.127,0.106-3.104,2.631-3.133,5.918  c-0.025,2.706,1.955,4.927,2.727,5.69v2.595c-0.211-0.277-0.437-0.547-0.695-0.798c-2.965-2.876-7.878-2.443-8.086-2.422  c-0.488,0.047-0.871,0.441-0.903,0.93c-0.014,0.208-0.301,5.134,2.664,8.011c2.17,2.106,5.372,2.434,7.021,2.453V42H46.589  l0.41-6.409c0.182-1.784-0.404-3.571-1.606-4.901c-0.977-1.081-2.295-1.779-3.717-2.006v-1.417c1.085-0.662,4.103-2.422,6.051-3.548  c0.478-0.276,0.642-0.888,0.365-1.366c-0.277-0.479-0.888-0.643-1.366-0.365c-2.428,1.404-4.007,2.318-5.05,2.948V21.47  c0.903-0.551,3.192-1.893,5.275-3.101c0.478-0.277,0.641-0.889,0.364-1.367c-0.277-0.478-0.889-0.64-1.367-0.364  c-1.989,1.154-3.344,1.94-4.272,2.498v-3.462c0.725-0.442,2.302-1.373,3.743-2.214c0.477-0.278,0.638-0.891,0.359-1.368  c-0.277-0.477-0.89-0.637-1.368-0.359c-1.182,0.69-2.069,1.208-2.734,1.607v-2.285c0-0.552-0.448-1-1-1s-1,0.448-1,1v2.26  c-0.661-0.395-1.533-0.905-2.692-1.582c-0.478-0.279-1.09-0.119-1.368,0.359c-0.279,0.477-0.118,1.089,0.359,1.368  c1.413,0.825,2.958,1.737,3.701,2.189v3.462c-0.926-0.557-2.273-1.338-4.23-2.473c-0.476-0.274-1.089-0.113-1.367,0.364  c-0.277,0.478-0.114,1.089,0.364,1.367c2.055,1.192,4.305,2.511,5.233,3.076v3.464c-1.044-0.63-2.612-1.537-5.008-2.923  c-0.478-0.277-1.089-0.113-1.366,0.365c-0.276,0.478-0.113,1.09,0.365,1.366c1.926,1.114,4.893,2.843,6.009,3.523v1.443  c-1.421,0.228-2.739,0.925-3.715,2.006c-1.202,1.331-1.788,3.117-1.609,4.864L34.765,42H21.531v-8.063  c1.644-0.066,4.847-0.488,6.958-2.664c2.876-2.964,2.442-7.879,2.422-8.086c-0.047-0.488-0.441-0.871-0.93-0.903  c-0.207-0.013-5.133-0.302-8.011,2.664c-0.158,0.162-0.301,0.333-0.439,0.506v-2.477c0.842-0.825,2.707-2.945,2.73-5.546  c0.029-3.287-2.903-5.865-3.028-5.973c-0.371-0.321-0.92-0.325-1.296-0.012c-0.127,0.106-3.104,2.631-3.133,5.918  c-0.024,2.705,1.955,4.926,2.727,5.689v2.595c-0.211-0.277-0.437-0.547-0.695-0.798c-2.964-2.876-7.879-2.443-8.086-2.422  c-0.488,0.047-0.871,0.441-0.903,0.93c-0.014,0.208-0.301,5.134,2.664,8.011c2.17,2.106,5.372,2.434,7.021,2.453V42h-8.229  c-0.552,0-1,0.448-1,1s0.448,1,1,1h77.901c0.552,0,1-0.448,1-1S89.755,42,89.203,42z M64.749,26.34  c1.589-1.638,4.171-1.988,5.535-2.054c-0.025,1.365-0.298,3.957-1.888,5.595c-1.584,1.633-4.156,1.986-5.522,2.053v-0.313  C62.934,30.202,63.269,27.864,64.749,26.34z M60.147,17.382c0.014-1.554,1.051-2.965,1.762-3.75  c0.697,0.799,1.709,2.228,1.695,3.781c-0.014,1.552-1.049,2.962-1.76,3.749C61.147,20.359,60.133,18.925,60.147,17.382z   M55.246,29.934c-1.637-1.589-1.988-4.171-2.054-5.535c1.366,0.025,3.957,0.298,5.595,1.888c1.637,1.589,1.988,4.171,2.054,5.535  C59.475,31.797,56.884,31.523,55.246,29.934z M23.406,26.34c1.589-1.638,4.171-1.988,5.535-2.054  c-0.025,1.365-0.298,3.957-1.888,5.595c-1.584,1.633-4.156,1.986-5.522,2.053v-0.31C21.591,30.205,21.926,27.865,23.406,26.34z   M18.804,17.382c0.014-1.554,1.051-2.965,1.762-3.75c0.697,0.799,1.709,2.228,1.695,3.781s-1.051,2.964-1.762,3.75  C19.802,20.364,18.791,18.935,18.804,17.382z M13.903,29.934c-1.637-1.589-1.988-4.171-2.054-5.535  c1.366,0.025,3.957,0.298,5.595,1.888s1.988,4.171,2.054,5.535C18.132,31.797,15.541,31.523,13.903,29.934z M79.147,32.03  c0.824-0.912,2.001-1.435,3.232-1.435c1.229,0,2.407,0.523,3.231,1.435c0.824,0.912,1.225,2.136,1.097,3.396l-0.002,0.03H78.05  l-0.004-0.067C77.922,34.166,78.323,32.941,79.147,32.03z M78.179,37.456h8.398L86.286,42h-7.815L78.179,37.456z M37.445,32.03  c0.824-0.912,2.002-1.435,3.233-1.435c1.229,0,2.406,0.523,3.23,1.435c0.824,0.912,1.225,2.136,1.098,3.396l-0.002,0.03h-8.655  l-0.004-0.067C36.22,34.166,36.621,32.941,37.445,32.03z M36.477,37.456h8.398L44.584,42H36.77L36.477,37.456z"/><path d="M19.297,79.913V88h-8.229c-0.552,0-1,0.448-1,1s0.448,1,1,1h77.901c0.552,0,1-0.448,1-1s-0.448-1-1-1h-0.907l0.404-6.318  c0.182-1.784-0.404-3.571-1.606-4.901c-0.977-1.081-2.295-1.779-3.717-2.006v-1.417c1.085-0.663,4.103-2.421,6.051-3.548  c0.478-0.276,0.642-0.888,0.365-1.366c-0.277-0.479-0.888-0.642-1.366-0.365c-2.428,1.404-4.007,2.318-5.05,2.948v-3.464  c0.903-0.551,3.192-1.893,5.275-3.101c0.478-0.277,0.641-0.889,0.364-1.367s-0.889-0.64-1.367-0.364  c-1.99,1.154-3.345,1.94-4.272,2.498v-3.462c0.725-0.441,2.303-1.373,3.744-2.214c0.477-0.279,0.638-0.891,0.359-1.368  c-0.278-0.477-0.891-0.636-1.368-0.359c-1.182,0.69-2.069,1.208-2.735,1.607v-2.285c0-0.552-0.448-1-1-1s-1,0.448-1,1v2.259  c-0.661-0.395-1.533-0.905-2.692-1.582c-0.478-0.278-1.09-0.118-1.368,0.359c-0.278,0.477-0.117,1.089,0.359,1.368  c1.413,0.825,2.958,1.736,3.701,2.188v3.462c-0.926-0.557-2.273-1.338-4.23-2.473c-0.476-0.275-1.089-0.114-1.367,0.364  c-0.277,0.478-0.114,1.089,0.364,1.367c2.055,1.191,4.304,2.51,5.233,3.075V71c-1.044-0.63-2.612-1.537-5.008-2.923  c-0.478-0.277-1.089-0.114-1.366,0.365c-0.276,0.478-0.113,1.09,0.365,1.366c1.925,1.113,4.892,2.842,6.009,3.522v1.443  c-1.42,0.228-2.738,0.925-3.714,2.006c-1.202,1.331-1.788,3.117-1.609,4.864L76.227,88H62.641v-7.972  c1.644-0.066,4.847-0.488,6.958-2.664c2.876-2.964,2.442-7.879,2.422-8.086c-0.047-0.488-0.441-0.871-0.93-0.903  c-0.206-0.012-5.132-0.302-8.011,2.664c-0.158,0.162-0.301,0.333-0.439,0.506v-2.477c0.842-0.826,2.707-2.945,2.73-5.546  c0.029-3.287-2.903-5.865-3.028-5.973c-0.371-0.321-0.92-0.325-1.296-0.012c-0.127,0.106-3.104,2.631-3.134,5.918  c-0.024,2.706,1.956,4.927,2.727,5.69v2.595c-0.211-0.277-0.437-0.547-0.695-0.798c-2.964-2.875-7.877-2.442-8.086-2.422  c-0.488,0.047-0.871,0.441-0.903,0.93c-0.014,0.208-0.301,5.134,2.664,8.011c2.17,2.106,5.372,2.434,7.021,2.453V88h-14.28  l0.405-6.318c0.182-1.784-0.404-3.571-1.606-4.901c-0.977-1.081-2.295-1.779-3.717-2.006v-1.417  c1.085-0.663,4.103-2.421,6.051-3.548c0.478-0.276,0.642-0.888,0.365-1.366c-0.276-0.479-0.889-0.642-1.366-0.365  c-2.428,1.404-4.007,2.318-5.05,2.948v-3.464c0.903-0.551,3.192-1.893,5.275-3.101c0.478-0.277,0.641-0.889,0.364-1.367  c-0.277-0.479-0.889-0.64-1.367-0.364c-1.989,1.154-3.344,1.94-4.272,2.498v-3.462c0.725-0.442,2.302-1.373,3.743-2.214  c0.477-0.278,0.638-0.891,0.359-1.368c-0.278-0.477-0.89-0.637-1.368-0.359c-1.182,0.69-2.069,1.208-2.734,1.607v-2.285  c0-0.552-0.448-1-1-1s-1,0.448-1,1v2.26c-0.661-0.395-1.533-0.905-2.692-1.582c-0.477-0.28-1.09-0.119-1.368,0.359  c-0.279,0.477-0.118,1.089,0.359,1.368c1.413,0.825,2.958,1.737,3.701,2.189v3.462c-0.926-0.557-2.273-1.338-4.23-2.473  c-0.476-0.275-1.089-0.114-1.367,0.364c-0.277,0.478-0.114,1.089,0.364,1.367c2.055,1.192,4.305,2.511,5.233,3.076v3.464  c-1.044-0.63-2.612-1.537-5.008-2.923c-0.479-0.277-1.089-0.114-1.366,0.365c-0.276,0.478-0.113,1.09,0.365,1.366  c1.926,1.114,4.893,2.843,6.009,3.523v1.443c-1.421,0.228-2.739,0.925-3.715,2.006c-1.202,1.331-1.788,3.117-1.609,4.864L34.526,88  H21.297v-7.972c1.644-0.066,4.847-0.488,6.958-2.664c2.876-2.964,2.442-7.879,2.422-8.086c-0.047-0.488-0.441-0.871-0.93-0.903  c-0.205-0.012-5.133-0.302-8.011,2.664c-0.158,0.162-0.301,0.333-0.439,0.506v-2.477c0.842-0.825,2.707-2.945,2.73-5.546  c0.029-3.287-2.903-5.865-3.028-5.973c-0.371-0.321-0.92-0.325-1.296-0.012c-0.127,0.106-3.104,2.631-3.133,5.918  c-0.024,2.705,1.955,4.926,2.727,5.689v2.595c-0.211-0.277-0.437-0.547-0.695-0.798c-2.964-2.875-7.878-2.442-8.086-2.422  c-0.488,0.047-0.871,0.441-0.903,0.93c-0.014,0.208-0.301,5.134,2.664,8.011C14.447,79.567,17.649,79.895,19.297,79.913z   M64.516,72.431c1.589-1.638,4.171-1.988,5.535-2.054c-0.025,1.365-0.298,3.957-1.888,5.595c-1.584,1.633-4.156,1.986-5.522,2.053  v-0.313C62.7,76.293,63.036,73.955,64.516,72.431z M59.914,63.474c0.014-1.554,1.051-2.965,1.762-3.751  c0.697,0.799,1.709,2.228,1.695,3.781c-0.014,1.553-1.051,2.964-1.762,3.75C60.912,66.456,59.9,65.026,59.914,63.474z   M55.013,76.025c-1.637-1.589-1.988-4.171-2.054-5.535c1.366,0.025,3.957,0.298,5.595,1.888c1.637,1.589,1.988,4.171,2.054,5.535  C59.242,77.888,56.65,77.615,55.013,76.025z M78.914,78.121c0.824-0.912,2.001-1.435,3.232-1.435c1.229,0,2.406,0.523,3.23,1.435  c0.824,0.912,1.225,2.136,1.097,3.396l-0.002,0.03h-8.655l-0.004-0.067C77.688,80.257,78.089,79.033,78.914,78.121z M77.945,83.547  h8.398L86.058,88h-7.826L77.945,83.547z M37.211,78.121c0.824-0.912,2.002-1.435,3.233-1.435c1.229,0,2.406,0.523,3.23,1.435  c0.824,0.912,1.225,2.136,1.098,3.396l-0.002,0.03h-8.655l-0.004-0.067C35.987,80.257,36.388,79.033,37.211,78.121z M36.244,83.547  h8.398L44.356,88H36.53L36.244,83.547z M23.172,72.431c1.589-1.638,4.171-1.988,5.535-2.054c-0.025,1.365-0.298,3.957-1.888,5.595  c-1.584,1.633-4.156,1.986-5.522,2.053v-0.31C21.357,76.296,21.692,73.956,23.172,72.431z M18.571,63.473  c0.014-1.554,1.051-2.965,1.762-3.75c0.697,0.799,1.709,2.228,1.695,3.781s-1.051,2.964-1.762,3.75  C19.569,66.456,18.557,65.026,18.571,63.473z M17.21,72.377c1.637,1.589,1.988,4.171,2.054,5.535  c-1.366-0.024-3.957-0.298-5.595-1.888c-1.637-1.589-1.988-4.171-2.054-5.535C12.981,70.515,15.572,70.788,17.21,72.377z"/></svg>
