<svg xmlns="http://www.w3.org/2000/svg" xmlns:xlink="http://www.w3.org/1999/xlink" version="1.1" x="0px" y="0px" viewBox="0 0 512 640" enable-background="new 0 0 512 512" xml:space="preserve"><g><g><path fill="#000000" d="M179,508h-53c-2.7,0-5.1-1.3-6.6-3.6c-1.5-2.2-1.7-5-0.6-7.5c3.5-8,5.3-16.5,5.3-25.2v-98.9    c0-3.1,1.8-5.9,4.6-7.2c2.8-1.3,6.1-0.8,8.4,1.2c8.7,7.5,21.9,8.6,31.8,2.5c2.4-1.5,5.5-1.6,8-0.2c2.5,1.4,4,4,4,6.9v95.7    c0,8.7,1.8,17.2,5.3,25.2c1.1,2.4,0.8,5.2-0.6,7.5C184.2,506.7,181.7,508,179,508z M137.1,492.3h30.8c-1.8-6.7-2.7-13.5-2.7-20.5    v-83.9c-8.3,2.1-17.3,1.6-25.3-1.4v85.2C139.9,478.7,138.9,485.6,137.1,492.3z"/></g><g><path fill="#000000" d="M114.1,302.6c-10.8,0-19.6-8.8-19.6-19.6c0-2.2,1.8-3.9,3.9-3.9s3.9,1.8,3.9,3.9c0,6.4,5.2,11.7,11.7,11.7    s11.7-5.2,11.7-11.7c0-2.2,1.8-3.9,3.9-3.9s3.9,1.8,3.9,3.9C133.7,293.8,124.9,302.6,114.1,302.6z"/></g><g><path fill="#000000" d="M98.5,334.5c-10.8,0-19.6-8.8-19.6-19.6c0-2.2,1.8-3.9,3.9-3.9s3.9,1.8,3.9,3.9c0,6.4,5.2,11.7,11.7,11.7    s11.7-5.2,11.7-11.7c0-2.2,1.8-3.9,3.9-3.9s3.9,1.8,3.9,3.9C118.1,325.7,109.3,334.5,98.5,334.5z"/></g><g><path fill="#000000" d="M80.4,270.4c-10.8,0-19.6-8.8-19.6-19.6c0-2.2,1.8-3.9,3.9-3.9s3.9,1.8,3.9,3.9c0,6.4,5.2,11.7,11.7,11.7    s11.7-5.2,11.7-11.7c0-2.2,1.8-3.9,3.9-3.9s3.9,1.8,3.9,3.9C100,261.7,91.2,270.4,80.4,270.4z"/></g><g><path fill="#000000" d="M179,302.6c-10.8,0-19.6-8.8-19.6-19.6c0-2.2,1.8-3.9,3.9-3.9s3.9,1.8,3.9,3.9c0,6.4,5.2,11.7,11.7,11.7    s11.7-5.2,11.7-11.7c0-2.2,1.8-3.9,3.9-3.9s3.9,1.8,3.9,3.9C198.6,293.8,189.8,302.6,179,302.6z"/></g><g><path fill="#000000" d="M78.5,215.6c-10.8,0-19.6-8.8-19.6-19.6c0-2.2,1.8-3.9,3.9-3.9s3.9,1.8,3.9,3.9c0,6.4,5.2,11.7,11.7,11.7    s11.7-5.2,11.7-11.7c0-2.2,1.8-3.9,3.9-3.9s3.9,1.8,3.9,3.9C98.1,206.8,89.3,215.6,78.5,215.6z"/></g><g><path fill="#000000" d="M120.7,239c-10.8,0-19.6-8.8-19.6-19.6c0-2.2,1.8-3.9,3.9-3.9s3.9,1.8,3.9,3.9c0,6.4,5.2,11.7,11.7,11.7    s11.7-5.2,11.7-11.7c0-2.2,1.8-3.9,3.9-3.9s3.9,1.8,3.9,3.9C140.2,230.2,131.4,239,120.7,239z"/></g><g><path fill="#000000" d="M156.7,338c-10.8,0-19.6-8.8-19.6-19.6c0-2.2,1.8-3.9,3.9-3.9s3.9,1.8,3.9,3.9c0,6.4,5.2,11.7,11.7,11.7    s11.7-5.2,11.7-11.7c0-2.2,1.8-3.9,3.9-3.9s3.9,1.8,3.9,3.9C176.3,329.2,167.5,338,156.7,338z"/></g><g><path fill="#000000" d="M500.1,508H11.9c-4.3,0-7.9-3.5-7.9-7.9s3.5-7.9,7.9-7.9h488.3c4.3,0,7.9,3.5,7.9,7.9S504.5,508,500.1,508    z"/></g><g><path fill="#000000" d="M264.1,238.5c-13.5,0-24.5-11-24.5-24.5c0-2.2,1.8-3.9,3.9-3.9s3.9,1.8,3.9,3.9c0,9.2,7.5,16.7,16.7,16.7    s16.7-7.5,16.7-16.7c0-2.2,1.8-3.9,3.9-3.9s3.9,1.8,3.9,3.9C288.6,227.5,277.6,238.5,264.1,238.5z"/></g><g><path fill="#000000" d="M243.5,280.5c-13.5,0-24.5-11-24.5-24.5c0-2.2,1.8-3.9,3.9-3.9s3.9,1.8,3.9,3.9c0,9.2,7.5,16.7,16.7,16.7    s16.7-7.5,16.7-16.7c0-2.2,1.8-3.9,3.9-3.9s3.9,1.8,3.9,3.9C268,269.5,257,280.5,243.5,280.5z"/></g><g><path fill="#000000" d="M219.7,196.1c-13.5,0-24.5-11-24.5-24.5c0-2.2,1.8-3.9,3.9-3.9s3.9,1.8,3.9,3.9c0,9.2,7.5,16.7,16.7,16.7    s16.7-7.5,16.7-16.7c0-2.2,1.8-3.9,3.9-3.9s3.9,1.8,3.9,3.9C244.2,185.1,233.2,196.1,219.7,196.1z"/></g><g><path fill="#000000" d="M406.8,238.5c-13.5,0-24.5-11-24.5-24.5c0-2.2,1.8-3.9,3.9-3.9s3.9,1.8,3.9,3.9c0,9.2,7.5,16.7,16.7,16.7    s16.7-7.5,16.7-16.7c0-2.2,1.8-3.9,3.9-3.9s3.9,1.8,3.9,3.9C431.4,227.5,420.4,238.5,406.8,238.5z"/></g><g><path fill="#000000" d="M349.7,238.5c-13.5,0-24.5-11-24.5-24.5c0-2.2,1.8-3.9,3.9-3.9s3.9,1.8,3.9,3.9c0,9.2,7.5,16.7,16.7,16.7    s16.7-7.5,16.7-16.7c0-2.2,1.8-3.9,3.9-3.9s3.9,1.8,3.9,3.9C374.2,227.5,363.2,238.5,349.7,238.5z"/></g><g><path fill="#000000" d="M394.8,196.1c-13.5,0-24.5-11-24.5-24.5c0-2.2,1.8-3.9,3.9-3.9s3.9,1.8,3.9,3.9c0,9.2,7.5,16.7,16.7,16.7    s16.7-7.5,16.7-16.7c0-2.2,1.8-3.9,3.9-3.9s3.9,1.8,3.9,3.9C419.4,185.1,408.4,196.1,394.8,196.1z"/></g><g><path fill="#000000" d="M423.4,139.5c-13.5,0-24.5-11-24.5-24.5c0-2.2,1.8-3.9,3.9-3.9s3.9,1.8,3.9,3.9c0,9.2,7.5,16.7,16.7,16.7    S440,124.2,440,115c0-2.2,1.8-3.9,3.9-3.9s3.9,1.8,3.9,3.9C447.9,128.5,436.9,139.5,423.4,139.5z"/></g><g><path fill="#000000" d="M349.7,108.8c-13.5,0-24.5-11-24.5-24.5c0-2.2,1.8-3.9,3.9-3.9s3.9,1.8,3.9,3.9c0,9.2,7.5,16.7,16.7,16.7    s16.7-7.5,16.7-16.7c0-2.2,1.8-3.9,3.9-3.9s3.9,1.8,3.9,3.9C374.2,97.8,363.2,108.8,349.7,108.8z"/></g><g><path fill="#000000" d="M217.1,123.8c-13.5,0-24.5-11-24.5-24.5c0-2.2,1.8-3.9,3.9-3.9s3.9,1.8,3.9,3.9c0,9.2,7.5,16.7,16.7,16.7    s16.7-7.5,16.7-16.7c0-2.2,1.8-3.9,3.9-3.9s3.9,1.8,3.9,3.9C241.7,112.8,230.7,123.8,217.1,123.8z"/></g><g><path fill="#000000" d="M329.1,185.8c-13.5,0-24.5-11-24.5-24.5c0-2.2,1.8-3.9,3.9-3.9s3.9,1.8,3.9,3.9c0,9.2,7.5,16.7,16.7,16.7    s16.7-7.5,16.7-16.7c0-2.2,1.8-3.9,3.9-3.9s3.9,1.8,3.9,3.9C353.6,174.8,342.6,185.8,329.1,185.8z"/></g><g><path fill="#000000" d="M272.7,154.6c-13.5,0-24.5-11-24.5-24.5c0-2.2,1.8-3.9,3.9-3.9s3.9,1.8,3.9,3.9c0,9.2,7.5,16.7,16.7,16.7    s16.7-7.5,16.7-16.7c0-2.2,1.8-3.9,3.9-3.9s3.9,1.8,3.9,3.9C297.2,143.6,286.2,154.6,272.7,154.6z"/></g><g><path fill="#000000" d="M284.7,92.7c-13.5,0-24.5-11-24.5-24.5c0-2.2,1.8-3.9,3.9-3.9s3.9,1.8,3.9,3.9c0,9.2,7.5,16.7,16.7,16.7    s16.7-7.5,16.7-16.7c0-2.2,1.8-3.9,3.9-3.9s3.9,1.8,3.9,3.9C309.2,81.7,298.2,92.7,284.7,92.7z"/></g><g><path fill="#000000" d="M320.2,285.2c-13.5,0-24.5-11-24.5-24.5c0-2.2,1.8-3.9,3.9-3.9s3.9,1.8,3.9,3.9c0,9.2,7.5,16.7,16.7,16.7    s16.7-7.5,16.7-16.7c0-2.2,1.8-3.9,3.9-3.9s3.9,1.8,3.9,3.9C344.8,274.2,333.8,285.2,320.2,285.2z"/></g><g><path fill="#000000" d="M154.7,389.2c-16.5,0-31.1-9.4-38.2-23.7c-5.4,2.1-11.2,3.2-17.1,3.2c-26.4,0-47.9-21.5-47.9-47.9    c0-1.2,0-2.4,0.1-3.5C25.3,317,4,295.6,4,269.3c0-15.7,7.8-30.3,20.4-39.2c-3-6.3-4.5-13.2-4.5-20.3c0-26.4,21.5-47.9,47.9-47.9    c1.6,0,3.2,0.1,4.8,0.2c3.7-22.8,23.5-40.3,47.3-40.3c17.5,0,33.6,9.6,42,24.9c2,3.7,0.8,8.4-2.9,10.5    c-13.7,8.2-21.9,22.6-21.9,38.5c0,24.8,20.1,44.9,44.9,44.9c3.4,0,7-0.4,10.6-1.3c2.8-0.7,5.7,0.2,7.6,2.3    c1.9,2.1,2.6,5.1,1.7,7.8c-1.5,4.6-2.3,9.4-2.3,14.1c0,24.8,20.2,44.9,44.9,44.9c2.2,0,4.5-0.2,6.7-0.5c2.5-0.4,5,0.5,6.8,2.2    c1.8,1.8,2.6,4.3,2.2,6.8c-3.8,23.3-23.7,40.1-47.2,40.1c-5.7,0-11.2-1-16.4-2.9C193,374.2,175.6,389.2,154.7,389.2z M120.9,346.6    c1,0,2,0.2,3,0.6c2.4,1,4.1,3,4.7,5.5c2.9,12.2,13.7,20.7,26.2,20.7c14.9,0,26.9-12.1,26.9-26.9c0-1.2-0.1-2.4-0.3-3.9    c-0.5-3.2,1-6.3,3.8-7.9c2.7-1.6,6.2-1.4,8.7,0.5c5.6,4.2,12.3,6.4,19.2,6.4c12.3,0,23.1-6.9,28.5-17.2    c-32-1.6-57.6-28.2-57.6-60.6c0-2.4,0.1-4.8,0.4-7.2c-34.6,1.4-63-26.4-63-60.6c0-18.6,8.3-35.8,22.6-47.2c-6-6.9-14.8-11-24.2-11    c-17.7,0-32.2,14.4-32.2,32.2c0,0.2,0,0.5,0,0.7l0,0.8c0.1,2.6-1,5.1-3.1,6.6c-2,1.6-4.7,2-7.2,1.3c-3.2-1-6.5-1.5-9.8-1.5    c-17.7,0-32.2,14.4-32.2,32.2c0,6.7,2.1,13.1,5.9,18.6c1.4,1.9,1.8,4.3,1.2,6.6c-0.6,2.3-2.2,4.1-4.3,5.1    c-11.3,5.3-18.7,16.7-18.7,29.2c0,17.7,14.4,32.2,32.2,32.2c2.4,0,5-0.3,7.6-0.9c2.8-0.7,5.7,0.2,7.7,2.3s2.6,5.1,1.7,7.8    c-1.1,3.3-1.6,6.7-1.6,10.1c0,17.7,14.4,32.2,32.2,32.2c6.1,0,12.1-1.7,17.3-5.1C117.9,347.1,119.4,346.6,120.9,346.6z"/></g><g><path fill="#000000" d="M317.6,351.3c-21.6,0-40.6-12.7-49.1-31.9c-7.5,3.2-15.6,4.9-23.8,4.9c-33.5,0-60.7-27.2-60.7-60.7    c0-2.4,0.1-4.8,0.4-7.2c-34.5,1.5-63-26.4-63-60.6c0-20.6,10.6-39.7,27.6-50.8c-4.4-8.5-6.7-17.9-6.7-27.6    c0-33.5,27.2-60.7,60.7-60.7c2.8,0,5.7,0.2,8.5,0.6c3.6-30,29.2-53.4,60.2-53.4c22.5,0,42.5,12.1,53,31.2c10.8-9,24.4-14,38.8-14    c24.7,0,46.6,15,55.9,37.3c4.5-1.1,9.2-1.6,13.8-1.6c33.5,0,60.7,27.2,60.7,60.7c0,11-3,21.7-8.6,31.1    c14.3,11.4,22.7,28.6,22.7,47.3c0,30.9-23.3,56.5-53.2,60.2c-3.7,30-29.3,53.2-60.2,53.2c-8.2,0-16.2-1.6-23.6-4.8    C367.5,330.9,344.9,351.3,317.6,351.3z M273,300.3c1,0,2,0.2,3,0.6c2.4,1,4.1,3,4.7,5.5c4.1,17.2,19.3,29.2,37,29.2    c21,0,38-17.1,38-38c0-1.6-0.1-3.4-0.5-5.5c-0.5-3.2,1-6.3,3.8-7.9c2.7-1.6,6.2-1.4,8.7,0.5c7.8,5.9,17.1,9,26.8,9    c24.8,0,44.9-20.2,44.9-44.9c0-4.3,3.5-7.9,7.9-7.9c24.8,0,44.9-20.1,44.9-44.9c0-15.9-8.2-30.3-21.9-38.5c-2-1.2-3.3-3.1-3.7-5.4    c-0.4-2.2,0.2-4.6,1.6-6.3c6.5-8.1,9.9-17.8,9.9-28.1c0-24.8-20.1-44.9-44.9-44.9c-5.4,0-10.8,1-16,3c-2.1,0.8-4.4,0.7-6.4-0.3    c-2-1-3.4-2.8-4-5c-5.2-19.6-23.1-33.3-43.3-33.3c-13.8,0-26.6,6.2-35.2,17.1c-1.8,2.3-4.7,3.4-7.6,2.8c-2.9-0.5-5.2-2.6-6.1-5.4    c-5.8-18.9-23.1-31.6-42.9-31.6c-24.8,0-44.9,20.2-44.9,44.9c0,0.4,0,0.7,0.1,1.1l0.1,1c0.1,2.6-1,5.1-3.1,6.6    c-2,1.6-4.7,2-7.2,1.3c-4.4-1.4-9-2.1-13.7-2.1c-24.8,0-44.9,20.1-44.9,44.9c0,9.3,2.9,18.3,8.3,25.9c1.4,1.9,1.8,4.3,1.2,6.6    c-0.6,2.3-2.2,4.1-4.3,5.1c-15.8,7.3-26.1,23.3-26.1,40.7c0,24.8,20.1,44.9,44.9,44.9c3.4,0,7-0.4,10.6-1.3    c2.8-0.7,5.7,0.2,7.6,2.3c1.9,2.1,2.6,5.1,1.7,7.8c-1.5,4.6-2.3,9.4-2.3,14.1c0,24.8,20.1,44.9,44.9,44.9c8.5,0,16.9-2.4,24.1-7.1    C270,300.7,271.5,300.3,273,300.3z"/></g><g><path fill="#000000" d="M349.7,508h-69.9c-2.7,0-5.1-1.3-6.6-3.6c-1.5-2.2-1.7-5-0.6-7.5c4.8-10.9,7.2-22.4,7.2-34.3V332.3    c0-3.1,1.8-5.9,4.6-7.2c2.8-1.3,6.1-0.8,8.4,1.2c6.9,6,15.7,9.3,24.8,9.3c7,0,14-2,20-5.7c2.4-1.5,5.5-1.6,8-0.2    c2.5,1.4,4,4,4,6.9v126.2c0,11.9,2.4,23.4,7.2,34.3c1.1,2.4,0.8,5.2-0.6,7.5C354.8,506.7,352.3,508,349.7,508z M291.1,492.3h47.2    c-2.9-9.6-4.4-19.5-4.4-29.6V348.8c-12.5,4-26.5,3.2-38.4-2.2v116.1C295.5,472.8,294,482.7,291.1,492.3z"/></g></g></svg>
