<svg xmlns="http://www.w3.org/2000/svg" xmlns:xlink="http://www.w3.org/1999/xlink" version="1.1" x="0px" y="0px" viewBox="0 0 100 125" enable-background="new 0 0 100 100" xml:space="preserve"><path d="M8.6,65.3h3.3c0.5,3.2,3.3,5.7,6.6,5.7s6.1-2.5,6.6-5.7h0.7c0.5,3.2,3.3,5.7,6.6,5.7s6.1-2.5,6.6-5.7h3.3v-6.5h2v6.5h4.5h0  c0.5,3.2,3.3,5.7,6.6,5.7c3.3,0,6.1-2.5,6.6-5.7h1.4h4.1h1.5h9.6c0.5,3.2,3.3,5.7,6.6,5.7c3.3,0,6.1-2.5,6.6-5.7h1.4  c0.6,0,1.2-0.3,1.7-0.7c0.5-0.5,0.7-1.2,0.6-1.9l-1-13.4c-0.2-1.8-1.5-3.2-3.2-3.4l-4.3-0.4l-2.4-9.1c-0.3-1.5-1.5-2.7-3-2.9  l-1.6-0.1c-2.4-2.2-6.5-3.8-11.4-4.3L67.6,29v3.3l0,0v26.3h-2V29H4.4v29.8h4.3V65.3z M67,63.3h-4.9c-0.1-0.9-0.5-1.8-1-2.6H67V63.3z   M55.4,66.9c-1.4,0-2.6-1.2-2.6-2.6c0-1.4,1.2-2.6,2.6-2.6c1.4,0,2.6,1.2,2.6,2.6C58,65.7,56.9,66.9,55.4,66.9z M46.4,60.7h3.4  c-0.5,0.8-0.8,1.6-1,2.6h-2.4V60.7z M6.4,31.1h57v25.7h-57V31.1z M32.4,66.9c-1.4,0-2.6-1.2-2.6-2.6c0-1.4,1.2-2.6,2.6-2.6  s2.6,1.2,2.6,2.6C35,65.7,33.8,66.9,32.4,66.9z M18.5,66.9c-1.4,0-2.6-1.2-2.6-2.6c0-1.4,1.2-2.6,2.6-2.6c1.4,0,2.6,1.2,2.6,2.6  C21.1,65.7,19.9,66.9,18.5,66.9z M10.7,58.8h4c-1.5,1-2.5,2.6-2.8,4.5h-1.2V58.8z M22.3,58.8h6.3c-1.5,1-2.5,2.6-2.8,4.5h-0.7  C24.8,61.4,23.8,59.8,22.3,58.8z M36.2,58.8h4v4.5H39C38.7,61.4,37.7,59.8,36.2,58.8z M92.6,49.5l1,13.4c0,0.2-0.1,0.3-0.1,0.3  c0,0-0.1,0.1-0.1,0.1h-1.4c-0.5-3.2-3.3-5.7-6.6-5.7c-0.3,0-0.6,0-0.9,0.1l-0.6-10.2h2.5l4.9,0.5h0C91.9,48.1,92.5,48.7,92.6,49.5z   M85.3,66.9c-1.4,0-2.6-1.2-2.6-2.6c0-1.4,1.2-2.6,2.6-2.6c1.4,0,2.6,1.2,2.6,2.6C87.9,65.7,86.7,66.9,85.3,66.9z M72.7,38h7  l1.8,7.4h-8.8V38z M83,38l2,7.4h-1.4L81.9,38H83z M72.7,47.5h9.1l0.7,10.8c-0.8,0.4-1.6,1-2.2,1.7h-7.6V47.5z M81.4,36H70.6v11.6V62  H79c-0.2,0.4-0.3,0.8-0.3,1.3h-9.1V34.6l11.9,1c0.3,0,0.5,0.2,0.7,0.3H81.4z M69.6,32.5v-1.2c2.3,0.3,4.3,0.9,6,1.7L69.6,32.5z"/></svg>
