<svg xmlns:dc="http://purl.org/dc/elements/1.1/" xmlns:cc="http://creativecommons.org/ns#" xmlns:rdf="http://www.w3.org/1999/02/22-rdf-syntax-ns#" xmlns:svg="http://www.w3.org/2000/svg" xmlns="http://www.w3.org/2000/svg" xmlns:sodipodi="http://sodipodi.sourceforge.net/DTD/sodipodi-0.dtd" xmlns:inkscape="http://www.inkscape.org/namespaces/inkscape" version="1.1" x="0px" y="0px" viewBox="0 0 100 125"><g transform="translate(0,-952.36218)"><path style="font-size:medium;font-style:normal;font-variant:normal;font-weight:normal;font-stretch:normal;text-indent:0;text-align:start;text-decoration:none;line-height:normal;letter-spacing:normal;word-spacing:normal;text-transform:none;direction:ltr;block-progression:tb;writing-mode:lr-tb;text-anchor:start;baseline-shift:baseline;opacity:1;color:#000000;fill:#000000;fill-opacity:1;stroke:none;stroke-width:3.99999976000000010;marker:none;visibility:visible;display:inline;overflow:visible;enable-background:accumulate;font-family:Sans;-inkscape-font-specification:Sans" d="M 41.3125 6 A 2.0001999 2.0001999 0 0 0 39.5 8 L 39.5 11 L 35 11 A 2.0001999 2.0001999 0 0 0 33 13 L 33 15 L 19 15 A 2.0001999 2.0001999 0 0 0 18.8125 15 A 2.0001999 2.0001999 0 0 0 17 17 L 17 92 A 2.0001999 2.0001999 0 0 0 19 94 L 81 94 A 2.0001999 2.0001999 0 0 0 83 92 L 83 17 A 2.0001999 2.0001999 0 0 0 81 15 L 67 15 L 67 13 A 2.0001999 2.0001999 0 0 0 65 11 L 60.5 11 L 60.5 8 A 2.0001999 2.0001999 0 0 0 58.5 6 L 41.5 6 A 2.0001999 2.0001999 0 0 0 41.3125 6 z M 43.5 10 L 56.5 10 L 56.5 13 A 2.0001999 2.0001999 0 0 0 58.5 15 L 63 15 L 63 20 L 37 20 L 37 15 L 41.5 15 A 2.0001999 2.0001999 0 0 0 43.5 13 L 43.5 10 z M 21 19 L 33 19 L 33 22 A 2.0001999 2.0001999 0 0 0 35 24 L 65 24 A 2.0001999 2.0001999 0 0 0 67 22 L 67 19 L 79 19 L 79 90 L 21 90 L 21 19 z M 25.8125 34 A 2.0001999 2.0001999 0 0 0 24 36 L 24 46 A 2.0001999 2.0001999 0 0 0 26 48 L 36 48 A 2.0001999 2.0001999 0 0 0 38 46 L 38 36 A 2.0001999 2.0001999 0 0 0 36 34 L 26 34 A 2.0001999 2.0001999 0 0 0 25.8125 34 z M 28 38 L 34 38 L 34 44 L 28 44 L 28 38 z M 43.8125 39 A 2.0021961 2.0021961 0 1 0 44 43 L 74 43 A 2.0001999 2.0001999 0 1 0 74 39 L 44 39 A 2.0001999 2.0001999 0 0 0 43.8125 39 z M 25.8125 51 A 2.0001999 2.0001999 0 0 0 24 53 L 24 63 A 2.0001999 2.0001999 0 0 0 26 65 L 36 65 A 2.0001999 2.0001999 0 0 0 38 63 L 38 53 A 2.0001999 2.0001999 0 0 0 36 51 L 26 51 A 2.0001999 2.0001999 0 0 0 25.8125 51 z M 28 55 L 34 55 L 34 61 L 28 61 L 28 55 z M 43.8125 56 A 2.0021961 2.0021961 0 1 0 44 60 L 74 60 A 2.0001999 2.0001999 0 1 0 74 56 L 44 56 A 2.0001999 2.0001999 0 0 0 43.8125 56 z M 25.8125 68 A 2.0001999 2.0001999 0 0 0 24 70 L 24 80 A 2.0001999 2.0001999 0 0 0 26 82 L 36 82 A 2.0001999 2.0001999 0 0 0 38 80 L 38 70 A 2.0001999 2.0001999 0 0 0 36 68 L 26 68 A 2.0001999 2.0001999 0 0 0 25.8125 68 z M 28 72 L 34 72 L 34 78 L 28 78 L 28 72 z M 43.8125 73 A 2.0021961 2.0021961 0 1 0 44 77 L 74 77 A 2.0001999 2.0001999 0 1 0 74 73 L 44 73 A 2.0001999 2.0001999 0 0 0 43.8125 73 z " transform="translate(0,952.36218)"/></g></svg>
