<svg xmlns="http://www.w3.org/2000/svg" xmlns:xlink="http://www.w3.org/1999/xlink" version="1.1" x="0px" y="0px" viewBox="0 0 100 125" enable-background="new 0 0 100 100" xml:space="preserve"><path d="M78.368103,76.7503662l-9.375-24.2499962c-0.7272339-1.8804321-2.5199585-3.0223999-4.4219971-3.0266113  l-7.7557373-0.046936v-4.1635132c2.9376221-1.7260132,4.7138672-4.5501709,5.7770996-7.9500732  c0.1303101,0.0240479,0.2619019,0.0357666,0.3937988,0.0357666c1.2539063,0,2.5605469-1.0595703,3.2070313-2.7177734  c0.3515625-0.9047852,0.4492188-1.8574219,0.2744141-2.6826191c-0.1972656-0.925293-0.7333984-1.6206055-1.4707031-1.9077148  c-0.0519409-0.0201416-0.1085815-0.0217896-0.1617432-0.0376587c0.5280762-2.581543,2.0194092-11.9766235-2.8626709-17.4745483  c-2.8291016-3.1860352-7.2412109-4.4462891-13.1137695-3.7509766c-0.1079102-0.046875-0.2250977-0.0742188-0.3466797-0.078125  c-4.6132813-0.159668-8.140625,1.206543-10.4536133,4.0566406c-4.5333862,5.5833731-2.8904419,15.0057974-2.418335,17.2356567  c-0.0693359,0.0189819-0.1422729,0.0227661-0.2095947,0.0490112c-1.4526367,0.5654297-1.9775391,2.5815449-1.1958008,4.5898457  c0.6459961,1.6586914,1.9521484,2.7182617,3.206543,2.7182617c0.1341553,0,0.2677002-0.0126343,0.3998413-0.0374756  c1.0639038,3.3862305,2.838623,6.2019653,5.7710571,7.9302368v4.1850586H36.336792  c-2.899353,0.036438-4.4335346,0.7365723-5.3012104,2.87677l-9.375,23.1254845  c-0.6367188,1.5693359-0.3886719,3.3603516,0.6503906,4.6982422c0.9067383,1.1669922,2.2963867,1.8359375,3.7509766,1.8359375  c0.2124023,0,0.4262695-0.0146484,0.6401367-0.0429688l8.3867207-1.1399536v6.3129883c0,0.5522461,0.4477539,1,1,1h28.25  c0.5522461,0,1-0.4477539,1-1V82.309021l8.0869141,0.8768921c0.1708984,0.0185547,0.3417969,0.0273438,0.5126953,0.0273438  c1.4658203,0,2.8613281-0.6787109,3.7666016-1.8564453C78.7138062,80.0423584,78.9657593,78.2962646,78.368103,76.7503662z   M63.7503662,31.5338764c0.1652832-0.0805054,0.3267822-0.1365356,0.4712524-0.1365356  c0.0820313,0,0.1601563,0.0136719,0.2304688,0.0410156c0.2587891,0.1005859,0.4580078,0.4003906,0.5478516,0.8222675  c0.1142578,0.534668,0.0390625,1.2001953-0.2050781,1.8261719c-0.4210205,1.0820923-1.2245483,1.7399292-1.7954712,1.7562256  C63.336792,34.4701576,63.5793457,33.024601,63.7503662,31.5338764z M35.6322632,34.0867958  c-0.4863281-1.25-0.2202148-2.4292011,0.3422852-2.6484394c0.0771484-0.0297852,0.1567383-0.0424805,0.2358398-0.0424805  c0.1655884,0,0.3267212,0.0571899,0.4667969,0.1265259c0.171814,1.4951801,0.4159546,2.9450703,0.7559814,4.3217793  C36.859314,35.8324013,36.0551147,35.1725502,35.6322632,34.0867958z M35.0888062,71.1925659L33.543396,71.40271  l1.5454102-3.8121338V71.1925659z M63.7323608,75.536499l-0.3476563,2.7001953  c-0.0128174,0.1000977-0.045105,0.1921387-0.0671387,0.2885742c-0.3118286,1.3638916-1.507019,2.3387451-2.8882446,2.3723755  c-0.1564941,0.0037842-0.3134155,0.0068359-0.4733276-0.0144653l-6.866272-0.8840942l-0.1571655-0.0202026  c-0.0893555-0.0117188-0.1435547-0.0664063-0.1679688-0.0976563s-0.0634766-0.0976563-0.0517578-0.1875  c0.0112305-0.0898438,0.065918-0.1445313,0.0976563-0.1689453c0.027832-0.0214844,0.0825195-0.0537109,0.1557617-0.0537109  c0.0102539,0,0.0209961,0,0.0322266,0.0019531l0.0668335,0.008606l2.8965454,0.37323  c0.265625,0.03125,0.5039063-0.1113281,0.6669922-0.3164063c0.1640625-0.2050781,0.1933594-0.5205078,0.1015625-0.7666016  c-0.0966797-0.2617188-0.3310547-0.4472656-0.6074219-0.4833984l-3.1329346-0.4031982l-1.1693115-0.1505127  c-0.1376953-0.0175781-0.2397461-0.1494141-0.222168-0.2861328c0.0180664-0.1376953,0.1430664-0.2451172,0.2861328-0.2207031  l1.0809937,0.1393433l2.7901001,0.3596802c0.3984375,0.0390625,0.7939453-0.3095703,0.8486328-0.7177734  c0.0263672-0.1982422-0.0273438-0.3984375-0.1484375-0.5566406s-0.3007813-0.2617188-0.4990234-0.2871094l-3.0665283-0.3945923  l-1.5701904-0.2020874c-0.1376953-0.0175781-0.2392578-0.1484375-0.2211914-0.2861328  c0.0175781-0.1376953,0.159668-0.2412109,0.2856445-0.2207031l1.4813232,0.190918l3.1563721,0.4067383  c0.1894531,0.0244141,0.4023438-0.0654297,0.5605469-0.1894531c0.1582031-0.1220703,0.2646484-0.3398438,0.2890625-0.5380859  c0.0488281-0.4091797-0.2412109-0.78125-0.6494141-0.8339844l-3.4318237-0.4415283l-0.43927-0.0565186  c-0.0893555-0.0117188-0.1435547-0.0664063-0.1679688-0.0976563c-0.0249023-0.03125-0.0639648-0.0986328-0.0527344-0.1884766  c0.0180664-0.1376953,0.1455078-0.2451172,0.2861328-0.2207031l0.3494263,0.0450439l3.9542847,0.5096436  c0.2773438,0.0390625,0.5869141-0.1474609,0.7480469-0.3671875c0.1572266-0.2138672,0.1904297-0.4951172,0.0859375-0.7392578  c-0.1035156-0.2451172-0.3300781-0.4160156-0.59375-0.4501953l-1.1240234-0.1445313  c-0.0898438-0.0117188-0.1445313-0.0664063-0.1689453-0.0976563s-0.0634766-0.0976563-0.0517578-0.1875  s0.0664063-0.1445313,0.0976563-0.1689453s0.1044922-0.0693359,0.1884766-0.0517578l5.1835938,0.6669922  c0.5525513,0.0708618,1.0436401,0.2961426,1.4572144,0.6126099c0.1103516,0.0844727,0.213623,0.1743774,0.3110962,0.2724609  C63.4987793,73.6413574,63.8579712,74.5616455,63.7323608,75.536499z M39.2109985,36.4009438  c-0.1060791-0.3619385-0.2098389-0.7272339-0.302002-1.107605c-0.2434692-1.0048218-0.4432983-2.0688477-0.5996094-3.1956787  c-0.0609131-0.439333-0.1104736-0.8958759-0.1596069-1.3527851c-0.1331177-1.2382202-0.2279663-2.5360107-0.2856445-3.8956909  c0.1755371-1.1000366,0.4325562-2.0133057,0.7388306-2.7614136c0.4609375-0.0776367,1.4570313-0.293457,2.6293945-0.8334961  c0.1845703,0.2553711,0.4916992,0.4194336,0.8183594,0.3930664c0.1660156-0.0083008,2.3759766-0.1347656,4.7119141-1.0512695  c-0.0117188,0.105957-0.0053711,0.2148438,0.0200195,0.3227539c0.1000977,0.4199219,0.4711914,0.7197266,0.902832,0.7294922  c0.1982422,0.0019531,4.1708984,0.0551758,6.6210938-2.7470703c0.9453125,2.2641602,3.0683594,5.9736328,7.3974609,8.3027344  l0.6452637,0.8905029c-0.020752,0.2208862-0.0473022,0.4328003-0.0705566,0.6498413  c-0.0488892,0.4559937-0.0980225,0.9119263-0.1586304,1.3504047c-0.1561279,1.1306763-0.355896,2.1980591-0.5993042,3.2058716  c-0.0917969,0.3798828-0.1952515,0.7445679-0.3007202,1.1060791c-0.9194336,3.1501465-2.3675537,5.604248-4.6038208,7.1737061  c-0.3303223,0.2317505-0.6877441,0.4333496-1.0529175,0.6265259c-1.4698486,0.7775269-3.2127075,1.2549438-5.3114624,1.3623047  c-2.09375-0.1063232-3.8361816-0.5745239-5.3071289-1.3384399c-0.390625-0.2028809-0.769165-0.4191284-1.1203613-0.6653442  C41.5834351,41.9945107,40.131897,39.5446205,39.2109985,36.4009438z M51.6825562,58.8364906h-2.937561  c-0.2614746,0-0.4865112-0.2398071-0.5372925-0.5724487l-0.7215576-4.7329712  c-0.0669556-0.4390259,0.1921387-0.8479004,0.5372925-0.8479004h4.3807373c0.3450928,0,0.604187,0.4088745,0.5372925,0.8479004  l-0.7216187,4.7329712C52.1691284,58.5966835,51.9440918,58.8364906,51.6825562,58.8364906z M52.1834106,60.7686195  l-3.9545898,0.3314209l0.0303955-0.644165c0.0126343-0.2675171,0.2539063-0.4785156,0.5471802-0.4785156h2.8151245  c0.293335,0,0.5345459,0.2109985,0.5471802,0.4785156L52.1834106,60.7686195z M45.1122437,49.672245v-3.6816406  c1.4614868,0.6011963,3.1600952,0.9766235,5.1396484,1.0766602c1.9475708-0.098999,3.6204834-0.4689331,5.0634766-1.0592651  v3.6642456C52.0048218,50.6907997,48.421814,50.6907997,45.1122437,49.672245z M39.7328491,63.3177528l3.4490967,6.0229454  l-1.8870239,0.2265625l-3.0806274-5.3793945L39.7328491,63.3177528z M42.3178711,78.7722778l-0.3462524,0.0415649  c-1.1020508,0.1318359-2.0986328-0.6533203-2.2299805-1.7509766l-0.4467773-3.7246094  c-0.0639648-0.5322266,0.0834961-1.0576172,0.4140625-1.4785156c0.2182617-0.2775269,0.5028076-0.4799194,0.821106-0.6092529  c0.1139526-0.0463257,0.2319336-0.0812988,0.3544312-0.1062012c0.0542603-0.0110474,0.1062012-0.0288696,0.1618652-0.0355225  l0.2498169-0.0299683l0.8087158-0.0971069l1.5427246-0.1852417l0.0708618,0.8460693l-0.7770996,0.0932007  c-0.1243896,0.0150757-0.2318726,0.0666504-0.3284912,0.1329956c-0.1150513,0.0789795-0.2009888,0.1878052-0.2572632,0.3150024  c-0.0526733,0.1190186-0.0861206,0.2473755-0.069519,0.3859863c0.0454102,0.3818359,0.3691406,0.6611328,0.7436523,0.6611328  c0.0269165,0,0.0542603-0.0018921,0.081604-0.0043945c0.0029297-0.0002441,0.0057983-0.0001831,0.008728-0.0004883  l0.2526855-0.0302734l0.4710693-0.0565186l0.026062,0.3112183l0.0222778,0.2661133l0.0167847,0.2004395l-0.4639893,0.0556641  l-0.0049438,0.0006104l-0.2266846,0.0271606c-0.074646,0.0090332-0.1398315,0.0393066-0.2053833,0.0679321  c-0.2783203,0.1217041-0.4587402,0.3960571-0.4453735,0.7097778c0.0002441,0.0065918-0.0020142,0.0125732-0.0015259,0.019165  c0.0008545,0.0127563-0.0045166,0.024231-0.0029907,0.0371094c0.0454102,0.3818359,0.3691406,0.6611328,0.7436523,0.6611328  c0.0297852,0,0.0600586-0.0019531,0.090332-0.0048828l0.2739868-0.0328369l0.3040771-0.036499l0.064209-0.0076904  l0.0046997,0.0560303l0.0604858,0.7216797l-0.2887573,0.034668l-0.2113647,0.0253296l-0.114563,0.0137329  c-0.4111328,0.0498047-0.7045898,0.4228516-0.6552734,0.8339844c0.0268555,0.2260132,0.1572876,0.4068604,0.3319702,0.524353  c0.1204834,0.0810547,0.2588501,0.1367798,0.4116821,0.1367798c0.0297852,0,0.0600586-0.0019531,0.090332-0.0048828  l0.5613403-0.0673218l0.0709229,0.8468018L42.3178711,78.7722778z M63.6981812,83.9378662  c-0.0253906,0.0302734-0.0810547,0.0810547-0.171875,0.0888672l-16.8955078,1.4150391  c-0.1201172,0.0019531-0.2583008-0.0908203-0.2700195-0.2285156l-1.8466797-22.0458946  c-0.0117188-0.1376953,0.0908203-0.2587891,0.2280273-0.2705078l16.8964844-1.4160156  c0.0068359,0,0.0136719-0.0009766,0.0205078-0.0009766c0.1289063,0,0.2392578,0.0996094,0.25,0.2294922l0.7835083,9.3545494  c-0.4424438-0.2171631-0.913208-0.3796997-1.4153442-0.444397l-5.1835938-0.6669922  c-0.9638672-0.1201172-1.8427734,0.5585938-1.9658203,1.5175781c-0.0136719,0.1103516-0.0175781,0.2207031-0.0107422,0.3291016  l-1.4224854-0.1831665l-0.086792-0.0111694c-0.9584961-0.1269531-1.840332,0.5576172-1.9648438,1.5175781  c-0.0249023,0.1982422-0.0166016,0.3925781,0.0219727,0.578125c-0.5537109,0.2363281-0.9716797,0.7519531-1.0537109,1.390625  c-0.0825195,0.6386719,0.1914063,1.2431641,0.6674805,1.6123047c-0.0844727,0.1699219-0.1420898,0.3564453-0.1679688,0.5537109  c-0.1083984,0.8486328,0.4111328,1.6357422,1.1962891,1.8925781c-0.0390625,0.1132813-0.0668945,0.2314453-0.0820313,0.3525391  c-0.0600586,0.4638672,0.0649414,0.9238281,0.3520508,1.2958984s0.7006836,0.609375,1.1645508,0.6689453l0.3950195,0.0508423  l6.6279297,0.8534546c0.1972656,0.0253906,0.3925781,0.0371094,0.5859375,0.0371094  c0.7190552,0,1.4002075-0.1860962,2.015686-0.4925537c0.2240601,0.0584106,0.4474487,0.1191406,0.6845093,0.1448975  l0.5681763,0.0615845l0.1369019,1.6347046C63.7626343,83.8421631,63.7284546,83.9017334,63.6981812,83.9378662z   M65.3388062,72.7527466v-3.3588257l1.3554688,3.5058594L65.3388062,72.7527466z M48.512146,36.0389442v-2.1025391  c0-0.4140625,0.3359375-0.75,0.75-0.75s0.75,0.3359375,0.75,0.75v1.9326172h1.1533203c0.4140625,0,0.75,0.3359375,0.75,0.75  s-0.3359375,0.75-0.75,0.75h-1.3232422C49.1088257,37.3690224,48.512146,36.7723427,48.512146,36.0389442z M42.0071411,31.8826313  c0-0.8066406,0.6538696-1.4605103,1.4605103-1.4605103s1.4605103,0.6538696,1.4605103,1.4605103  c0,0.8066425-0.6538696,1.4605732-1.4605103,1.4605732S42.0071411,32.6892738,42.0071411,31.8826313z M55.4993896,31.8826313  c0-0.8066406,0.6539307-1.4605103,1.4605103-1.4605103c0.8066406,0,1.4605713,0.6538696,1.4605713,1.4605103  c0,0.8066425-0.6539307,1.4605732-1.4605713,1.4605732C56.1533203,33.3432045,55.4993896,32.6892738,55.4993896,31.8826313z   M46.5424194,40.6590614c0-0.4140625,0.3359375-0.75,0.75-0.75c0.3344727,0,0.6176758,0.21875,0.7143555,0.5209961  c0.2509766,0.1489258,1.0400391,0.371582,2.2070313,0.371582s1.9560547-0.2226563,2.2070313-0.371582  c0.0966797-0.3022461,0.3798828-0.5209961,0.7143555-0.5209961c0.4145508,0,0.7504883,0.3359375,0.7504883,0.75  c0,1.2109375-1.8969727,1.6425781-3.671875,1.6425781S46.5424194,41.8699989,46.5424194,40.6590614z"/></svg>
