<svg xmlns="http://www.w3.org/2000/svg" viewBox="0 0 120 150" x="0px" y="0px"><title>Survey</title><path d="M31.22,29.92l1.3-1.37L30.4,26.32,29.28,27.5H18.72V40h12.5ZM26.91,30,24,33.1l-1.82-1.91-.92,1V30Zm-5.68,4.68.62.65L23.9,37.5H21.22ZM24,37.5l2.06-2.17,2.64-2.78V37.5Z"/><path d="M31.22,45H18.72V57.5h12.5Zm-2.5,10h-7.5V47.5h7.5Z"/><path d="M31.22,62.5H18.72V75h12.5Zm-2.5,10h-7.5V65h7.5Z"/><path d="M18.72,92.5h12.5V80H18.72Zm2.5-10h7.5V90h-7.5Z"/><rect x="37.5" y="32.5" width="47.5" height="2.5"/><rect x="37.5" y="50" width="47.5" height="2.5"/><polygon points="85 69.2 85 67.5 37.5 67.5 37.5 70 84.59 70 85 69.2"/><polygon points="37.5 85 37.5 87.5 76.41 87.5 76.2 86.15 76.8 85 37.5 85"/><polygon points="92.5 107.5 12.5 107.5 12.5 12.5 92.5 12.5 92.5 54.76 95 49.95 95 10 10 10 10 110 95 110 95 71.26 92.5 76.07 92.5 107.5"/><path d="M108.07,35.44A3.6,3.6,0,0,0,103.14,37L77.5,86.36l.94,6.14,5.49-2.64,25.64-49.38A3.77,3.77,0,0,0,108.07,35.44Zm-.67,3.91L82.05,88l-1.7.81-.31-2L105.4,38.15a1.14,1.14,0,0,1,1-.63,1.07,1.07,0,0,1,.51.13A1.28,1.28,0,0,1,107.4,39.34Z"/><text x="0" y="135" fill="#000000" font-size="5px" font-weight="bold" font-family="'Helvetica Neue', Helvetica, Arial-Unicode, Arial, Sans-serif">Created by Jae Deasigner</text><text x="0" y="140" fill="#000000" font-size="5px" font-weight="bold" font-family="'Helvetica Neue', Helvetica, Arial-Unicode, Arial, Sans-serif">from the Noun Project</text></svg>