<?xml version="1.0" encoding="utf-8"?>
<!-- Generator: Adobe Illustrator 21.0.2, SVG Export Plug-In . SVG Version: 6.00 Build 0)  -->
<svg version="1.1" id="Layer_1" xmlns="http://www.w3.org/2000/svg" xmlns:xlink="http://www.w3.org/1999/xlink" x="0px" y="0px"
	 viewBox="0 0 299 59.4" style="enable-background:new 0 0 299 59.4;" xml:space="preserve">
<style type="text/css">
	.st0{fill:#333333;}
</style>
<g>
	<g>
		<path class="st0" d="M68.5,20.2h5.6v1.6h-3.6v3H74v1.6h-3.4v4.9h-2V20.2z"/>
		<path class="st0" d="M78.6,23c1.7,0,3.6,0.9,3.6,4.2c0,3.5-1.9,4.3-3.6,4.3c-1.7,0-3.6-0.8-3.6-4.3C75,23.9,77,23,78.6,23z
			 M78.6,30.1c1.3,0,1.6-1.5,1.6-2.8s-0.3-2.8-1.6-2.8c-1.3,0-1.6,1.5-1.6,2.8S77.4,30.1,78.6,30.1z"/>
		<path class="st0" d="M87.2,23c1.7,0,3.6,0.9,3.6,4.2c0,3.5-1.9,4.3-3.6,4.3c-1.7,0-3.6-0.8-3.6-4.3C83.6,23.9,85.5,23,87.2,23z
			 M87.2,30.1c1.3,0,1.6-1.5,1.6-2.8s-0.3-2.8-1.6-2.8c-1.3,0-1.6,1.5-1.6,2.8S85.9,30.1,87.2,30.1z"/>
		<path class="st0" d="M99.2,19.4V30c0,0.6,0,1.1,0.1,1.4h-1.9c0-0.2-0.1-0.7-0.1-1.3h0c-0.3,0.7-0.9,1.4-2.2,1.4
			c-2,0-2.9-2-2.9-4.2c0-2.7,1.1-4.3,2.8-4.3c1.2,0,1.8,0.7,2.1,1.3h0v-4.9H99.2z M95.6,30c1.2,0,1.6-1.3,1.6-2.8
			c0-1.6-0.4-2.8-1.5-2.8c-1.1,0-1.5,1.1-1.5,2.7C94.2,29.1,94.5,30,95.6,30z"/>
		<path class="st0" d="M105.5,23.6c0.6-0.3,1.3-0.6,2.6-0.6c2.6,0,3.2,1.2,3.2,3.3v3.6c0,0.6,0.1,1.1,0.1,1.5h-1.8
			c-0.1-0.3-0.1-0.7-0.1-1.1h0c-0.5,0.7-1.1,1.2-2.3,1.2c-1.3,0-2.5-0.9-2.5-2.4c0-2.2,1.8-2.8,4.3-2.8h0.4V26
			c0-0.8-0.4-1.6-1.5-1.6c-1,0-1.9,0.5-2.3,0.8L105.5,23.6z M109.4,27.3h-0.2c-1.7,0-2.7,0.4-2.7,1.6c0,0.8,0.5,1.3,1.3,1.3
			c1.2,0,1.6-0.9,1.6-2.4V27.3z"/>
		<path class="st0" d="M113.1,24.5c0-0.5,0-1-0.1-1.4h1.9c0,0.4,0.1,0.8,0.1,1.3h0c0.3-0.5,0.8-1.4,2.2-1.4c1.9,0,2.4,1.4,2.4,3.1
			v5.3h-2v-4.9c0-1.3-0.3-1.8-1.1-1.8c-1,0-1.4,0.9-1.4,1.9v4.8h-2V24.5z"/>
		<path class="st0" d="M128.2,19.4V30c0,0.6,0,1.1,0.1,1.4h-1.9c0-0.2-0.1-0.7-0.1-1.3h0c-0.3,0.7-0.9,1.4-2.2,1.4
			c-2,0-2.9-2-2.9-4.2c0-2.7,1.1-4.3,2.8-4.3c1.2,0,1.8,0.7,2.1,1.3h0v-4.9H128.2z M124.6,30c1.2,0,1.6-1.3,1.6-2.8
			c0-1.6-0.4-2.8-1.5-2.8c-1.1,0-1.5,1.1-1.5,2.7C123.2,29.1,123.5,30,124.6,30z"/>
		<path class="st0" d="M139.2,28.7h-3.8l-0.8,2.7h-2l3.7-11.2h2.2l3.6,11.2h-2.1L139.2,28.7z M138.7,27.1l-1.4-5.2h0l-1.5,5.2H138.7
			z"/>
		<path class="st0" d="M143.3,32.6c0.5,0.3,1.4,0.7,2.4,0.7c1.9,0,2.2-1.3,2.2-2.6V30h0c-0.3,0.6-0.9,1.4-2.2,1.4
			c-1.2,0-2.9-0.8-2.9-4.1c0-2.3,0.8-4.3,3-4.3c1.2,0,1.8,0.7,2.2,1.4h0.1c0-0.4,0-0.8,0.1-1.3h1.8c0,0.4-0.1,0.9-0.1,1.3v6.1
			c0,2.6-0.8,4.4-3.8,4.4c-1.3,0-2.4-0.3-2.8-0.5L143.3,32.6z M146.2,29.9c1.2,0,1.7-0.9,1.7-2.8c0-1.7-0.7-2.7-1.6-2.6
			c-1,0-1.4,1-1.4,2.7C144.9,29.1,145.5,29.9,146.2,29.9z"/>
		<path class="st0" d="M151.7,24.5c0-0.5,0-1-0.1-1.4h1.8c0,0.5,0.1,1,0.1,1.5h0c0.2-0.6,0.9-1.6,2.1-1.6c0.1,0,0.2,0,0.3,0v1.9
			c-0.2,0-0.4-0.1-0.6-0.1c-0.8,0-1.7,0.5-1.7,2v4.5h-2V24.5z"/>
		<path class="st0" d="M157.4,19.6h2v2h-2V19.6z M157.4,23.1h2v8.2h-2V23.1z"/>
		<path class="st0" d="M167,31.2c-0.5,0.2-1.2,0.3-2,0.3c-2.7,0-3.9-1.9-3.9-4.2c0-2.4,1.2-4.3,4-4.3c0.6,0,1.4,0.2,1.7,0.3
			l-0.1,1.6c-0.4-0.2-0.8-0.4-1.4-0.4c-1.5,0-2.2,1-2.2,2.8c0,1.5,0.7,2.7,2.3,2.7c0.5,0,1.1-0.2,1.4-0.4L167,31.2z"/>
		<path class="st0" d="M174.7,30c0,0.5,0,1,0.1,1.4h-1.9c0-0.4-0.1-0.8-0.1-1.3l0,0l0,0c-0.4,0.6-0.9,1.4-2.2,1.4
			c-1.9,0-2.4-1.4-2.4-3.1v-5.3h2v4.9c0,1.3,0.4,1.8,1.2,1.8c1.1,0,1.4-1,1.4-2v-4.7h2V30z"/>
		<path class="st0" d="M176.7,19.4h2v12h-2V19.4z"/>
		<path class="st0" d="M181.4,21.4l2-0.6v2.3h1.6v1.5h-1.6v4.3c0,0.9,0.3,1.1,0.9,1.1c0.4,0,0.6-0.1,0.8-0.2v1.4
			c-0.3,0.1-0.7,0.3-1.3,0.3c-1.5,0-2.3-0.7-2.3-2.4v-4.5h-1.3v-1.5h1.3V21.4z"/>
		<path class="st0" d="M192.8,30c0,0.5,0,1,0.1,1.4H191c0-0.4-0.1-0.8-0.1-1.3l0,0l0,0c-0.4,0.6-0.9,1.4-2.2,1.4
			c-1.9,0-2.4-1.4-2.4-3.1v-5.3h2v4.9c0,1.3,0.4,1.8,1.2,1.8c1.1,0,1.4-1,1.4-2v-4.7h2V30z"/>
		<path class="st0" d="M194.7,24.5c0-0.5,0-1-0.1-1.4h1.8c0,0.5,0.1,1,0.1,1.5h0c0.2-0.6,0.9-1.6,2.1-1.6c0.1,0,0.2,0,0.3,0v1.9
			c-0.2,0-0.4-0.1-0.6-0.1c-0.8,0-1.7,0.5-1.7,2v4.5h-2V24.5z"/>
		<path class="st0" d="M206.1,31c-0.4,0.2-1.3,0.5-2.5,0.5c-2.7,0-3.8-1.9-3.8-4.1c0-2.5,1.3-4.4,3.4-4.4c1.8,0,3.3,1,3.3,4.4v0.4
			h-4.8c0,1.4,0.6,2.3,2.1,2.3c1.2,0,1.8-0.4,2.2-0.6L206.1,31z M204.6,26.5c0-1.5-0.5-2.2-1.4-2.2c-1,0-1.5,1.1-1.5,2.2H204.6z"/>
		<path class="st0" d="M216.5,20c2.3,0,4.4,1.7,4.4,5.7c0,4-2.1,5.7-4.4,5.7c-2.3,0-4.4-1.7-4.4-5.7C212,21.8,214.2,20,216.5,20z
			 M216.5,30c1.3,0,2.3-1.1,2.3-4.2s-1-4.2-2.3-4.2c-1.3,0-2.3,1.1-2.3,4.2S215.2,30,216.5,30z"/>
		<path class="st0" d="M222.6,24.5c0-0.5,0-1-0.1-1.4h1.8c0,0.5,0.1,1,0.1,1.5h0c0.2-0.6,0.9-1.6,2.1-1.6c0.1,0,0.2,0,0.3,0v1.9
			c-0.2,0-0.4-0.1-0.6-0.1c-0.8,0-1.7,0.5-1.7,2v4.5h-2V24.5z"/>
		<path class="st0" d="M228.3,32.6c0.5,0.3,1.4,0.7,2.4,0.7c1.9,0,2.2-1.3,2.2-2.6V30h0c-0.3,0.6-0.9,1.4-2.2,1.4
			c-1.2,0-2.9-0.8-2.9-4.1c0-2.3,0.8-4.3,3-4.3c1.2,0,1.8,0.7,2.2,1.4h0.1c0-0.4,0-0.8,0.1-1.3h1.8c0,0.4-0.1,0.9-0.1,1.3v6.1
			c0,2.6-0.8,4.4-3.8,4.4c-1.3,0-2.4-0.3-2.8-0.5L228.3,32.6z M231.1,29.9c1.2,0,1.7-0.9,1.7-2.8c0-1.7-0.7-2.7-1.6-2.6
			c-1,0-1.4,1-1.4,2.7C229.9,29.1,230.5,29.9,231.1,29.9z"/>
		<path class="st0" d="M237,23.6c0.6-0.3,1.3-0.6,2.6-0.6c2.6,0,3.1,1.2,3.1,3.3v3.6c0,0.6,0.1,1.1,0.1,1.5h-1.8
			c-0.1-0.3-0.1-0.7-0.1-1.1h0c-0.5,0.7-1.1,1.2-2.3,1.2c-1.3,0-2.5-0.9-2.5-2.4c0-2.2,1.8-2.8,4.3-2.8h0.4V26
			c0-0.8-0.4-1.6-1.5-1.6c-1,0-1.9,0.5-2.3,0.8L237,23.6z M240.9,27.3h-0.2c-1.7,0-2.7,0.4-2.7,1.6c0,0.8,0.5,1.3,1.3,1.3
			c1.2,0,1.6-0.9,1.6-2.4V27.3z"/>
		<path class="st0" d="M244.6,24.5c0-0.5,0-1-0.1-1.4h1.9c0,0.4,0.1,0.8,0.1,1.3h0c0.3-0.5,0.8-1.4,2.2-1.4c1.9,0,2.4,1.4,2.4,3.1
			v5.3h-2v-4.9c0-1.3-0.3-1.8-1.1-1.8c-1,0-1.4,0.9-1.4,1.9v4.8h-2V24.5z"/>
		<path class="st0" d="M253.1,19.6h2v2h-2V19.6z M253.1,23.1h2v8.2h-2V23.1z"/>
		<path class="st0" d="M256.6,29.6l3.5-5h-3.4v-1.5h5.4v1.7l-3.5,5h3.6v1.5h-5.6V29.6z"/>
		<path class="st0" d="M264,23.6c0.6-0.3,1.3-0.6,2.6-0.6c2.6,0,3.2,1.2,3.2,3.3v3.6c0,0.6,0.1,1.1,0.1,1.5H268
			c-0.1-0.3-0.1-0.7-0.1-1.1h0c-0.5,0.7-1.1,1.2-2.3,1.2c-1.3,0-2.5-0.9-2.5-2.4c0-2.2,1.8-2.8,4.3-2.8h0.4V26
			c0-0.8-0.4-1.6-1.5-1.6c-1,0-1.9,0.5-2.3,0.8L264,23.6z M267.9,27.3h-0.2c-1.7,0-2.7,0.4-2.7,1.6c0,0.8,0.5,1.3,1.3,1.3
			c1.2,0,1.6-0.9,1.6-2.4V27.3z"/>
		<path class="st0" d="M272.3,21.4l2-0.6v2.3h1.6v1.5h-1.6v4.3c0,0.9,0.3,1.1,0.9,1.1c0.4,0,0.6-0.1,0.8-0.2v1.4
			c-0.3,0.1-0.7,0.3-1.3,0.3c-1.5,0-2.3-0.7-2.3-2.4v-4.5H271v-1.5h1.3V21.4z"/>
		<path class="st0" d="M277.3,19.6h2v2h-2V19.6z M277.4,23.1h2v8.2h-2V23.1z"/>
		<path class="st0" d="M284.7,23c1.7,0,3.6,0.9,3.6,4.2c0,3.5-1.9,4.3-3.6,4.3c-1.7,0-3.6-0.8-3.6-4.3C281.1,23.9,283.1,23,284.7,23
			z M284.7,30.1c1.3,0,1.6-1.5,1.6-2.8s-0.3-2.8-1.6-2.8c-1.3,0-1.6,1.5-1.6,2.8S283.5,30.1,284.7,30.1z"/>
		<path class="st0" d="M289.9,24.5c0-0.5,0-1-0.1-1.4h1.9c0,0.4,0.1,0.8,0.1,1.3h0c0.3-0.5,0.8-1.4,2.2-1.4c1.9,0,2.4,1.4,2.4,3.1
			v5.3h-2v-4.9c0-1.3-0.3-1.8-1.1-1.8c-1,0-1.4,0.9-1.4,1.9v4.8h-2V24.5z"/>
		<path class="st0" d="M71.6,41.1c1.7,0,3.6,0.9,3.6,4.2c0,3.5-1.9,4.3-3.6,4.3c-1.7,0-3.6-0.8-3.6-4.3C68,41.9,70,41.1,71.6,41.1z
			 M71.6,48.1c1.3,0,1.6-1.5,1.6-2.8s-0.3-2.8-1.6-2.8c-1.3,0-1.6,1.5-1.6,2.8S70.4,48.1,71.6,48.1z"/>
		<path class="st0" d="M77.4,42.6h-1.4v-1.5h1.4v-1.7c0-1.2,0.6-2.3,2.4-2.3c0.5,0,1,0.1,1.4,0.2l-0.1,1.4c-0.2-0.1-0.5-0.1-0.8-0.1
			c-0.6,0-0.9,0.4-0.9,1v1.4h1.5v1.5h-1.5v6.8h-2V42.6z"/>
		<path class="st0" d="M87,39.5l2-0.6v2.3h1.6v1.5H89v4.3c0,0.9,0.3,1.1,0.9,1.1c0.4,0,0.6-0.1,0.8-0.2v1.4
			c-0.3,0.1-0.7,0.3-1.3,0.3c-1.5,0-2.3-0.7-2.3-2.4v-4.5h-1.3v-1.5H87V39.5z"/>
		<path class="st0" d="M91.9,37.4h2v4.8h0c0.4-0.5,0.8-1.2,2-1.2c1.9,0,2.4,1.4,2.4,3.1v5.3h-2v-4.9c0-1.3-0.3-1.8-1.1-1.8
			c-1,0-1.4,0.9-1.4,1.9v4.8h-2V37.4z"/>
		<path class="st0" d="M106.2,49c-0.4,0.2-1.3,0.5-2.5,0.5c-2.7,0-3.8-1.9-3.8-4.1c0-2.5,1.3-4.4,3.4-4.4c1.8,0,3.3,1,3.3,4.4v0.4
			h-4.8c0,1.4,0.6,2.3,2.1,2.3c1.2,0,1.8-0.4,2.2-0.6L106.2,49z M104.7,44.6c0-1.5-0.5-2.2-1.4-2.2c-1,0-1.5,1.1-1.5,2.2H104.7z"/>
		<path class="st0" d="M114.6,38.3v7.2c0,1.9,0.6,2.5,1.8,2.5c1.2,0,1.7-0.6,1.7-2.5v-7.2h2v7.2c0,2.9-1.7,4.1-3.8,4.1
			c-2.1,0-3.8-1.2-3.8-4.1v-7.2H114.6z"/>
		<path class="st0" d="M122.1,42.6c0-0.5,0-1-0.1-1.4h1.9c0,0.4,0.1,0.8,0.1,1.3h0c0.3-0.5,0.8-1.4,2.2-1.4c1.9,0,2.4,1.4,2.4,3.1
			v5.3h-2v-4.9c0-1.3-0.3-1.8-1.1-1.8c-1,0-1.4,0.9-1.4,1.9v4.8h-2V42.6z"/>
		<path class="st0" d="M130.6,37.7h2v2h-2V37.7z M130.6,41.2h2v8.2h-2V41.2z"/>
		<path class="st0" d="M135.3,39.5l2-0.6v2.3h1.6v1.5h-1.6v4.3c0,0.9,0.3,1.1,0.9,1.1c0.4,0,0.6-0.1,0.8-0.2v1.4
			c-0.3,0.1-0.7,0.3-1.3,0.3c-1.5,0-2.3-0.7-2.3-2.4v-4.5H134v-1.5h1.3V39.5z"/>
		<path class="st0" d="M146.2,49c-0.4,0.2-1.3,0.5-2.5,0.5c-2.7,0-3.8-1.9-3.8-4.1c0-2.5,1.3-4.4,3.4-4.4c1.8,0,3.3,1,3.3,4.4v0.4
			h-4.8c0,1.4,0.6,2.3,2.1,2.3c1.2,0,1.8-0.4,2.2-0.6L146.2,49z M144.7,44.6c0-1.5-0.5-2.2-1.4-2.2c-1,0-1.5,1.1-1.5,2.2H144.7z"/>
		<path class="st0" d="M155,37.4V48c0,0.6,0,1.1,0.1,1.4h-1.9c0-0.2-0.1-0.7-0.1-1.3h0c-0.3,0.7-0.9,1.4-2.2,1.4c-2,0-2.9-2-2.9-4.2
			c0-2.7,1.1-4.3,2.8-4.3c1.2,0,1.8,0.7,2.1,1.3h0v-4.9H155z M151.4,48.1c1.2,0,1.6-1.3,1.6-2.8c0-1.6-0.4-2.8-1.5-2.8
			c-1.1,0-1.5,1.1-1.5,2.7C149.9,47.1,150.3,48.1,151.4,48.1z"/>
		<path class="st0" d="M161.2,38.3h2.4l3.7,8.8h0v-8.8h1.9v11.2h-2.4l-3.7-8.7h0v8.7h-1.9V38.3z"/>
		<path class="st0" d="M171.7,41.7c0.6-0.3,1.3-0.6,2.6-0.6c2.6,0,3.2,1.2,3.2,3.3V48c0,0.6,0.1,1.1,0.1,1.5h-1.8
			c-0.1-0.3-0.1-0.7-0.1-1.1h0c-0.5,0.7-1.1,1.2-2.3,1.2c-1.3,0-2.5-0.9-2.5-2.4c0-2.2,1.8-2.8,4.3-2.8h0.4V44
			c0-0.8-0.4-1.6-1.5-1.6c-1,0-1.9,0.5-2.3,0.8L171.7,41.7z M175.6,45.4h-0.2c-1.7,0-2.7,0.4-2.7,1.6c0,0.8,0.5,1.3,1.3,1.3
			c1.2,0,1.6-0.9,1.6-2.4V45.4z"/>
		<path class="st0" d="M180,39.5l2-0.6v2.3h1.6v1.5H182v4.3c0,0.9,0.3,1.1,0.9,1.1c0.4,0,0.6-0.1,0.8-0.2v1.4
			c-0.3,0.1-0.7,0.3-1.3,0.3c-1.5,0-2.3-0.7-2.3-2.4v-4.5h-1.3v-1.5h1.3V39.5z"/>
		<path class="st0" d="M185.1,37.7h2v2h-2V37.7z M185.1,41.2h2v8.2h-2V41.2z"/>
		<path class="st0" d="M192.5,41.1c1.7,0,3.6,0.9,3.6,4.2c0,3.5-1.9,4.3-3.6,4.3c-1.7,0-3.6-0.8-3.6-4.3
			C188.8,41.9,190.8,41.1,192.5,41.1z M192.5,48.1c1.3,0,1.6-1.5,1.6-2.8s-0.3-2.8-1.6-2.8c-1.3,0-1.6,1.5-1.6,2.8
			S191.2,48.1,192.5,48.1z"/>
		<path class="st0" d="M197.6,42.6c0-0.5,0-1-0.1-1.4h1.9c0,0.4,0.1,0.8,0.1,1.3h0c0.3-0.5,0.8-1.4,2.2-1.4c1.9,0,2.4,1.4,2.4,3.1
			v5.3h-2v-4.9c0-1.3-0.3-1.8-1.1-1.8c-1,0-1.4,0.9-1.4,1.9v4.8h-2V42.6z"/>
		<path class="st0" d="M205.7,47.5c0.3,0.1,1.1,0.5,2.1,0.5c0.7,0,1.3-0.2,1.3-0.8c0-0.3-0.2-0.6-0.9-1l-0.8-0.5
			c-0.8-0.5-1.7-1-1.7-2.3c0-1.1,1.1-2.3,2.8-2.3c1.1,0,1.9,0.3,2.1,0.3l-0.1,1.5c-0.5-0.2-1-0.4-1.7-0.4c-0.8,0-1.1,0.3-1.1,0.8
			c0,0.4,0.4,0.7,0.9,1.1l1,0.6c1,0.7,1.5,1.1,1.5,2.1c0,1.5-1.3,2.4-3.1,2.4c-1,0-1.9-0.2-2.3-0.4L205.7,47.5z"/>
	</g>
</g>
<g>
	<path class="st0" d="M29.3,58C13.7,58,1,45.3,1,29.7C1,14.1,13.7,1.3,29.3,1.3c15.6,0,28.3,12.7,28.3,28.3
		C57.6,45.3,44.9,58,29.3,58z M29.2,18.5c0,0,2.3,2.4,2.3,4.4c0,2.1-1.6,2.6-2.2,2.6c0,0-0.1,0-0.1,0h0c0,0-0.1,0-0.1,0
		c-0.6,0-2.2-0.5-2.2-2.6C26.9,20.9,29.2,18.5,29.2,18.5z M7.8,31.3h2.6v-4.8h4.3v-2h-4.3v-2.7h4.5v-2H7.8V31.3z M31.5,18.8h2.7
		L31.1,7.4h-3.5l-3.3,11.4h2.5l0.7-2.6h3.3L31.5,18.8z M30.4,14.4H28l1.1-5h0.2L30.4,14.4z M42.4,25.5c0,3.4,1.6,5.9,4.8,5.9
		c3.3,0,4.9-2.6,4.9-5.9c0-3.4-1.6-5.9-4.9-5.9C43.9,19.6,42.4,22.2,42.4,25.5z M45.1,25.5c0-2.2,0.5-4,2.1-4c1.6,0,2.1,1.8,2.1,4
		s-0.6,4-2.1,4C45.7,29.5,45.1,27.7,45.1,25.5z M28.1,54.9c0.2-1.1,0.3-2.9,0.3-5c0-0.6,0-0.2,0-0.4c0-2.9-0.1-3.9-2.1-4.6
		c-3-1-4.3-4.4-3.6-8.6L12.7,10.8c-5.2,4.6-8.6,11.4-8.6,18.9C4.1,43.2,14.8,54.2,28.1,54.9z M29.3,38.5c-4-0.9-5.5-4.6-5.5-7.8
		L14.9,9c-0.6,0.4-1.1,0.8-1.7,1.3c1.9,4.6,10.7,25.3,10.7,25.3c1.5,3.7,4.4,2.5,5,5.6c0.2,0.7,0.2,1.1,0.2,1.1h0.3
		c0,0,0-0.3,0.2-1.1c0.7-3.1,3.5-1.8,5-5.6c0,0,8.7-20.7,10.7-25.3c-0.5-0.4-1.1-0.9-1.7-1.3l-8.8,21.7
		C34.8,33.9,33.3,37.6,29.3,38.5L29.3,38.5z M29.3,32c-1.7-0.4-3.8-2.1-4.1-4.2c-0.1-0.8-0.2-1.1-0.1-2.7L17.4,7.5
		c-0.6,0.3-1.2,0.7-1.8,1.1c2.3,5.2,9.4,21.1,9.4,21.1c1.1,2.4,3.1,2.4,3.8,3.8c0.4,0.8,0.4,1.6,0.5,1.6h0.3c0-0.1,0-0.8,0.4-1.6
		c0.7-1.4,2.6-1.5,3.8-3.8c0,0,7.1-15.9,9.4-21.1c-0.6-0.4-1.2-0.8-1.8-1.1L33.5,25c0.1,1.6,0,1.9-0.1,2.7
		C33.1,29.9,31,31.6,29.3,32L29.3,32z M29.4,29l0.1-1c0.5-2.2,2.1-1.9,3.2-4.1c0,0,0,0,0,0c0-0.1,5.5-11.8,7.8-16.7
		c-3.4-1.7-7.2-2.7-11.2-2.7c-4,0-7.9,1-11.2,2.7c2.3,4.9,7.8,16.7,7.8,16.7c0,0,0,0,0,0c1.1,2.2,2.7,1.9,3.2,4.1l0.1,1H29.4z
		 M54.5,29.7c0-7.5-3.3-14.3-8.6-18.9L35.9,36.4c0.7,4.2-0.6,7.6-3.6,8.6c-2,0.6-2.1,1.6-2.1,4.6c0,0.2,0-0.2,0,0.4
		c0,2.1,0.2,3.9,0.3,5C43.9,54.2,54.5,43.2,54.5,29.7z M12.1,37.1c0,0,0.4,0.8,0.7,1.4c0.3,0.6,0.7,1.2,0.7,1.2l-0.7,0.4
		c0,0-0.5-0.8-1-1.8c-0.1,0.1-0.9,0.5-1.1,0.5c0.1,0.1,0.9,1.7,0.9,1.7L11,40.9c0,0-0.8-1.6-0.9-1.7c-0.1,0.1-1.9,1-1.9,1l-0.4-0.8
		L12.1,37.1L12.1,37.1z M14.7,41.4l0.6,0.7l-3.7,3.1L11,44.5L14.7,41.4L14.7,41.4z M18.1,44.7l0.7,0.5l-0.9,5.1l-0.8-0.5
		c0,0,0.2-1,0.2-1.1c0,0-0.5-0.3-1-0.7c-0.5-0.3-0.9-0.7-1-0.8c-0.1,0.1-1,0.6-1,0.6l-0.7-0.6L18.1,44.7L18.1,44.7z M16,46.8
		c0.1,0.1,0.4,0.3,0.7,0.6c0.3,0.2,0.7,0.4,0.8,0.5c0-0.2,0.4-1.9,0.5-2.2C17.7,45.8,16.2,46.7,16,46.8z M21.2,46.5
		c0,0,0.8,0.4,1.9,0.8c0.8,0.3,1.4,0.5,2,0.6l-0.2,0.7c0,0-0.6-0.1-1.6-0.4C23.2,48.4,22,52,22,52l-0.9-0.3c0,0,1.3-3.6,1.3-3.8
		c-0.9-0.3-1.5-0.7-1.5-0.7L21.2,46.5z M36.3,47.5c0.3,0.2,0.5,0.5,0.7,0.9c0.1,0.2,0.1,0.3,0.1,0.5c0,0.7-0.5,1.2-1.3,1.5
		c0,0-0.4,0.1-0.6,0.2c0,0.2,0.6,1.8,0.6,1.8l-0.8,0.2l-1.4-4.6l1.3-0.4C35.4,47.3,35.9,47.3,36.3,47.5z M34.5,48.4
		c0,0.1,0.4,1.3,0.4,1.4c0.2-0.1,0.6-0.2,0.6-0.2c0.1,0,0.4-0.2,0.6-0.4c0-0.1,0.1-0.2,0.1-0.3c0-0.1,0-0.2,0-0.2
		c-0.1-0.2-0.2-0.3-0.3-0.4c-0.3-0.1-0.6-0.1-0.8,0C35,48.2,34.7,48.3,34.5,48.4z M39.2,45.5l4.2,3l-0.7,0.5c0,0-0.8-0.6-0.9-0.7
		c0,0-0.5,0.3-0.9,0.6c-0.4,0.3-0.9,0.5-1,0.5c0,0.1,0.2,1.1,0.2,1.1L39.2,51l-0.7-5.1L39.2,45.5z M39.7,48.7
		c0.1-0.1,0.4-0.2,0.8-0.4c0.3-0.2,0.5-0.3,0.6-0.4c-0.2-0.1-1.5-1.1-1.7-1.3C39.4,46.9,39.6,48.5,39.7,48.7z M43.9,41.3l3.6,3.2
		l-0.7,0.8c0,0-3.4-1-3.9-1.1c0.4,0.4,2.5,2.6,2.5,2.6l-0.6,0.6l-3.4-3.5l0.8-0.7c0,0,3.3,1,3.8,1.1c-0.4-0.4-2.6-2.3-2.6-2.3
		L43.9,41.3z M45.6,38.9l4.2,2.4L49.4,42l-4.2-2.4L45.6,38.9z M47.4,34.8l0.7,0.4l-0.1,0.1c-0.2,0.3-0.3,0.4-0.5,0.8
		c-0.1,0.1-0.1,0.4,0,0.6c0.1,0.1,0.1,0.2,0.3,0.2c0.3,0.1,0.6-0.2,0.9-0.5c0.4-0.5,1-1,1.9-0.7c0.9,0.3,1.2,1.1,0.8,2.2
		c-0.1,0.3-0.3,0.6-0.5,0.9l0,0.1l-0.7-0.3l0.1-0.1c0.1-0.1,0.4-0.5,0.5-0.8c0.1-0.3,0.1-0.9-0.4-1c-0.4-0.1-0.7,0.2-1.1,0.5
		c-0.4,0.4-0.9,1-1.7,0.7c-0.4-0.1-0.6-0.3-0.8-0.6c-0.2-0.4-0.2-0.8,0-1.3C47,35.5,47.2,35.2,47.4,34.8L47.4,34.8z"/>
</g>
</svg>
