<svg xmlns="http://www.w3.org/2000/svg" data-name="Layer 1" width="100" height="125"><rect id="backgroundrect" width="100%" height="100%" x="0" y="0" fill="none" stroke="none"/><title>10</title><g class="currentLayer" style=""><title>Layer 1</title><g data-name="Group" id="svg_1" class="" fill="#ffffff" fill-opacity="1"><path data-name="Compound Path" d="M69.5,19.1C69.5,13.2,57.4,8.5,42,8.5S14.6,13.2,14.6,19.1V73.6c0,5.9,12.1,10.5,27.4,10.5a83.3,83.3,0,0,0,8.8-.5,29.8,29.8,0,0,0,9.4,6.5l3.1,1.4L67,89.9C78.8,85,85.4,76,85.4,64.6V50.7L69.5,42.2ZM42,10.5c12.1,0,25.5,3.6,25.5,8.6S54.1,27.7,42,27.7s-25.4-3.5-25.4-8.6S30,10.5,42,10.5ZM16.6,41.3c4,3.8,13.8,6.5,25.4,6.5l5.9-.2-5.8,3.1V63.4h0c0,.2.1.3.1.5H42c-12,0-25.4-3.5-25.4-8.5V41.3ZM42,82.1c-12,0-25.4-3.5-25.4-8.5V59.4c4,3.8,13.8,6.5,25.4,6.5h.3a30.7,30.7,0,0,0,6.8,15.9C46.8,82,44.4,82.1,42,82.1ZM83.4,64.6c0,10.5-6.1,18.9-17.2,23.5l-2.8,1.2L61,88.2A27.8,27.8,0,0,1,44.1,62.6V51.9L63.5,41.3,83.4,51.9ZM65.7,40.2,63.5,39l-11,6a69.9,69.9,0,0,1-10.5.8c-12,0-25.4-3.5-25.4-8.6V23.1c4,3.9,13.8,6.6,25.4,6.6S63.4,27,67.5,23.1V37.2A4.1,4.1,0,0,1,65.7,40.2Z" id="svg_2" fill="#ffffff" fill-opacity="1"/><polygon data-name="Path" points="55.8 63.4 54.4 64.9 61.5 71.8 73.9 59.6 72.5 58.2 61.5 69 55.8 63.4" id="svg_3" fill="#ffffff" fill-opacity="1"/></g></g></svg>