<svg xmlns:dc="http://purl.org/dc/elements/1.1/" xmlns:cc="http://creativecommons.org/ns#" xmlns:rdf="http://www.w3.org/1999/02/22-rdf-syntax-ns#" xmlns:svg="http://www.w3.org/2000/svg" xmlns="http://www.w3.org/2000/svg" xmlns:sodipodi="http://sodipodi.sourceforge.net/DTD/sodipodi-0.dtd" xmlns:inkscape="http://www.inkscape.org/namespaces/inkscape" version="1.1" x="0px" y="0px" viewBox="0 0 100 125"><g transform="translate(0,-952.36218)"><path d="m 81.172301,954.36972 c -0.1923,0.035 -0.3722,0.1359 -0.5034,0.2818 -8.5867,9.09 -15.3391,18.6891 -21.2535,28.8256 -5.4002,-2.3378 -11.7105,-1.9565 -16.5274,-0.6483 -19.3658,5.2639 -30.8221,27.00758 -25.644,46.46508 4.6674,17.5378 17.3338,22.9586 26.3991,20.5132 3.0628,-0.8265 4.4905,-3.0336 4.8938,-5.4383 1.0053,-3.9357 -1.5217,-10.2288 0.867,-12.8207 0.9633,-1.0811 3.0175,-1.713 7.4107,-0.9581 3.2647,1.2316 6.2006,3.55 9.6759,3.5504 8.5247,-4e-4 11.5247,-3.0004 14.2903,-7.6366 6.808,-13.7093 2.0001,-26.26 -6.7955,-34.43308 -1.7291,-1.6066 -3.6139,-3.0432 -5.5931,-4.3112 5.5847,-10.0103 10.3182,-20.4671 13.7589,-32.2352 0.1735,-0.576 -0.387,-1.2375 -0.9788,-1.1552 z m -2.0694,4.7339 c -5.7973,17.7482 -14.6167,32.674 -24.833,47.95828 l -3.9711,-2.3106 c 8.0293,-16.55868 16.4483,-31.71418 28.8041,-45.64768 z m -20.6383,26.0079 c -4.5981,8.0435 -8.6885,16.43498 -12.808,25.16258 -0.6761,-0.01 -1.3411,0.1105 -1.9576,0.3381 -1.6438,0.6067 -2.9326,2.0453 -3.6075,4.0013 -0.8616,2.4974 -0.7739,4.6411 -1.4541,6.8753 -0.3686,1.2105 -0.9607,2.5037 -2.0415,3.9449 -3.5807,-1.2938 -6.5807,-0.2938 -8.4455,1.7751 -2.1352,2.9312 -0.3023,5.5734 1.4263,7.3544 2.628,2.541 6.2091,2.5514 8.9768,0.5918 1.9169,-1.7979 2.4214,-3.4281 1.8177,-5.6637 3.7257,-1.5607 7.8671,-3.9027 9.7319,-7.1571 0.8329,-1.4536 1.5512,-3.4896 1.6219,-5.551 0.029,-0.8316 -0.058,-1.6787 -0.3076,-2.4796 0.1459,-0.068 0.2729,-0.1763 0.3636,-0.31 5.6534,-8.2655 10.9917,-16.33228 15.7443,-24.68368 1.8709,1.1936 3.6289,2.5726 5.2575,4.0857 8.3677,7.77558 12.8523,19.25268 6.404,32.26348 -3.1716,5.4809 -7.1716,6.4809 -12.4165,6.7061 -3.5772,-0.3465 -6.3322,-2.7567 -9.5641,-3.5504 -3.191,-0.6749 -7.2357,-0.5011 -9.1446,1.5216 -3.0464,3.8036 -0.5939,9.2452 -1.2864,13.7506 -0.3324,1.9819 -1.1135,3.3005 -3.6075,3.9731 -8.0329,2.1673 -19.7054,-2.3666 -24.1899,-19.217 -4.9252,-18.5075 6.0441,-39.33958 24.4136,-44.29538 5.6238,-1.4084 10.6238,-1.4084 15.0732,0.5638 z m -21.617,8.2278 c -0.6583,2.2798 -2.3461,5.2188 -0.5873,7.07258 2.33,1.5182 5.7449,1.4755 8.1379,0.5635 1.4423,-0.5726 2.6159,-1.74938 3.4117,-3.60668 2.2053,-4.2293 0.2053,-8.2293 -3.2999,-8.4815 -3.224,-0.4199 -6.8286,1.5527 -7.6624,4.4521 z m 7.215,-2.7337 c 2.9526,0.5338 3.9526,2.5338 2.0974,6.0579 -0.6618,1.5446 -1.4139,2.216 -2.433,2.6206 -2.2664,0.5175 -4.1372,0.78508 -6.2082,-0.1691 -0.762,-1.6684 0.6202,-3.6922 1.0626,-5.2973 1.0798,-2.177 3.2795,-3.4432 5.4812,-3.2121 z m 26.1474,9.86258 c -0.2031,0 -0.3907,0.029 -0.5873,0.056 -1.5727,0.2183 -2.8252,1.156 -3.7753,2.1134 -0.892,0.8988 -2.1535,2.224 -3.0202,3.6631 -0.4334,0.7196 -0.7632,1.4828 -0.8669,2.2824 -0.1037,0.7996 0.09,1.6968 0.7271,2.3387 1.4237,1.4345 3.3235,2.2979 5.1735,2.5642 1.85,0.2663 3.7194,-0.057 4.9498,-1.2962 1.3183,-1.3283 2.5262,-2.8174 3.0762,-4.4803 0.55,-1.6627 0.3019,-3.584 -1.1745,-5.0719 -1.5038,-1.5153 -3.0811,-2.1775 -4.5024,-2.1698 z m 0.056,1.8035 c 0.905,-0.018 1.9233,0.3601 3.188,1.6343 1.0546,1.0627 1.1262,2.034 0.7271,3.2404 -0.3991,1.2065 -1.4159,2.5538 -2.6287,3.7758 -0.668,0.673 -1.9677,1.0008 -3.4397,0.7891 -1.4721,-0.2119 -3.0595,-0.9414 -4.1668,-2.0571 -0.2369,-0.2386 -0.2763,-0.4398 -0.2238,-0.8453 0.053,-0.4055 0.2857,-0.956 0.6432,-1.5498 0.7151,-1.1873 1.8851,-2.4911 2.7406,-3.3531 0.7973,-0.8034 1.7723,-1.4676 2.7686,-1.6061 0.1245,-0.017 0.2622,-0.026 0.3915,-0.028 z m -42.6189,3.6631 c -1.4202,0.8261 -2.6378,2.0637 -3.0482,3.6067 -0.6758,2.276 -2.3806,5.1838 -0.6152,7.0444 2.3275,1.5451 5.735,1.5076 8.1379,0.5917 1.4423,-0.5725 2.6439,-1.7494 3.4397,-3.6067 1.6099,-3.757 -0.2779,-7.6938 -3.2999,-8.5096 -1.6562,-0.4036 -3.2182,0.1802 -4.6143,0.8735 z m 21.8688,0.4226 3.7753,2.1979 c -0.8432,1.2525 -1.6842,2.487 -2.5449,3.7477 l -3.188,-1.8598 c 0.6518,-1.3784 1.3039,-2.7265 1.9576,-4.0858 z m -17.7299,0.4504 c 1.7521,0.4732 3.3531,3.1647 2.1253,6.0302 -0.6618,1.5444 -1.4138,2.2441 -2.4329,2.6485 -2.2608,0.5074 -4.1502,0.8004 -6.2083,-0.1689 -0.8124,-1.6778 0.5896,-3.7105 1.0347,-5.3257 0.2293,-0.8621 1.1259,-1.8612 2.2372,-2.5078 1.1361,-0.6927 2.1025,-0.7387 3.244,-0.6763 z m 34.7047,10.9052 c -2.9548,0 -5.3693,2.4329 -5.3693,5.4101 0,2.9773 2.4145,5.4102 5.3693,5.4102 2.9548,0 5.3693,-2.4329 5.3693,-5.4102 0,-2.9772 -2.4145,-5.4101 -5.3693,-5.4101 z m 0,1.8033 c 1.9875,0 3.5795,1.6042 3.5795,3.6068 0,2.0026 -1.592,3.6067 -3.5795,3.6067 -1.9875,0 -3.5795,-1.6041 -3.5795,-3.6067 0,-2.0026 1.592,-3.6068 3.5795,-3.6068 z m -31.1532,7.3826 c -0.7426,0.806 -1.6168,1.6654 -2.7126,2.5924 -0.6211,0.6643 -0.5173,0.9558 -0.1678,1.7188 0.6431,0.4672 1.4772,0.2542 2.0695,0.1686 1.0533,-0.1947 2.51,-0.6101 4.1388,-1.2116 0.558,1.3859 -0.2457,2.8257 -1.1745,3.5222 -2.4525,1.4346 -4.7895,1.4364 -6.6557,-0.3945 -1.2449,-1.669 -2.82,-3.1548 -1.3424,-4.9029 2.5224,-2.252 4.5224,-2.252 5.8447,-1.493 z" style="text-indent:0;text-transform:none;direction:ltr;block-progression:tb;baseline-shift:baseline;color:#000000;enable-background:accumulate;" fill="#000000" fill-opacity="1" stroke="none" marker="none" visibility="visible" display="inline" overflow="visible"/></g><text x="0" y="115" fill="#000000" font-size="5px" font-weight="bold" font-family="'Helvetica Neue', Helvetica, Arial-Unicode, Arial, Sans-serif">Created by AFY Studio</text><text x="0" y="120" fill="#000000" font-size="5px" font-weight="bold" font-family="'Helvetica Neue', Helvetica, Arial-Unicode, Arial, Sans-serif">from the Noun Project</text></svg>