<svg xmlns="http://www.w3.org/2000/svg" xmlns:xlink="http://www.w3.org/1999/xlink" version="1.1" x="0px" y="0px" viewBox="0 0 100 125" enable-background="new 0 0 100 100" xml:space="preserve"><path d="M17.938,73.932c0,0.609-0.542,1.097-1.143,0.997c-2.08-0.346-3.893-1.532-5.045-3.259c-1.39,2.07-3.71,3.37-6.32,3.37  c-0.55,0-1-0.45-1-1c0-0.56,0.45-1,1-1c2.48,0,4.63-1.58,5.36-3.93c0.12-0.39,0.52-0.68,0.91-0.7c0.5-0.01,0.9,0.37,1,0.7  c0.669,2.025,2.353,3.493,4.411,3.842C17.589,73.033,17.938,73.447,17.938,73.932z M95.19,74.04c0,0.55-0.45,1-1,1  c-2.61,0-4.94-1.3-6.32-3.37c-1.38,2.07-3.71,3.37-6.31,3.37c-2.73,0-5.15-1.44-6.5-3.68c-1.16,1.92-3.11,3.26-5.36,3.6  c-0.6,0.09-1.14-0.4-1.14-1c0-0.49,0.36-0.91,0.85-0.98c2.11-0.32,3.86-1.79,4.51-3.87c0.15-0.5,0.63-0.83,1.14-0.83  c0.5,0,0.99,0.34,1.14,0.83c0.73,2.35,2.88,3.93,5.36,3.93s4.63-1.58,5.36-3.93c0.12-0.39,0.53-0.69,0.93-0.7  c0.42-0.01,0.85,0.29,0.98,0.7c0.24,0.78,0.65,1.46,1.17,2.05V32.89c-4.81,0.93-17.39,7.31-22.93,10.29  c-0.03,0.16-0.06,0.33-0.12,0.5c-0.41,1.13-1.45,1.91-2.21,2.27l0.64,1.07l-0.87,0.52C63.06,48.4,55.69,52.7,53,52.7  c-1.91,0-3.77-1.85-4.97-3.36c-0.94,1.56-1.7,3.04-2.25,4.66h33.74c0,0,0,0.01-0.01,0.03c-0.27,0.68-6.13,15.16-14.56,17.54  c-0.02,0-0.02,0.01-0.02,0.01c-0.43-0.25-0.79-0.68-1.05-1.06c-0.25-0.38-0.4-0.7-0.42-0.75c-0.1-0.22-0.19-0.44-0.26-0.66  c-0.12-0.41-0.56-0.71-0.98-0.7c-0.4,0.01-0.82,0.32-0.93,0.71c-0.32,1.11-0.82,2.19-1.79,2.82c-3.74,2.4-7.85,0.61-8.92-2.83  c-0.12-0.4-0.55-0.7-0.95-0.7c-0.41,0-0.84,0.3-0.96,0.7c-0.73,2.35-2.88,3.93-5.36,3.93s-4.63-1.58-5.36-3.93  c-0.12-0.41-0.56-0.7-0.97-0.7c-0.4,0.01-0.82,0.31-0.94,0.7c-1.02,3.3-4.84,5.08-8.44,3.11c-1.18-0.64-1.85-1.85-2.27-3.12  c-0.14-0.4-0.57-0.7-0.98-0.69c-0.4,0.01-0.81,0.18-0.93,0.57c-0.26,0.82-1.269,2.999-3.11,3.44C10.747,67.563,4.97,54,4.97,54  h25.76c1-4.54,6.15-14.07,12.02-17.65c1.32-0.8,2.61-1.27,3.85-1.39c1.48,1.22,3.33,1.94,5.3,1.96c0.44,0.53,0.72,1.14,0.9,1.81  c0.02,0.07,0.43,1.31,0.61,1.99c0.22,0.85,0.62,2.36,0.95,2.91c1.14-0.29,4.33-1.59,6.45-2.52c0,0,0.39-0.31,0.51-0.39  c0.53-0.37,1.94-1.22,3.39-0.94c0.78,0.15,1.44,0.61,1.91,1.33c0.02,0.04,0.04,0.08,0.06,0.12C71.41,38.73,86.46,31,91,31h1v41.58  c0.68,0.29,1.41,0.46,2.19,0.46C94.74,73.04,95.19,73.48,95.19,74.04z M58.78,27.87c0-0.7-0.1-1.38-0.29-2.02  c1.7-0.49,3.06-0.8,3.76-0.8c0.11,0,0.2,0,0.28,0.02c0.06,0.01,0.12,0.02,0.19,0.02c0.46,0,0.88-0.32,0.99-0.8  c0.1-0.54-0.25-1.07-0.79-1.18c-0.14-0.03-0.31-0.04-0.5-0.04c-0.85,0-2.17,0.26-3.78,0.69c0,0-0.12-0.11-0.17-0.17l-6.03-4.72  c-0.53-0.42-1.18-0.64-1.83-0.64c-0.52,0-1.03,0.14-1.49,0.41l-2.76,1.82c-0.89,0.53-1.44,1.5-1.44,2.59l0.14,5.26  c-1.26,0.49-3.83,1.58-3.85,1.59c-0.46,0.31-0.59,0.93-0.28,1.39c0.19,0.29,0.51,0.45,0.83,0.45c0.16,0,0.32-0.04,0.47-0.12  c0.44-0.21,1.74-0.72,3.47-1.38c0.93,2.77,3.44,4.69,6.34,4.69C55.76,34.93,58.78,31.76,58.78,27.87z M94.186,82.035  c-2.477,0-4.629-1.579-5.357-3.93c-0.124-0.4-0.556-0.699-0.968-0.694c-0.403,0.005-0.822,0.302-0.942,0.694  c-0.729,2.351-2.881,3.93-5.357,3.93s-4.629-1.579-5.357-3.93c-0.152-0.49-0.637-0.74-1.142-0.741  c-0.503-0.001-0.991,0.25-1.143,0.741c-0.729,2.351-2.881,3.93-5.357,3.93s-4.629-1.579-5.357-3.93  c-0.058-0.186-0.212-0.376-0.366-0.491c-0.17-0.128-0.379-0.204-0.592-0.203c-0.209,0.001-0.415,0.075-0.583,0.2  c-0.155,0.116-0.311,0.306-0.37,0.494c-0.729,2.351-2.881,3.93-5.357,3.93c-2.477,0-4.629-1.579-5.357-3.93  c-0.124-0.399-0.553-0.698-0.964-0.694c-0.208,0.002-0.413,0.077-0.579,0.202c-0.154,0.116-0.309,0.305-0.367,0.492  c-0.729,2.351-2.882,3.93-5.358,3.93c-2.476,0-4.629-1.579-5.357-3.93c-0.057-0.183-0.208-0.369-0.357-0.484  c-0.169-0.13-0.38-0.209-0.595-0.21c-0.409-0.001-0.835,0.297-0.958,0.694c-0.729,2.351-2.881,3.93-5.357,3.93  s-4.629-1.579-5.357-3.93c-0.057-0.184-0.298-0.694-0.956-0.694c-0.647,0-0.895,0.504-0.954,0.694  c-0.729,2.351-2.881,3.93-5.357,3.93c-2.477,0-4.629-1.579-5.357-3.93c-0.057-0.184-0.209-0.371-0.36-0.487  c-0.167-0.128-0.373-0.205-0.584-0.207c-0.412-0.005-0.842,0.294-0.967,0.694c-0.729,2.351-2.882,3.93-5.357,3.93  c-0.553,0-1,0.447-1,1s0.447,1,1,1c2.603,0,4.93-1.299,6.312-3.366c1.381,2.067,3.709,3.366,6.313,3.366  c2.603,0,4.931-1.299,6.313-3.365c1.381,2.067,3.709,3.365,6.313,3.365c2.604,0,4.932-1.299,6.313-3.366  c1.382,2.067,3.709,3.366,6.312,3.366c2.603,0,4.931-1.299,6.313-3.366c1.381,2.067,3.709,3.366,6.313,3.366  c2.603,0,4.931-1.299,6.313-3.365c1.381,2.067,3.709,3.365,6.313,3.365c2.73,0,5.151-1.432,6.5-3.677  c1.349,2.245,3.77,3.677,6.5,3.677c2.603,0,4.931-1.299,6.313-3.365c1.381,2.067,3.709,3.365,6.313,3.365c0.553,0,1-0.447,1-1  S94.738,82.035,94.186,82.035z"/></svg>
