<svg xmlns="http://www.w3.org/2000/svg" xmlns:xlink="http://www.w3.org/1999/xlink" version="1.1" x="0px" y="0px" viewBox="0 0 100 125" enable-background="new 0 0 100 100" xml:space="preserve"><g><g><circle fill="#000000" cx="28.93604" cy="14.74408" r="6"/><path fill="#000000" d="M70.13086,82.84814c-3.14453-1.8335-6.396-3.72949-9.95752-3.87354    c-4.20312-0.16748-7.48389,1.98096-10.38477,3.87842c-2.28711,1.49561-4.44727,2.9082-6.90381,3.24707    c-0.61816,0.08545-1.24072,0.10596-1.85107,0.06152c-0.01105-0.00079-0.02264-0.00385-0.03369-0.0047v-7.48871    c0.80481,0.04205,1.62042,0.01776,2.43115-0.09253c3.34717-0.46191,5.99023-2.19043,8.54639-3.8623    c2.63232-1.72168,5.10938-3.35693,8.03467-3.229c1.06824,0.04309,2.15906,0.34869,3.27209,0.79993l-4.74121-4.74121    c-3.43555,0.35022-6.24072,2.17792-8.755,3.82263c-2.28662,1.49561-4.44678,2.90869-6.90332,3.24707    c-0.61865,0.08594-1.24121,0.10742-1.85107,0.06104c-0.01105-0.00079-0.02264-0.00385-0.03369-0.0047V66H12v24.18506h29h1    v-0.01984c0.47742-0.00946,0.95514-0.03705,1.43115-0.10223c3.34717-0.46191,5.99072-2.19043,8.54688-3.8623    c2.63135-1.7207,5.10596-3.35449,8.03418-3.229c2.56738,0.10352,5.25684,1.67188,8.104,3.33203    c3.03271,1.76807,6.16895,3.59668,9.58398,3.84717c0.31348,0.02295,0.62256,0.03418,0.92773,0.03418    c0.80847,0,1.58881-0.07782,2.34216-0.21497l-3.94415-3.94415C74.82721,85.58472,72.53717,84.25104,70.13086,82.84814z"/><path fill="#000000" d="M80.54224,78.54224c2.41467-0.36121,4.56067-1.34265,6.45776-2.41296v-4.65295    c-3.19659,1.95496-5.90198,3.42505-9.00684,3.19751c-0.53394-0.03925-1.07434-0.15027-1.61926-0.29993L42.65454,40.65454    C46.34033,40.36548,51,40,51,40c0-2.14496-0.22437-4.21948,0.26263-6.33386c0.44897-1.94934,1.16107-3.84332,2.17389-5.57141    c2.46191-4.20068,6.20361-6.50879,11.13428-6.87598L73.73621,49H74h3.93231c-0.01227-0.0495-0.01666-0.09924-0.0329-0.14844    l-10-30.31152C67.62891,17.72021,66.86328,17.1665,66,17.1665c-12.39288,0-17.4422,9.51642-18.71552,15.8335H41l-8-8    l-6.46155-0.46155L11,9l-3,3l80,80l3-3L80.54224,78.54224z"/><polygon fill="#000000" points="19,28 19,62 33,62 33,42   "/><path fill="#000000" d="M74.60547,60.41858c1.11292,1.85999,2.6944,3.21417,4.91187,3.5553l0.33148,4.37939    l5.841-3.49487l-3.70239-2.36249c0.7478-2.1153,0.30206-4.14905-0.81079-6.00903C78.57971,52.14667,74,52,74,52    S72.00861,56.07843,74.60547,60.41858z"/></g></g><text x="0" y="115" fill="#000000" font-size="5px" font-weight="bold" font-family="'Helvetica Neue', Helvetica, Arial-Unicode, Arial, Sans-serif">Created by Yu luck</text><text x="0" y="120" fill="#000000" font-size="5px" font-weight="bold" font-family="'Helvetica Neue', Helvetica, Arial-Unicode, Arial, Sans-serif">from the Noun Project</text></svg>