<svg xmlns="http://www.w3.org/2000/svg" xmlns:xlink="http://www.w3.org/1999/xlink" version="1.1" x="0px" y="0px" viewBox="0 0 100 125" enable-background="new 0 0 100 100" xml:space="preserve"><path fill-rule="evenodd" clip-rule="evenodd" d="M72.839,13.553c1.103,0.867,2.158,1.83,3.167,2.885  c7.296,7.25,10.944,15.988,10.944,26.217c0,10.182-3.648,18.875-10.944,26.076c-0.117,0.164-0.234,0.387-0.352,0.67  c-0.282,0.164-0.54,0.398-0.774,0.703L53.977,92.098c-2.698,3.072-5.36,3.072-7.988,0L24.346,69.225  c-0.117-0.164-0.234-0.33-0.352-0.494C16.698,61.529,13.05,52.836,13.05,42.654c0-10.229,3.648-18.967,10.944-26.217  c1.009-1.055,2.088-2.018,3.237-2.885C33.684,8.25,41.296,5.6,50.07,5.6C58.751,5.6,66.341,8.25,72.839,13.553z M73.226,31.676  c0.211-0.047,0.539-0.082,0.985-0.105c0,2.557,0,4.07,0,4.539c0,0.047-0.047,0.129-0.141,0.246c-0.07,0.094-0.141,0.141-0.211,0.141  c-0.563,0.07-1.114,0.281-1.654,0.635c-0.398,0.258-0.833,0.645-1.302,1.16c-1.244,1.408-2.687,2.322-4.328,2.746  c-1.596,0.445-3.238,0.375-4.928-0.213c-1.431-0.539-2.709-1.465-3.835-2.779c-0.728-0.844-1.549-1.35-2.464-1.514  c-1.36-0.141-2.568,0.363-3.624,1.514c-1.22,1.479-2.616,2.439-4.188,2.885c-3.072,0.869-5.829,0.189-8.27-2.041  c-0.164-0.117-0.375-0.293-0.633-0.527c-0.281-0.328-0.435-0.516-0.457-0.563c-0.846-0.844-1.772-1.268-2.781-1.268  c-1.078,0-2.018,0.398-2.814,1.197c-0.446,0.492-0.81,0.855-1.092,1.09c-0.398,0.4-0.773,0.74-1.125,1.021  c-1.314,0.961-2.852,1.467-4.611,1.514v-4.928c0.682-0.047,1.314-0.293,1.9-0.738c0.399-0.234,0.904-0.668,1.514-1.303  c1.76-1.877,3.836-2.803,6.229-2.779c2.416,0,4.517,0.949,6.3,2.85c0.141,0.141,0.352,0.375,0.634,0.705  c0.797,0.844,1.712,1.266,2.744,1.266c1.079,0,2.041-0.445,2.886-1.338c0.446-0.516,0.821-0.914,1.126-1.195  c0.445-0.398,0.868-0.715,1.268-0.951c1.642-1.078,3.425-1.523,5.349-1.336c1.876,0.258,3.519,1.043,4.927,2.357  c0.211,0.188,0.527,0.551,0.949,1.092c0.893,0.914,1.877,1.371,2.957,1.371c1.125,0,2.088-0.48,2.885-1.443  c1.432-1.688,3.074-2.732,4.928-3.131C72.581,31.781,72.874,31.723,73.226,31.676z M62.985,48.391c0.75,0.234,1.49,0.211,2.217-0.07  c0.681-0.281,1.303-0.738,1.865-1.373c0.868-0.961,1.807-1.711,2.815-2.252c1.032-0.539,2.146-0.855,3.343-0.949  c0.141,0,0.305,0,0.493,0h0.492v4.82c-0.492,0.023-0.774,0.059-0.845,0.105c-1.008,0.117-1.936,0.635-2.779,1.549  c-0.869,1.104-1.889,1.924-3.063,2.463c-1.148,0.541-2.311,0.811-3.483,0.811c-1.243,0-2.417-0.27-3.519-0.811  c-1.174-0.539-2.218-1.359-3.133-2.463c-0.914-1.078-1.936-1.619-3.062-1.619s-2.146,0.541-3.062,1.619  c-0.914,1.104-1.959,1.924-3.132,2.463c-1.126,0.541-2.287,0.811-3.483,0.811c-1.244,0-2.428-0.27-3.555-0.811  c-1.149-0.539-2.182-1.359-3.097-2.463c-0.962-1.078-1.982-1.619-3.062-1.619c-1.126,0-2.146,0.541-3.062,1.619  c-1.501,1.736-3.272,2.779-5.313,3.133c-0.023,0-0.294,0.023-0.811,0.07v-4.857c0.517-0.164,1.033-0.434,1.549-0.809  c0.399-0.258,0.833-0.656,1.303-1.197c0.891-0.961,1.912-1.678,3.062-2.146c1.103-0.492,2.229-0.738,3.378-0.738  c1.197,0.047,2.334,0.328,3.414,0.844c1.172,0.564,2.182,1.35,3.025,2.357c0.47,0.564,0.951,0.986,1.443,1.268  c0.563,0.281,1.161,0.398,1.795,0.352c0.563,0,1.103-0.141,1.618-0.422c0.446-0.234,0.88-0.609,1.302-1.127  c1.643-1.898,3.59-2.943,5.842-3.131c2.934-0.281,5.432,0.762,7.496,3.131C61.589,47.652,62.258,48.133,62.985,48.391z   M82.059,42.549c0-8.797-3.144-16.34-9.431-22.627S58.774,10.49,49.93,10.49c-8.798,0-16.341,3.145-22.628,9.432  s-9.431,13.83-9.431,22.627c0,8.799,3.144,16.34,9.431,22.627c6.287,6.289,13.83,9.432,22.628,9.432  c8.845,0,16.411-3.143,22.698-9.432C78.915,58.889,82.059,51.348,82.059,42.549z"/><text x="0" y="115" fill="#000000" font-size="5px" font-weight="bold" font-family="'Helvetica Neue', Helvetica, Arial-Unicode, Arial, Sans-serif">Created by Saeful Muslim</text><text x="0" y="120" fill="#000000" font-size="5px" font-weight="bold" font-family="'Helvetica Neue', Helvetica, Arial-Unicode, Arial, Sans-serif">from the Noun Project</text></svg>