<svg xmlns="http://www.w3.org/2000/svg" xmlns:xlink="http://www.w3.org/1999/xlink" version="1.1" x="0px" y="0px" viewBox="0 0 65 81.25" enable-background="new 0 0 65 65" xml:space="preserve"><g><path d="M25.7,28.6c0,0-0.1-0.2-0.2-0.2c-0.2-0.2-0.4-0.5-0.7-0.6c-0.9-0.3-1.5,0.3-1.9,0.6c-0.3,0.3-0.4,0.3-0.5,0.3   c-0.1,0-0.2-0.1-0.3-0.2c-0.5-0.3-1.2-0.8-2.1-0.4c-0.5,0.2-0.6,0.5-0.7,0.8c-0.2,0.8,0.3,1.7,1,2.7c0.3,0.5,0.7,1.1,0.9,1.6   l1.4-0.6c-0.2-0.6-0.6-1.2-1-1.8c-0.2-0.4-0.6-0.9-0.7-1.3c0.1,0.1,0.3,0.2,0.4,0.3c0.3,0.2,0.6,0.4,1,0.4c0.8,0.1,1.3-0.4,1.7-0.7   c0.1-0.1,0.2-0.2,0.3-0.2c0.2,0.3,0.4,0.6,0.9,0.7c1,0.4,1.8-0.1,2.4-0.6c0,0.1,0.1,0.1,0.1,0.2c0.6,0.9,1.2,2,1.2,2.6l1.5,0.2   c0.1-1.1-0.6-2.4-1.4-3.6c-0.3-0.5-0.8-1.4-0.9-1.7c0.2,0,0.4,0.2,0.8,0.4c0.3,0.2,0.7,0.4,1,0.5c0.9,0.1,1.5-0.5,1.9-0.8   c0.3-0.2,0.4-0.3,0.4-0.3c0,0,0,0.1,0.1,0.1c0.2,0.3,0.5,0.7,1,0.8c1.3,0.4,2.3-0.3,3-0.8c0.4-0.3,0.8-0.6,1-0.6h0c0,0,0.1,0,0.1,0   c-0.1,0.2-0.3,0.4-0.4,0.6l-0.2,0.2c-1,1.4-1.7,3.2-2,5.1l1.5,0.2c0.1-1.1,0.5-2.1,0.9-3c0,0,0,0,0,0c0.3,0.2,0.6,0.4,1,0.4   c0.8,0.1,1.4-0.4,1.7-0.7c0.1-0.1,0.2-0.2,0.3-0.2c0.2,0.3,0.5,0.6,0.9,0.8c1.2,0.4,2-0.3,2.7-0.8c0.3-0.2,0.5-0.4,0.7-0.5   c-0.1,0.1-0.2,0.2-0.2,0.3L44,28.9c-0.8,1.1-1.3,2.4-1.6,3.8l1.5,0.3c0.2-1.2,0.7-2.3,1.3-3.2l0.1-0.2c0.4-0.6,1-1.3,0.6-2.1   c-0.2-0.5-0.7-0.7-1.5-0.7c0,0,0,0,0,0c-0.7,0-1.3,0.4-1.8,0.8c-0.6,0.5-0.9,0.6-1.2,0.5c0,0-0.1-0.2-0.2-0.2   c-0.2-0.2-0.4-0.5-0.7-0.6c-0.9-0.3-1.5,0.3-1.9,0.6c-0.3,0.3-0.4,0.3-0.5,0.3c-0.1,0-0.2-0.1-0.3-0.2c0,0-0.1-0.1-0.1-0.1   c0,0,0-0.1,0.1-0.1l0.1-0.2c0.5-0.6,1.1-1.5,0.7-2.3c-0.2-0.5-0.8-0.7-1.6-0.8c0,0,0,0,0,0c-0.8,0-1.4,0.5-2,0.9   c-0.7,0.5-1.1,0.8-1.5,0.6c-0.1,0-0.2-0.2-0.3-0.3c-0.2-0.3-0.4-0.5-0.7-0.6c-1-0.3-1.6,0.3-2,0.6c-0.3,0.3-0.5,0.4-0.7,0.4   c-0.1,0-0.2-0.1-0.4-0.2c-0.5-0.3-1.4-0.9-2.3-0.5c-0.5,0.2-0.7,0.6-0.8,0.8c-0.1,0.5,0,1,0.2,1.5C26.3,28.5,26,28.7,25.7,28.6z"/><path d="M32.2,44.5v1.8c-0.6,0.1-1.2,0.4-1.7,0.8c-0.7,0.6-1.1,1.4-1.1,2.2c0,0.9,0.4,1.7,1.1,2.2c0.7,0.6,1.5,0.9,2.4,0.9   c0.5,0,1.1,0.2,1.4,0.5c0.3,0.3,0.5,0.7,0.5,1.1c0,0.4-0.2,0.8-0.5,1.1c-0.8,0.6-2.1,0.6-2.9,0c-0.3-0.3-0.5-0.7-0.5-1.1h-1.5   c0,0.9,0.4,1.7,1.1,2.2c0.5,0.4,1,0.7,1.7,0.8v1.8h1.5V57c0.6-0.1,1.2-0.4,1.7-0.8c0.7-0.6,1.1-1.4,1.1-2.2c0-0.9-0.4-1.7-1.1-2.2   c-0.7-0.6-1.5-0.9-2.4-0.9c-0.5,0-1.1-0.2-1.4-0.5c-0.3-0.3-0.5-0.7-0.5-1.1c0-0.4,0.2-0.8,0.5-1.1c0.8-0.6,2.1-0.6,2.9,0   c0.3,0.3,0.5,0.7,0.5,1.1h1.5c0-0.9-0.4-1.7-1.1-2.2c-0.5-0.4-1-0.7-1.7-0.8v-1.8H32.2z"/><path d="M37.9,34.4c0-0.4-0.3-0.8-0.8-0.8h-8.7c-0.4,0-0.8,0.3-0.8,0.8c0,0.4,0.3,0.8,0.8,0.8h8.7C37.5,35.2,37.9,34.8,37.9,34.4z"/><path d="M47.1,41.1c-1-1.3-2-2.5-2.9-3.9l-1.3,0.8c0.9,1.4,2,2.7,3,4c1.2,1.6,2.5,3.2,3.5,4.9c0.9,1.5,3.4,6.6,0.4,10.2   c-1.2,1.4-2.9,2.4-5,2.9c3.7-4.9,0.5-11.3-0.6-13.2c-1.2-2.1-2.7-4-4.2-5.8c-1.3-1.6-2.7-3.3-3.8-5.2L35,36.7   c1.2,1.9,2.5,3.6,3.9,5.3c1.4,1.8,2.9,3.7,4.1,5.7c1,1.7,4,7.6,0.5,11.9c-3,3.6-9.4,4.9-14.9,3.1c-4.5-1.5-7.2-4.6-7.3-8.5   c-0.2-4.2,2.2-7.2,4.6-10.4c1.7-2.2,3.4-4.4,4.4-7l-1.4-0.5c-0.9,2.4-2.5,4.6-4.1,6.6c-2.5,3.3-5.2,6.7-5,11.4   c0.1,2.2,0.9,4.2,2.3,5.9c-3.6-1-6.8-3.4-7-7.4c-0.2-3.6,1.8-6.2,4-8.9c1.3-1.7,2.7-3.5,3.6-5.6l-1.4-0.6c-0.8,1.9-2.1,3.6-3.4,5.2   c-2.2,2.8-4.5,5.8-4.3,9.9c0.3,5.7,5.5,8.8,10.6,9.3c1.1,0.8,2.5,1.5,4,2c1.8,0.6,3.8,0.9,5.8,0.9c3.4,0,6.8-0.9,9.3-3   c3.4-0.3,6.2-1.7,8-3.8c3.6-4.4,0.7-10.3-0.3-11.9C49.7,44.4,48.4,42.8,47.1,41.1z"/><path d="M44.8,34.6h-4.3c-0.4,0-0.8,0.3-0.8,0.8c0,0.4,0.3,0.8,0.8,0.8h4.3c0.4,0,0.8-0.3,0.8-0.8C45.6,34.9,45.2,34.6,44.8,34.6z"/><path d="M20.1,36.1h4.3c0.4,0,0.8-0.3,0.8-0.8c0-0.4-0.3-0.8-0.8-0.8h-4.3c-0.4,0-0.8,0.3-0.8,0.8C19.3,35.8,19.7,36.1,20.1,36.1z"/><path d="M55.1,22.4c0,0,0-0.1-0.1-0.1C55.1,22.3,55.1,22.3,55.1,22.4C55,10,44.9,0,32.5,0C20.1,0,10,10,9.9,22.4   c0-0.1,0.1-0.1,0.1-0.1c0,0-0.1,0.1-0.1,0.1c-0.1,0.4,0.1,0.8,0.4,1c0.4,0.2,0.8-0.1,1-0.5c0.2-0.5,1.6-1.2,3.8-1.2   c2.2,0,3.6,0.7,3.8,1.2c0.1,0.3,0.4,0.5,0.7,0.5c0.1,0,0.2,0,0.3,0c0.3-0.1,0.4-0.3,0.5-0.6c0.8-1.7,5-3.5,11.4-3.6v4   c0,0.4,0.3,0.8,0.8,0.8c0.4,0,0.8-0.3,0.8-0.8v-4c6.5,0.1,10.7,2,11.4,3.7c0,0,0,0,0,0c0,0,0,0.1,0,0.1c0,0.1,0.1,0.1,0.1,0.2   c0,0,0,0,0.1,0c0.1,0.1,0.1,0.1,0.2,0.1c0,0,0,0,0,0c0,0,0,0,0,0c0.1,0,0.2,0.1,0.3,0.1c0.1,0,0.2,0,0.3-0.1   c0.2-0.1,0.4-0.3,0.4-0.5c0.2-0.5,1.6-1.2,3.8-1.2c2.2,0,3.6,0.7,3.8,1.2c0.1,0.3,0.4,0.5,0.7,0.5c0.1,0,0.2,0,0.3,0   C55,23.2,55.2,22.8,55.1,22.4z M15.1,20.1c-1.3,0-2.8,0.3-3.8,0.8c0.1,0,0.1-0.1,0.2-0.1c0.7-8.7,6.8-15.9,14.8-18.4   c-4.1,3.5-7,10.4-7.4,18.5C17.9,20.4,16.5,20.1,15.1,20.1z M19.5,21.3c0,0-0.1,0-0.1-0.1c0.1,0,0.2-0.1,0.2-0.1   C19.6,21.2,19.6,21.3,19.5,21.3z M32.5,17.6L32.5,17.6C32.5,17.6,32.5,17.6,32.5,17.6C32.5,17.6,32.5,17.6,32.5,17.6   c-4.5,0-9.5,0.9-12,2.8c0.6-10.6,5.8-18.9,12-18.9c6.2,0,11.4,8.3,12,18.9C42,18.5,37.1,17.6,32.5,17.6z M45.4,21.3   c0,0-0.1-0.1-0.1-0.1C45.4,21.2,45.5,21.3,45.4,21.3C45.5,21.3,45.5,21.3,45.4,21.3z M49.9,20.1c-1.3,0-2.7,0.3-3.8,0.8   c-0.4-8.1-3.3-15-7.4-18.5c8.1,2.5,14.1,9.7,14.8,18.4c0,0,0,0,0,0C52.5,20.4,51.1,20.1,49.9,20.1z"/></g></svg>
