<svg xmlns="http://www.w3.org/2000/svg" xmlns:xlink="http://www.w3.org/1999/xlink" version="1.1" x="0px" y="0px" viewBox="0 0 91.4 122.5" style="enable-background:new 0 0 91.4 98;" xml:space="preserve"><path d="M91.3,24c0-0.1-0.1-0.1-0.1-0.2c-0.1-0.1-0.1-0.2-0.2-0.3c0,0-0.1-0.1-0.1-0.1c0,0-0.1-0.1-0.1-0.1  C90.6,23.2,77,13.1,73.2,1c-0.2-0.6-0.8-1-1.4-1H19.6c-0.6,0-1.2,0.4-1.4,1c-3.8,12-17.5,22.2-17.6,22.3c0,0-0.1,0.1-0.1,0.1  c0,0-0.1,0.1-0.1,0.1c-0.1,0.1-0.1,0.2-0.2,0.3c0,0.1-0.1,0.1-0.1,0.2C0,24.2,0,24.4,0,24.5c0,0,0,0,0,0V33c0,0.8,0.7,1.5,1.5,1.5  S3,33.8,3,33v-7h3.8v7c0,0.8,0.7,1.5,1.5,1.5s1.5-0.7,1.5-1.5v-7h3.5L9.8,48.8c-3.1,1.2-5.1,2.9-5.3,5.1l-1.8,6.8c0,0.1,0,0.3,0,0.4  c0,1.2,0.6,2.2,1.6,3c0,0.1-0.1,0.2-0.1,0.3L1.7,80.2c-0.9,3.3,0.1,6.7,2.8,9.1c2.3,2.1,5.6,3.3,9,3.3h9.2c0.4,0.5,0.8,0.9,1.2,1.3  c2.8,2.6,6.8,4.1,11,4.1h21.4c4.2,0,8.2-1.5,11-4.1c0.4-0.4,0.8-0.8,1.2-1.3h9.7c3.4,0,6.7-1.2,9-3.3c2.7-2.5,3.7-5.9,2.9-9  l-2.4-15.9c0-0.1-0.1-0.2-0.1-0.3c1-0.9,1.6-1.9,1.6-3c0-0.1,0-0.3-0.1-0.4l-1.8-6.8c-0.2-2.3-2.3-4-5.5-5.2L78,26h3.6v7  c0,0.8,0.7,1.5,1.5,1.5s1.5-0.7,1.5-1.5v-7h3.8v7c0,0.8,0.7,1.5,1.5,1.5c0.8,0,1.5-0.7,1.5-1.5v-8.5c0,0,0,0,0,0  C91.4,24.4,91.3,24.2,91.3,24z M67.4,47c-0.8-5.4-11.5-8.3-21.7-8.3c-10.1,0-20.8,2.9-21.7,8.3c-0.6,0-1.2-0.1-1.8-0.1V34.4  c0.6-0.2,1.1-0.7,1.1-1.4v-7h3.8v7c0,0.8,0.7,1.5,1.5,1.5c0.8,0,1.5-0.7,1.5-1.5v-7H34v7c0,0.8,0.7,1.5,1.5,1.5S37,33.8,37,33v-7  h3.8v7c0,0.8,0.7,1.5,1.5,1.5s1.5-0.7,1.5-1.5v-7h3.8v7c0,0.8,0.7,1.5,1.5,1.5s1.5-0.7,1.5-1.5v-7h3.8v7c0,0.8,0.7,1.5,1.5,1.5  s1.5-0.7,1.5-1.5v-7h3.8v7c0,0.8,0.7,1.5,1.5,1.5s1.5-0.7,1.5-1.5v-7H68v7c0,0.3,0.1,0.5,0.2,0.7v13.2C67.9,46.9,67.7,46.9,67.4,47z   M69.7,58.6c0,0.1,0.1,0.1,0.2,0.1c0,0-0.1,0-0.1,0c-0.1,0-0.1,0-0.2,0c0,0,0,0,0,0C69.6,58.7,69.7,58.6,69.7,58.6z M85.4,57.9  l0.9,3.3c-0.4,1.6-7.2,4.3-16.5,4.3c-0.5,0-1,0-1.5-0.1l-0.4-2.3c-0.1-0.5-0.4-0.8-0.7-1c0.2-0.2,0.4-0.4,0.6-0.6  c0.7,0,1.3,0.1,2,0.1C76,61.7,82.2,60.4,85.4,57.9z M23.5,63.2l-0.4,2.3c-0.4,0-0.7,0-1.1,0c-9.3,0-16.1-2.8-16.5-4.3l0.9-3.3  c3.1,2.5,9.4,3.8,15.6,3.8c0.5,0,1,0,1.5-0.1c0.2,0.2,0.4,0.4,0.6,0.5C23.9,62.4,23.6,62.7,23.5,63.2z M33.2,51.8  c0-1,0.8-1.9,1.6-1.5c0.4,0.2,0.9,0.2,1.3-0.1c0.4-0.2,0.7-0.6,0.8-1.1c0.1-0.5,0.4-0.9,0.7-0.9c0.3,0,0.7,0.4,0.7,1  c0,0.1,0,0.2,0,0.2c0,0.5,0.1,0.9,0.5,1.3c0.4,0.3,0.8,0.4,1.3,0.3c0.1,0,0.1,0,0.2,0c0,0,0.1,0,0.1,0c0.4,0.2,0.8,0.1,1.2-0.1  c0.4-0.2,0.7-0.5,0.8-0.9c0.1-0.3,0.3-0.7,0.7-0.7c0.3,0,0.5,0.3,0.6,0.5c0.3,0.7,1.2,1,1.9,0.8c0.2,0,0.3,0.1,0.4,0.2  c0.5,0.6,1.4,0.6,2,0.1c0.1-0.1,0.2-0.1,0.3-0.1c0.5-0.1,0.8-0.4,1-0.8c0.2-0.4,0.6-0.8,1.1-0.8c0.3,0,0.6,0.2,0.7,0.3  c0.3,0.3,0.7,0.4,1.2,0.4c0.4,0,0.8-0.3,1.1-0.6c0.1-0.1,0.3-0.3,0.5-0.3c0.3,0,0.5,0.3,0.6,0.5c0.3,0.7,1.2,1,1.9,0.8  c0.4,0,0.7,0.5,0.7,1c0,0.3,0.1,0.6,0.3,0.8c-3.1,0.8-7,1.4-11.7,1.4C40.6,53.5,36.4,52.9,33.2,51.8C33.2,51.9,33.2,51.9,33.2,51.8z   M64.4,48.1c-0.3,0.9-1.6,2-3.6,2.9c-0.2-0.3-0.5-0.5-0.8-0.7c-0.4-1.6-1.8-2.8-3.4-2.9c-1.1-1.4-3.2-1.7-4.6-0.7  c-1.7-0.7-3.8-0.1-4.9,1.5c-0.4-0.2-0.9-0.3-1.3-0.3c-1.2-1.5-3.6-1.7-5-0.4c-0.7-1.2-1.8-1.9-3.2-1.9c-1.3,0-2.5,0.8-3.1,1.9  c0,0,0,0,0,0c-2,0-3.6,1.5-4.1,3.5c-1.9-0.9-3.1-1.9-3.4-2.8c0-0.2-0.1-0.4-0.1-0.5c0.1-2.5,7.2-5.9,18.8-5.9s18.7,3.4,18.8,5.9  C64.5,47.7,64.4,47.9,64.4,48.1z M24.7,57.7l1.3-5.8c3.4,3.5,10.8,5.8,19.7,5.8s16.3-2.3,19.7-5.8l1.3,5.8c-0.3,3.3-9.9,7.2-21,7.2  S24.9,61,24.7,57.7z M25.5,3C22.2,13.4,16.5,21.2,15,23H12c3.6-3.6,9.6-10.8,12.6-20.1H25.5z M28.6,3h1c-3.4,10.6-6.9,18.1-8.1,20.1  h-2.8C21.4,19.4,25.9,12.1,28.6,3z M33.7,3c-1.2,4.2-2.3,7.8-3.1,10.8c-1.1,4.1-2.2,8-2.8,9.2h-2.9c2-3.9,5.2-11.5,7.9-20.1H33.7z   M37.9,3C37,8.4,37,8.5,36.8,9.5c-0.2,1-0.5,3.1-2.3,13.5h-3.6c0.6-1.7,1.3-4.3,2.5-8.4c0.9-3.2,2-7.1,3.3-11.6H37.9z M54.6,3  c1.3,4.5,2.4,8.4,3.3,11.6c1.2,4.2,1.9,6.8,2.5,8.4h-3.6c-1.8-10.4-2.1-12.5-2.3-13.5c-0.2-1-0.2-1.1-1.1-6.5H54.6z M58.7,3  c2.7,8.5,5.9,16.2,7.9,20.1h-2.9c-0.6-1.3-1.7-5.1-2.8-9.2C60,10.8,59,7.1,57.7,3H58.7z M51.6,10c0.2,1,0.5,3,2.2,13h-3.4L49.6,3  h0.8C51.4,8.9,51.5,9,51.6,10z M47.5,23h-3.7L44.7,3h2L47.5,23z M40.9,23h-3.4c1.7-10,2-12,2.2-13c0.2-1,0.2-1.1,1.2-7h0.8L40.9,23z   M69.9,23c-1.2-2-4.7-9.5-8.1-20.1h1c2.8,9.2,7.3,16.4,10,20.1H69.9z M76.4,23c-1.6-1.9-7.3-9.7-10.6-20.1h0.9  c3,9.2,9.1,16.4,12.6,20.1H76.4z M20.7,3h0.8C17.7,13.7,9.5,21.5,7.7,23H5.7C10,19.2,17.5,11.8,20.7,3z M15,34.5  C15,34.5,15.1,34.5,15,34.5c0.9,0,1.6-0.6,1.6-1.5v-7h2.7v20.9c-2.2,0.1-4.4,0.4-6.3,0.9L15,34.5z M22.1,49.8c0.4,0,0.8,0,1.3,0  l-0.8,3.6c-0.2-0.1-0.3-0.1-0.5-0.1c-0.2,0-0.3,0.1-0.5,0.1c-0.3-0.7-0.9-1.1-1.6-1.1c-0.8,0-1.5,0.6-1.7,1.5  c-0.2-0.1-0.4-0.1-0.6-0.1c-0.1,0-0.2,0.1-0.3,0.1c0-0.1,0-0.1,0-0.2c0-1.1-0.8-2-1.8-2c-0.9,0-1.6,0.8-1.7,1.7  C13.7,53,13.4,53,13.1,53c-1.2,0-2.2,1.1-2.2,2.5c0,0.2,0,0.3,0,0.5c-0.4,0.1-0.7,0.4-0.9,0.7c-1.7-0.8-2.7-1.6-2.7-2.3  C7.4,52.5,13.3,49.8,22.1,49.8z M13.5,89.7c-2.7,0-5.2-0.9-7-2.5c-1.8-1.7-2.6-4-1.9-6.3l2.3-15c4.1,1.8,10.3,2.7,15.2,2.7  c0.2,0,0.4,0,0.6,0l-2.2,14.4c-0.6,2.3-0.5,4.6,0.4,6.8H13.5z M56.4,95H35c-3.5,0-6.7-1.2-9-3.3c-2.4-2.2-3.4-5.2-2.5-8.3l3-19.8  c4.7,2.6,12.1,4.2,19.2,4.2s14.6-1.6,19.2-4.2l3,20c0.8,2.8-0.2,5.9-2.6,8.1C63.1,93.8,59.9,95,56.4,95z M87.3,81  c0.6,2.2-0.1,4.5-2,6.2c-1.8,1.6-4.3,2.5-7,2.5h-7.9c0.9-2.1,1.1-4.4,0.5-6.6l-2.2-14.6c0.4,0,0.7,0,1.1,0c5,0,11.2-0.9,15.2-2.7  L87.3,81z M84.4,54.3c0,0.7-1,1.6-2.7,2.3c-0.2-0.3-0.6-0.6-0.9-0.7c0-0.2,0-0.3,0-0.5c0-1.4-1-2.5-2.2-2.5c-0.3,0-0.6,0.1-0.8,0.2  c-0.1-1-0.8-1.7-1.7-1.7c-1,0-1.8,0.9-1.8,2c0,0.1,0,0.2,0,0.2c-0.1,0-0.2-0.1-0.3-0.1c-0.2,0-0.4,0.1-0.6,0.1  c-0.2-0.8-0.9-1.5-1.7-1.5c-0.7,0-1.3,0.5-1.6,1.1c-0.1,0-0.3-0.1-0.5-0.1c-0.4,0-0.7,0.2-0.9,0.4L68,49.9c0.6,0,1.1-0.1,1.7-0.1  c0,0,0,0,0,0c0,0,0,0,0,0C78.6,49.8,84.4,52.5,84.4,54.3z M71.2,46.9V26.5c0-0.2,0-0.3-0.1-0.5h3.7v7c0,0.8,0.7,1.5,1.5,1.5  c0.1,0,0.1,0,0.1,0l2.3,13.4C76.4,47.3,73.8,47,71.2,46.9z M83.7,23c-1.7-1.6-10-9.4-13.8-20.1h0.8c3.1,8.8,10.7,16.3,15,20.1H83.7z  "/></svg>
