<svg xmlns="http://www.w3.org/2000/svg" xmlns:xlink="http://www.w3.org/1999/xlink" version="1.1" x="0px" y="0px" viewBox="0 0 64 80" style="enable-background:new 0 0 64 64;" xml:space="preserve"><g><path d="M20,14c1.654,0,3-1.346,3-3s-1.346-3-3-3s-3,1.346-3,3S18.346,14,20,14z M20,10c0.551,0,1,0.448,1,1s-0.449,1-1,1   s-1-0.448-1-1S19.449,10,20,10z"/><path d="M26,5H14v12h12V5z M24,15h-8V7h8V15z"/><rect x="5" y="19" width="30" height="2"/><rect x="5" y="23" width="30" height="2"/><rect x="5" y="27" width="30" height="2"/><rect x="5" y="31" width="30" height="2"/><rect x="5" y="35" width="10" height="2"/><rect x="17" y="35" width="2" height="2"/><rect x="26" y="49" width="9" height="2"/><path d="M63,29V19h-7.325l1.281-9.604C56.985,9.177,57,8.956,57,8.734V6c0-2.757-2.243-5-5-5s-5,2.243-5,5v2.734   c0,0.222,0.015,0.442,0.044,0.66L48.325,19H47V9h-4V5h-8.586l-4-4H1v54h4v4h4v4h38V45h12c2.206,0,4-1.794,4-4s-1.794-4-4-4H47v-8   H63z M49,6c0-1.654,1.346-3,3-3s3,1.346,3,3v2.734c0,0.132-0.009,0.265-0.026,0.396L53.125,23h-2.249L49.026,9.13   C49.009,8.999,49,8.866,49,8.734V6z M48.858,23H47v2h10v-2h-1.858l0.267-2H61v6H43v-6h5.591L48.858,23z M45,11v8h-2v-8H45z M41,7   v12v10v8h-2V9.586L36.414,7H41z M52,43H30v-4h22V43z M54,39h2v4h-2V39z M28,42.834L24.944,41L28,39.166V42.834z M31,4.414L35.586,9   H31V4.414z M3,3h26v8h8v26h-9.277l-6.667,4l6.667,4H37v8H3V3z M7,55h32V45h2v12H7V55z M45,61H11v-2h32V45h2V61z M61,41   c0,1.103-0.897,2-2,2h-1v-4h1C60.103,39,61,39.897,61,41z M45,37h-2v-8h2V37z"/></g></svg>
