<svg xmlns="http://www.w3.org/2000/svg" xmlns:xlink="http://www.w3.org/1999/xlink" version="1.1" x="0px" y="0px" viewBox="0 0 65 81.25" enable-background="new 0 0 65 65" xml:space="preserve"><g><path d="M12.9,29.2c-0.4,0.4-1.3,0.4-1.7,0c-0.1-0.1-0.3-0.3-0.3-0.6H9.4c0,0.7,0.3,1.3,0.8,1.7c0.3,0.3,0.7,0.4,1.1,0.6v1.1h1.5   v-1.1c0.4-0.1,0.8-0.3,1.1-0.6c0.5-0.5,0.8-1.1,0.8-1.7c0-0.7-0.3-1.3-0.8-1.7c-0.5-0.4-1.1-0.7-1.8-0.7c-0.3,0-0.6-0.1-0.9-0.3   c-0.1-0.1-0.3-0.3-0.3-0.6c0-0.3,0.2-0.5,0.3-0.6c0.4-0.4,1.3-0.4,1.7,0c0.1,0.1,0.3,0.3,0.3,0.6h1.5c0-0.7-0.3-1.3-0.8-1.7   c-0.3-0.3-0.7-0.4-1.1-0.5v-1.1h-1.5V23c-0.4,0.1-0.8,0.3-1.1,0.5c-0.5,0.4-0.8,1.1-0.8,1.7c0,0.7,0.3,1.3,0.8,1.7   c0.5,0.4,1.1,0.7,1.8,0.7c0.3,0,0.6,0.1,0.9,0.3c0.1,0.1,0.3,0.3,0.3,0.6S13,29.1,12.9,29.2z"/><path d="M12.1,35c4.5,0,8.1-3.6,8.1-8.1c0-4.5-3.6-8.1-8.1-8.1S4,22.5,4,26.9C4,31.4,7.6,35,12.1,35z M12.1,20.4   c3.6,0,6.6,3,6.6,6.6c0,3.6-3,6.6-6.6,6.6c-3.6,0-6.6-3-6.6-6.6C5.5,23.3,8.4,20.4,12.1,20.4z"/><path d="M30.9,38.4l-3.4,7.3l-3.4-7.3H0l4.3,9.2v16.7h35.1V47.6l4.3-9.2H30.9z M31.8,39.9h9.5l-3.2,6.8h-9.5L31.8,39.9z M23.2,39.9   l3.2,6.8H5.5l-3.2-6.8H23.2z M5.8,62.8V48.1h21v14.6H5.8z M37.9,62.8h-9.6V48.1h9.6V62.8z"/><path d="M60.4,3.8V2.2H65V0.7h-6.1v2.8L36,0.7l-5.2,5.2c-0.4,0-0.8-0.1-1.2-0.1c-5.3,0-9.6,4.3-9.6,9.6c0,5.3,4.3,9.6,9.6,9.6   c2.9,0,5.5-1.2,7.3-3.4h13.8c2,0,3.8-0.8,5.2-2.3l1.5-1.7h1.4v2.8h4.9v-1.5h-3.4v-1.3V3.8z M29.7,23.5c-4.5,0-8.1-3.6-8.1-8.1   c0-4.5,3.6-8.1,8.1-8.1c4.4,0,8.1,3.6,8.1,8c-2.8,0.2-5.1,2.6-5.1,5.5v0.7h2.3C33.5,22.8,31.7,23.5,29.7,23.5z M39.3,15.4   c0-2.2-0.8-4.2-2-5.8l1.6-1.6l4.9,4.9c0.4,0.4,0.4,1.1,0,1.5c-0.7,0.7-1.6,1-2.5,1H39.3z M56.8,16.1l-1.9,2.2c-1,1.1-2.5,1.8-4,1.8   H34.2c0.4-1.8,2-3.2,3.9-3.2h3.1c1.3,0,2.6-0.5,3.5-1.5c1-1,1-2.6,0-3.6l-6-6l-2.6,2.6c-1-1-2.3-1.7-3.6-2.1l4-4l22.3,2.8v11H56.8z   "/><path d="M30.4,12.8c0.2,0.2,0.4,0.5,0.4,0.7h1.5c0-0.7-0.3-1.4-0.9-1.9c-0.4-0.3-0.8-0.5-1.3-0.6V9.8h-1.5v1.3   c-0.5,0.1-0.9,0.3-1.3,0.6c-0.6,0.5-0.9,1.2-0.9,1.9c0,0.7,0.3,1.4,0.9,1.9c0.5,0.5,1.3,0.7,2,0.7c0.4,0,0.8,0.1,1,0.4   c0.2,0.2,0.4,0.5,0.4,0.7c0,0.3-0.1,0.5-0.4,0.7c-0.5,0.5-1.5,0.5-2.1,0c-0.2-0.2-0.4-0.5-0.4-0.7h-1.5c0,0.7,0.3,1.4,0.9,1.9   c0.4,0.3,0.8,0.5,1.3,0.6v1.3h1.5v-1.3c0.5-0.1,0.9-0.3,1.3-0.6c0.6-0.5,0.9-1.2,0.9-1.9c0-0.7-0.3-1.4-0.9-1.9   c-0.5-0.5-1.3-0.7-2-0.7c-0.4,0-0.8-0.1-1-0.4c-0.2-0.2-0.4-0.5-0.4-0.7c0-0.3,0.1-0.5,0.4-0.7C28.8,12.3,29.8,12.3,30.4,12.8z"/></g></svg>
