<svg xmlns="http://www.w3.org/2000/svg" viewBox="0 0 100 125" x="0px" y="0px"><path d="m48.01 5c-1.983 0-3.832 1.929-3.832 4.507 0 .527.086 1.056.219 1.551-.989-.938-2.24-1.66-3.704-1.66-2.145 0-3.777 1.42-3.777 3.412 0 1.856 1.463 3.791 3.887 4.489-2.423.698-3.887 2.651-3.887 4.507 0 1.992 1.632 3.394 3.777 3.394 1.464 0 2.715-.704 3.704-1.642-.133.495-.219 1.024-.219 1.551 0 2.579 1.85 4.507 3.832 4.507 1.983 0 3.832-1.929 3.832-4.507 0-.527-.086-1.056-.219-1.551.989.938 2.24 1.642 3.704 1.642 2.145 0 3.777-1.402 3.777-3.394 0-1.856-1.463-3.809-3.887-4.507 2.423-.698 3.887-2.633 3.887-4.489 0-1.992-1.632-3.412-3.777-3.412-1.464 0-2.715.723-3.704 1.66.133-.495.219-1.024.219-1.551 0-2.579-1.85-4.507-3.832-4.507m0 8.868c1.897 0 3.43 1.534 3.43 3.43 0 1.897-1.534 3.449-3.43 3.449-1.897 0-3.43-1.552-3.43-3.449 0-1.897 1.534-3.43 3.43-3.43" color="#000"/><path d="m67.47 22.16c-12.06 5.531-15.424 14.813-17.906 23.563 10.14-5.682 12.935-10.95 17.906-23.563m-17.906 23.563v-14.875h-3.125v20.06 3.25h-25.438l9.75 30.563 33.656.063 11.469-36.19h9.344v-2.906h-11.813l-2.781 8.469h-21.06v-8.438m-3.125 5.188c-2.483-8.75-5.81-18.03-17.875-23.563 4.971 12.612 7.735 17.881 17.875 23.563" color="#000"/><path d="m41.39444 90.74918a4.171495 4.171495 0 0 1 -8.34299 0 4.171495 4.171495 0 1 1 8.34299 0" color="#000"/><path d="m62.12677 90.82851a4.171495 4.171495 0 0 1 -8.34299 0 4.171495 4.171495 0 1 1 8.34299 0" color="#000"/></svg>
