<svg xmlns="http://www.w3.org/2000/svg" xmlns:xlink="http://www.w3.org/1999/xlink" version="1.1" x="0px" y="0px" viewBox="0 0 160 200" style="enable-background:new 0 0 160 160;" xml:space="preserve"><g><path d="M115,13.7L104,43.7l0.5,13.6c0.2,2.6-2.6,14.7-4.4,21.7l-0.1,0.2v0.2c0,0,0,0.1-0.1,0.1c-0.1,0-0.1,0-0.1,0   c-3.4-1-5.7-4.1-5.7-7.6l0.1-12.9l-12.7,0c-2.7-0.1-5.4,0.6-7.7,2.1L45,78.9c-2.2,1.2-5,1-7-0.6l23.6-21.1c2.8-2.5,5.9-4.9,9-6.9   l17-11.2l8.2-25.3h-4.2l-7.4,22.7L68.5,46.8c-3.3,2.2-6.5,4.7-9.5,7.3L34.5,76c-1.1,0.9-1.4,2.4-0.8,3.7c0.4,1,1.3,1.7,2.3,2   c3.2,2.3,7.5,2.6,11,0.6L76,64.6c1.7-1,3.6-1.5,5.6-1.5l8.7,0l-0.1,8.9c0,5.3,3.5,10,8.6,11.5c0.4,0.1,0.8,0.2,1.2,0.2   c0.9,0,1.8-0.3,2.5-0.8c1-0.7,1.6-1.8,1.7-3c0.7-2.7,4.7-18.7,4.4-22.7L108,44.4l11.3-30.7H115z"/><path d="M42.7,112l1,0.5l1-0.5c6.8-3.8,14.5-5.2,21.9-4.2c0.4-1.3,1.2-2.6,2.2-3.7c-8.5-1.5-17.3-0.2-25.1,3.9   c-11.1-5.7-24-5.8-35.2-0.4v4.5C19.2,106.2,32,106.1,42.7,112z"/><path d="M42.8,128.9l1,0.5l1-0.5c0.6-0.4,1.3-0.7,1.9-1c-0.3-1.2-0.4-2.5-0.3-3.9c0-0.1,0-0.3,0.1-0.4c-0.9,0.4-1.8,0.8-2.6,1.2   c-11.1-5.7-24.1-5.8-35.2-0.4v4.5C19.2,123.1,32,123,42.8,128.9z"/><path d="M84.9,139.5c-1.7,0.6-3.3,1.3-4.9,2.1c-11.4-5.9-24.8-5.8-36.3,0.1c-11.1-5.7-24.1-5.8-35.3-0.3v4.4l0,0.1   c10.7-6,23.6-6,34.3-0.1l1,0.5l1-0.5c10.7-6,23.6-6,34.3-0.1l1,0.5l1-0.5c1.4-0.8,2.9-1.5,4.4-2.1C85,142.3,84.8,141,84.9,139.5z"/><path d="M116.2,107.8c-9.7-5-20.9-5.7-31-2.1c0.5,1.3,0.7,2.7,0.6,4.1c9.6-3.6,20.3-2.9,29.5,2.1l1,0.5l1-0.5   c10.7-6,23.6-6,34.3-0.1l0-0.1v-4.4C140.3,101.8,127.3,102,116.2,107.8z"/><path d="M116.2,124.7c-11.4-5.9-24.8-5.8-36.3,0.1c-5.3-2.7-11-4.2-16.8-4.3c0.5,1.2,0.8,2.6,0.8,4c5.2,0.3,10.3,1.7,15.1,4.3   l1,0.5l1-0.5c10.7-6,23.6-6,34.3-0.1l1,0.5l1-0.5c10.7-6,23.5-6,34.3-0.1v-4.5C140.3,118.7,127.3,118.9,116.2,124.7z"/><path d="M116.3,141.5c-4.1-2.1-8.4-3.4-12.9-4c0.1,1.3-0.1,2.6-0.6,4c4.3,0.6,8.5,1.9,12.5,4.1l1,0.5l1-0.5   c10.7-5.9,23.5-6,34.2-0.2v-4.5C140.3,135.6,127.4,135.8,116.3,141.5z"/><g><path d="M53.9,99.7c-1.1,0-2.2-0.3-3-1c-2.6-1.9-2.9-5.9-0.6-9.1c1.2-1.7,3-2.9,4.9-3.2c1.4-0.2,2.9,0.1,4,0.9    c2.6,1.9,2.9,5.9,0.6,9.1c-1.2,1.7-3,2.9-4.9,3.2C54.5,99.6,54.2,99.7,53.9,99.7z M56.1,90.3c-0.1,0-0.2,0-0.3,0    c-0.8,0.1-1.7,0.7-2.3,1.6c-1,1.4-1,3-0.3,3.5c0.3,0.2,0.7,0.2,1,0.2c0.8-0.1,1.7-0.7,2.3-1.6l0,0c1-1.4,1-3,0.3-3.5    C56.6,90.4,56.3,90.3,56.1,90.3z"/></g><g><path d="M76.3,85.3c-1.3,0-2.6-0.5-3.7-1.4c-1.2-1.1-2.1-2.6-2.5-4.4c-0.8-3.9,1-7.4,4.2-8.1c1.6-0.3,3.3,0.1,4.7,1.3    c1.2,1.1,2.1,2.6,2.5,4.4c0.8,3.9-1,7.4-4.2,8.1C77,85.3,76.6,85.3,76.3,85.3z M75.4,75.3c-0.1,0-0.1,0-0.2,0    c-0.8,0.2-1.5,1.7-1.2,3.4c0.2,0.9,0.6,1.7,1.2,2.2c0.2,0.2,0.7,0.5,1.2,0.4c0.8-0.2,1.5-1.7,1.2-3.4l0,0    c-0.2-0.9-0.6-1.7-1.2-2.2C76.2,75.6,75.8,75.3,75.4,75.3z"/></g><g><path d="M93.1,145.9c-1.1,0-2.2-0.3-3-1c-2.6-1.9-2.9-5.9-0.6-9.1c1-1.4,2.5-2.5,4-3c1.7-0.5,3.5-0.3,4.8,0.7    c2.6,1.9,2.9,5.9,0.6,9.1c-1.2,1.7-3,2.9-4.9,3.2C93.7,145.9,93.4,145.9,93.1,145.9z M95.3,136.5c-0.2,0-0.5,0.1-0.6,0.1    c-0.7,0.2-1.4,0.8-2,1.5c-1,1.4-1,3-0.3,3.5c0.3,0.2,0.7,0.2,1,0.2c0.8-0.1,1.7-0.7,2.3-1.6l0,0c1-1.4,1-3,0.3-3.5    C95.8,136.6,95.5,136.5,95.3,136.5z"/></g><g><path d="M74.9,115.8c-0.4,0-0.8,0-1.1-0.1c-1.8-0.3-3.2-1.3-4-2.7c-1.5-2.9,0-6.6,3.5-8.4c1.6-0.8,3.3-1.2,4.9-0.9    c1.8,0.3,3.2,1.3,4,2.7c1.5,2.9,0,6.6-3.5,8.4C77.4,115.4,76.1,115.8,74.9,115.8z M77,107.5c-0.6,0-1.3,0.2-1.9,0.5    c-1.5,0.8-2.2,2.3-1.8,3c0.2,0.5,0.8,0.6,1.1,0.7c0.7,0.1,1.6-0.1,2.4-0.5c1.5-0.8,2.2-2.3,1.8-3c-0.2-0.5-0.8-0.6-1.1-0.7    C77.3,107.5,77.2,107.5,77,107.5z"/></g><g><path d="M55,131.8c-0.1,0-0.3,0-0.4,0c-3.3-0.3-5.5-3.6-5.2-7.5c0.1-1.8,0.8-3.4,1.9-4.6c1.2-1.3,2.8-2,4.5-1.9    c3.3,0.3,5.5,3.6,5.2,7.5c-0.1,1.8-0.8,3.4-1.9,4.6C57.9,131.1,56.4,131.8,55,131.8z M55.3,121.7c-0.5,0-0.9,0.4-1.1,0.6    c-0.5,0.6-0.8,1.4-0.9,2.3c-0.1,1.7,0.7,3.1,1.6,3.2c0.5,0,0.9-0.4,1.2-0.6c0.5-0.6,0.8-1.4,0.9-2.3    C57.1,123.2,56.2,121.8,55.3,121.7C55.4,121.7,55.3,121.7,55.3,121.7z"/></g></g></svg>
