<svg xmlns="http://www.w3.org/2000/svg" xmlns:xlink="http://www.w3.org/1999/xlink" version="1.1" x="0px" y="0px" viewBox="0 0 90 112.5" enable-background="new 0 0 90 90" xml:space="preserve"><path d="M4.595,35.588c2.323,1.99,5.046,3.422,8.109,4.181l0,0c-1.619,4.017-2.511,8.402-2.511,12.992  c0,7.007,2.065,13.72,5.901,19.421c0.354,0.524,2.787,3.469,5.532,3.469c4.962,0,14.89,0,17.378,0c4.994,0,5.073,0.302,5.073,0.302  c1.082-6.222,0.535-12.254-0.306-15.976c0,0-8.146,0.655-12.399-4.611c-4.252-5.267-4.858-17.303-4.858-17.303  s11.856,1.493,16.054,6.805c2.987,3.78,2.665,7.326,2.665,7.059c0,0,0.379-1.995,1.99-4.145c2.909-3.878,10.507-5.956,10.507-5.956  s0.97,9.106-1.764,13.109c-2.733,4.004-7.394,5.045-7.394,5.045c0.815,4.114,1.227,9.569,0.112,15.973c0,0,0.328-0.302,4.652-0.302  c3.028,0,10.638,0,14.926,0c3.09,0,5.419-2.994,5.786-3.543c3.832-5.731,5.857-12.421,5.857-19.347c0,0-0.833-8.822-2.478-12.933  c-0.933-2.332,0.202-4.978,2.534-5.91c2.332-0.933,4.978,0.203,5.909,2.534C87.947,41.642,89,47.129,89,52.762  c0,8.731-2.556,17.169-7.392,24.399c-1.479,2.214-3.171,4.305-5.028,6.217c0,0-2.032,1.379-3.261,1.379L16.783,84.76  c-1.229,0-2.405-0.496-3.261-1.379C5.512,75.135,1.101,64.261,1.101,52.762C1.101,46.672,2.346,40.866,4.595,35.588L4.595,35.588z   M34.624,10.061c1.595,2.606,2.564,5.465,2.815,8.679l0.057-0.01c2.434-0.54,4.961-0.824,7.554-0.824  c3.482,0,6.88,0.501,10.146,1.496l-5.069,6.868c-1.052,1.424-1.181,3.33-0.331,4.883c0.801,1.463,2.335,2.363,3.987,2.363  c0.101,0,0.203-0.003,0.305-0.01l20.263-1.354c1.334-0.089,2.562-0.76,3.355-1.836c0,0,1.074-2.445,0.767-3.747L73.8,6.806  c-0.408-1.723-1.778-3.053-3.514-3.408c-1.735-0.354-3.518,0.329-4.569,1.753l-4.863,6.588c-4.44-1.715-11.85-2.9-15.527-2.886  C42.603,8.865,37.967,9.245,34.624,10.061L34.624,10.061z M30.435,12.391c0-0.868-0.704-1.572-1.573-1.572H10.153  c-0.868,0-1.571,0.704-1.571,1.572v2.679c0,0.869,0.703,1.573,1.571,1.573h18.708c0.869,0,1.573-0.704,1.573-1.573V12.391z   M13.119,18.911c0-0.569-0.46-1.029-1.028-1.029H9.61c-0.567,0-1.028,0.46-1.028,1.029v2.48c0,0.568,0.461,1.029,1.028,1.029h2.48  c0.568,0,1.028-0.461,1.028-1.029V18.911z M18.892,18.911c0-0.569-0.461-1.029-1.03-1.029h-2.479c-0.568,0-1.029,0.46-1.029,1.029  v2.48c0,0.568,0.461,1.029,1.029,1.029h2.479c0.569,0,1.03-0.461,1.03-1.029V18.911z M24.662,18.911c0-0.569-0.46-1.029-1.029-1.029  h-2.479c-0.568,0-1.03,0.46-1.03,1.029v2.48c0,0.568,0.462,1.029,1.03,1.029h2.479c0.569,0,1.029-0.461,1.029-1.029V18.911z   M24.662,18.911c0-0.569-0.46-1.029-1.029-1.029h-2.479c-0.568,0-1.03,0.46-1.03,1.029v2.48c0,0.568,0.462,1.029,1.03,1.029h2.479  c0.569,0,1.029-0.461,1.029-1.029V18.911z M30.435,18.911c0-0.569-0.461-1.029-1.03-1.029h-2.479c-0.568,0-1.029,0.46-1.029,1.029  v2.48c0,0.568,0.461,1.029,1.029,1.029h2.479c0.569,0,1.03-0.461,1.03-1.029V18.911z M13.119,24.728c0-0.569-0.46-1.029-1.028-1.029  H9.61c-0.567,0-1.028,0.46-1.028,1.029v2.479c0,0.569,0.461,1.03,1.028,1.03h2.48c0.568,0,1.028-0.461,1.028-1.03V24.728z   M18.892,24.728c0-0.569-0.461-1.029-1.03-1.029h-2.479c-0.568,0-1.029,0.46-1.029,1.029v2.479c0,0.569,0.461,1.03,1.029,1.03h2.479  c0.569,0,1.03-0.461,1.03-1.03V24.728z M24.662,24.728c0-0.569-0.46-1.029-1.029-1.029h-2.479c-0.568,0-1.03,0.46-1.03,1.029v2.479  c0,0.569,0.462,1.03,1.03,1.03h2.479c0.569,0,1.029-0.461,1.029-1.03V24.728z M24.662,24.728c0-0.569-0.46-1.029-1.029-1.029h-2.479  c-0.568,0-1.03,0.46-1.03,1.029v2.479c0,0.569,0.462,1.03,1.03,1.03h2.479c0.569,0,1.029-0.461,1.029-1.03V24.728z M30.435,24.728  c0-0.569-0.461-1.029-1.03-1.029h-2.479c-0.568,0-1.029,0.46-1.029,1.029v2.479c0,0.569,0.461,1.03,1.029,1.03h2.479  c0.569,0,1.03-0.461,1.03-1.03V24.728z M13.119,30.408c0-0.568-0.46-1.029-1.028-1.029H9.61c-0.567,0-1.028,0.46-1.028,1.029v2.48  c0,0.568,0.461,1.029,1.028,1.029h2.48c0.568,0,1.028-0.461,1.028-1.029V30.408z M18.892,30.408c0-0.568-0.461-1.029-1.03-1.029  h-2.479c-0.568,0-1.029,0.46-1.029,1.029v2.48c0,0.568,0.461,1.029,1.029,1.029h2.479c0.569,0,1.03-0.461,1.03-1.029V30.408z   M24.662,30.408c0-0.568-0.46-1.029-1.029-1.029h-2.479c-0.568,0-1.03,0.46-1.03,1.029v2.48c0,0.568,0.462,1.029,1.03,1.029h2.479  c0.569,0,1.029-0.461,1.029-1.029V30.408z M24.662,30.408c0-0.568-0.46-1.029-1.029-1.029h-2.479c-0.568,0-1.03,0.46-1.03,1.029  v2.48c0,0.568,0.462,1.029,1.03,1.029h2.479c0.569,0,1.029-0.461,1.029-1.029V30.408z M30.435,30.408  c0-0.568-0.461-1.029-1.03-1.029h-2.479c-0.568,0-1.029,0.46-1.029,1.029v2.48c0,0.568,0.461,1.029,1.029,1.029h2.479  c0.569,0,1.03-0.461,1.03-1.029V30.408z"/></svg>
