<svg xmlns="http://www.w3.org/2000/svg" xmlns:xlink="http://www.w3.org/1999/xlink" version="1.0" x="0px" y="0px" viewBox="0 0 100 125" enable-background="new 0 0 100 100" xml:space="preserve"><g><g><circle cx="16.645813" cy="26.75" r="2"/><circle cx="21" cy="19.208374" r="2"/><circle cx="25.354187" cy="26.75" r="2"/><circle cx="42.770813" cy="26.75" r="2"/><circle cx="25.354187" cy="41.833313" r="2"/><circle cx="42.770813" cy="41.833313" r="2"/><circle cx="51.479187" cy="26.75" r="2"/><circle cx="38.416687" cy="19.208374" r="2"/><circle cx="64.541748" cy="19.208374" r="2"/><circle cx="77.604187" cy="26.75" r="2"/><circle cx="34.0625" cy="41.833313" r="2"/><circle cx="38.416687" cy="34.2915649" r="2"/><circle cx="29.708313" cy="34.2915649" r="2"/><path d="M65.3942261,46.5h9.8912354c1.1246948-5.0075684,7.2109985-10.2782593,7.2109985-10.2782593    c-8.4039917-0.4981689-11.4692993,4.8878174-11.4692993,4.8878174    c-4.3520508-9.4438477-14.0716553-8.1143799-14.0716553-8.1143799C61.4475708,36.5107422,64.0330811,42.3372803,65.3942261,46.5z"/><polygon points="45.9521484,77.8394165 43.3432617,89.5087891 71.9406128,89.5087891 64.6826172,79.1948242   "/><polygon points="70.203064,61.3887329 59.9121094,59.4389648 50.9511719,64.0678711 46.8808594,74.8989258 64.5002441,76.1737061       "/><polygon points="49.9439697,61.2116699 58.1571655,56.9689941 57.9401245,49.5 48.8461914,49.5 44.3498535,56.5656738   "/><polygon points="30.4317017,57.1154175 41.4775391,55.4907227 45.2900391,49.5 26.1921997,49.5   "/><polygon points="60.9406738,49.5 61.147583,56.6195068 71.8886719,58.6547852 84.3713989,49.5   "/><polygon points="30.6130981,60.1206055 25.6833496,69.8794556 43.8377686,74.4674072 47.9702148,63.4713135     41.9315186,58.4561157   "/><polygon points="67.1878662,77.5422363 75.6087646,89.5087891 86.9075928,89.5087891 86.9075928,74.3361206     72.8994141,62.7353516   "/><polygon points="74.6883545,60.3214722 86.9075928,70.4404907 86.9075928,51.3595581   "/><polygon points="12.5924072,81.9512329 12.5924072,89.5087891 40.2692871,89.5087891 42.9882812,77.3466797 23.875,72.5166626       "/><polygon points="12.5924072,65.7021484 12.5924072,78.0408936 20.9658813,71.0391235   "/><path d="M22.9087524,68.7191162l5.0180054-9.9349365L22.758728,49.5H12.5924072v12.704895    c0.1165161,0.038269,0.2310791,0.0861816,0.3392334,0.1549683L22.9087524,68.7191162z"/></g></g></svg>
