<svg xmlns="http://www.w3.org/2000/svg" xmlns:xlink="http://www.w3.org/1999/xlink" version="1.1" x="0px" y="0px" viewBox="0 0 100 125" enable-background="new 0 0 100 100" xml:space="preserve"><g><path fill-rule="evenodd" clip-rule="evenodd" d="M8.4,40.5c0-0.2,0-0.3,0-0.5c1.7-3.1,4.1-7,3.9-11.5c-0.2-4.1-2.3-7.8-3.9-10.6   c0-0.2,0-0.5,0-0.7c1.6-1.1,3.1,1,4.6,2c3.3,2.3,6.9,4.7,9.8,6.8c5.5-3.7,11.3-7.1,18.6-9c0-2.9,0-5.7,0-8.6   c2.5,1.1,5.1,2.5,7.9,3.9c2.5,1.3,5.2,3.2,7.8,4.1c1.3,0.4,2.6,0.4,3.9,0.7c1.2,0.3,2.3,0.8,3.4,1.2c6.9,2.3,13.2,5.3,17.2,10.6   c-3,4.3-7.6,7-12.8,9.1c-6.5,2.7-14.2,4.7-22.5,3.7c-1.3-0.2-2.9-0.8-4.1-0.7c-1.1,0.2-2.8,1.5-4.1,2.2c-1.4,0.8-2.8,1.9-4.1,2   c0-2.3,0-4.6,0-6.9c-3.6-2.3-7.6-4.3-11.2-6.6c-3,1.8-6.9,4.7-10,6.9C11.6,39.7,9.4,42,8.4,40.5z M64,27c-0.6,6,8.2,5.1,7.4-0.2   c-0.3-2.1-2.5-3.4-4.7-2.9C65,24.4,64.2,25.7,64,27z"/><path fill-rule="evenodd" clip-rule="evenodd" d="M91.6,63c0,0.3,0,0.6,0,0.8C90.1,66.6,88,70,87.7,74c-0.4,4.7,2.1,8.7,3.9,11.8   c0,0.2,0,0.3,0,0.5C91,88,88.5,85.7,87.5,85c-3.3-2.4-7.4-5.3-10.1-7.4c-3.7,2.2-7.6,4.4-11.3,6.6c0,2.5,0,5,0,7.4   c-0.1,0-0.1,0-0.2,0c-1.1-0.7-2.5-1.7-4.1-2.5c-1.2-0.7-3.1-2.1-4.2-2.2c-0.7-0.1-1.8,0.4-2.7,0.5c-11.6,1.9-22-2.2-29.4-6.4   c-2.1-1.2-7.2-4-7.1-6.3c0.1-1.3,3.3-3.6,4.7-4.6c4-2.7,8-4.6,12.5-6.1c2.4-0.8,5-0.8,7.6-1.7c1.2-0.4,2.6-1.4,3.9-2   c4-2,7.8-4.2,11.7-5.7c0,2.8,0,5.6,0,8.5c7.3,1.8,13,5.3,18.6,8.8c3.1-2,7-5.1,10.3-7.4C88.7,63.7,91,61.8,91.6,63z M31.1,70.5   c-0.6,6,8.2,5.1,7.4-0.2c-0.3-1.9-1.7-3.5-4.6-2.9C32.1,67.8,31.2,69.1,31.1,70.5z"/></g><text x="0" y="115" fill="#000000" font-size="5px" font-weight="bold" font-family="'Helvetica Neue', Helvetica, Arial-Unicode, Arial, Sans-serif">Created by sagit milshtein</text><text x="0" y="120" fill="#000000" font-size="5px" font-weight="bold" font-family="'Helvetica Neue', Helvetica, Arial-Unicode, Arial, Sans-serif">from the Noun Project</text></svg>