<svg xmlns="http://www.w3.org/2000/svg" xmlns:xlink="http://www.w3.org/1999/xlink" version="1.1" x="0px" y="0px" viewBox="0 0 100 125" enable-background="new 0 0 100 100" xml:space="preserve"><g><path d="M22.287,49.406c4.27,0,8.854-5.673,8.854-11.501c0-5.829-3.963-9.605-8.854-9.605c-4.889,0-8.854,3.776-8.854,9.605   C13.434,43.733,17.878,49.406,22.287,49.406z"/><path d="M77.711,49.406c4.27,0,8.854-5.673,8.854-11.501c0-5.829-3.964-9.605-8.854-9.605s-8.854,3.776-8.854,9.605   C68.857,43.733,73.302,49.406,77.711,49.406z"/><path d="M50.149,51.646c6.547,0,13.577-8.701,13.577-17.638c0-8.938-6.078-14.729-13.577-14.729   c-7.498,0-13.577,5.791-13.577,14.729C36.572,42.945,43.388,51.646,50.149,51.646z"/><path d="M74.438,66.863c-1.641-3.253-2.837-4.892-5.065-7.208c-1.926-2.002-7.674-4.823-11.384-3.582   c-2.959,0.648-3.099,2.352-7.839,2.352s-4.881-1.704-7.841-2.352c-3.71-1.241-9.457,1.58-11.384,3.582   c-2.229,2.316-3.424,3.956-5.064,7.208c-0.823,1.631-2.538,6.388-1.474,8.435c1.346,2.59,4.623,3.662,13.63,4.763   c5.395,0.66,12.133,0.66,12.133,0.66s6.736,0,12.132-0.66c9.007-1.101,12.282-2.173,13.63-4.763   C76.977,73.251,75.261,68.494,74.438,66.863z"/><g><path d="M93.549,59.329c-1.068-2.122-1.849-3.189-3.302-4.701c-1.256-1.306-5.004-3.145-7.423-2.336    c-1.932,0.423-2.021,1.534-5.112,1.534c-3.091,0-3.182-1.111-5.112-1.534c-1.945-0.65-4.745,0.411-6.423,1.53    c2.308,0.951,4.359,2.271,5.58,3.54c2.536,2.636,3.905,4.583,5.636,8.013c0.335,0.665,0.787,1.74,1.192,2.983    c1.454-0.023,4.474-0.108,7.037-0.422c5.874-0.718,8.011-1.417,8.889-3.106C95.205,63.495,94.087,60.392,93.549,59.329z"/></g><g><path d="M22.908,65.374c1.73-3.431,3.099-5.377,5.635-8.013c1.188-1.234,3.162-2.517,5.394-3.461    c-1.662-1.147-4.547-2.272-6.537-1.607c-1.93,0.423-2.021,1.534-5.111,1.534c-3.092,0-3.183-1.111-5.112-1.534    c-2.42-0.809-6.167,1.03-7.424,2.336c-1.453,1.511-2.232,2.579-3.303,4.701c-0.536,1.063-1.654,4.166-0.961,5.5    c0.878,1.69,3.014,2.388,8.887,3.106c2.748,0.336,6.019,0.41,7.325,0.426C22.252,66.699,22.849,65.492,22.908,65.374z"/></g></g><text x="0" y="115" fill="#000000" font-size="5px" font-weight="bold" font-family="'Helvetica Neue', Helvetica, Arial-Unicode, Arial, Sans-serif">Created by Rigo Peter</text><text x="0" y="120" fill="#000000" font-size="5px" font-weight="bold" font-family="'Helvetica Neue', Helvetica, Arial-Unicode, Arial, Sans-serif">from the Noun Project</text></svg>
