<svg xmlns="http://www.w3.org/2000/svg" xmlns:xlink="http://www.w3.org/1999/xlink" version="1.1" x="0px" y="0px" viewBox="0 0 100 125" enable-background="new 0 0 100 100" xml:space="preserve"><g><path d="M95,49.474c-0.001-0.057-0.006-0.154-0.005-0.127l-0.044-0.708c-0.029-0.471-0.059-0.941-0.087-1.409   c-0.029-0.468-0.058-0.935-0.087-1.4c-0.032-0.466-0.041-0.922-0.137-1.409c-0.988-7.721-3.889-14.446-7.687-19.872   c-3.831-5.405-8.487-9.412-12.981-12.227c-4.502-2.857-8.929-4.386-12.57-5.37c-0.922-0.222-1.793-0.433-2.614-0.631   c-0.824-0.175-1.615-0.248-2.341-0.365c-0.729-0.105-1.401-0.201-2.018-0.29c-0.617-0.086-1.188-0.066-1.693-0.1   c-2.024-0.084-3.104-0.128-3.104-0.128h-0.007c0,0-1.076,0.054-3.092,0.157c-0.504,0.039-1.069,0.024-1.685,0.115   c-0.616,0.094-1.289,0.197-2.017,0.308c-0.725,0.123-1.515,0.203-2.337,0.386c-0.816,0.21-1.682,0.433-2.598,0.669   c-3.616,1.044-7.99,2.638-12.416,5.535c-4.418,2.862-8.966,6.891-12.694,12.262c-3.693,5.373-6.457,12.105-7.431,19.571   c-0.157,0.927-0.144,1.879-0.224,2.828c-0.029,0.476-0.058,0.953-0.087,1.432L5,49.421c0,0.017,0,0.03,0.001,0.046   c0,0.284,0.018,0.464,0.025,0.705c0.108,1.902,0.078,3.805,0.453,5.792c0.458,3.981,1.691,7.845,3.269,11.646   c0.442,0.933,0.885,1.865,1.33,2.804c0.458,0.931,1.047,1.796,1.569,2.702l0.809,1.348c0.3,0.432,0.62,0.85,0.931,1.271   c0.638,0.84,1.228,1.722,1.913,2.529c2.721,3.264,5.957,6.137,9.512,8.62c3.609,2.417,7.604,4.281,11.781,5.653   c4.214,1.29,8.619,1.896,13.04,2.023l0,0l0,0l3.287-0.141c0.021-0.001,0.042-0.001,0.063-0.002   c0.453-0.027,0.897-0.025,1.358-0.085c0.069-0.008,0.134-0.006,0.204-0.021l0.332-0.047l1.332-0.188l1.664-0.241l0.832-0.122   l0.805-0.195l3.217-0.806c4.213-1.315,8.26-3.136,11.935-5.521c3.614-2.453,6.937-5.305,9.72-8.582   c0.702-0.813,1.311-1.697,1.965-2.539c0.318-0.428,0.647-0.848,0.956-1.28l0.835-1.356c0.539-0.912,1.146-1.783,1.62-2.723   c0.462-0.947,0.921-1.89,1.379-2.829c1.613-3.843,2.882-7.798,3.354-11.796c0.385-1.979,0.369-3.975,0.482-5.933l0.018-0.367   l0.008-0.183L95,49.513C95,49.509,95,49.494,95,49.474z M80.081,70.064l0.377,1.01c0,0-3.711,4.134-5.8,6.273   c-3.817,3.898-7.635,7.793-11.26,11.49c-0.558,0.206-1.105,0.426-1.668,0.61l-2.963,0.788l-0.742,0.195l-0.746,0.119l-1.495,0.242   l-1.382,0.227c5.256-5.137,11.188-10.963,17.142-16.789c2.49-2.43,4.972-4.842,7.407-7.221   C79.327,68.031,79.701,69.047,80.081,70.064z M75.6,78.289c2.793-2.725,5.58-5.434,8.297-8.09l1.979-0.504   c-0.331,0.568-0.678,1.125-1.007,1.697l-0.751,1.252l-0.867,1.179c-0.594,0.776-1.14,1.596-1.776,2.346   c-2.535,3.021-5.524,5.697-8.82,8.011c-2.141,1.44-4.438,2.647-6.823,3.682C69.009,84.745,72.298,81.52,75.6,78.289z    M81.977,68.264c-0.804-2.353-1.601-4.714-2.341-7.068c-0.206-0.668-0.417-1.348-0.585-1.985c-0.046-0.165-0.084-0.317-0.105-0.438   l-0.014-0.063V58.7c0.029-0.31,0.019-0.314,0.022-0.449v-0.295l-0.011-0.56c-0.047-1.461-0.133-2.883-0.23-4.318   c-0.1-1.434-0.215-2.861-0.383-4.308c-0.092-0.74-0.16-1.418-0.354-2.285l-0.055-0.195c-0.021-0.072-0.027-0.117-0.085-0.253   c-0.08-0.135,0.017-0.127-0.369-0.595c-0.077-0.084-0.163-0.159-0.253-0.223c-0.445-0.254-0.129-0.072-0.229-0.129l-0.008-0.003   l-0.019-0.006l-0.063-0.023l-0.144-0.051l-0.246-0.073c-0.153-0.044-0.354-0.09-0.478-0.112c-0.387-0.069-0.758-0.127-1.117-0.178   c-2.564-0.366-5.085-0.592-7.621-0.811l-1.669-4.432l-1.785-4.594c2.024-2.574,4.024-5.169,6.029-7.761l0.45-0.583l-0.023-0.05   l0.098-0.007l5.166-0.354l0.764,1.551l0.121,0.249l0.289,0.042l4.312,0.627l1.077,0.157l0.27,0.039l0.245,0.045l0.536,0.097   l1.814,0.329l1.053,2l1.048,2.326c0.317,0.787,0.604,1.589,0.907,2.381c0.279,0.801,0.501,1.622,0.755,2.432   c0.241,0.813,0.396,1.65,0.601,2.472c0.204,0.823,0.287,1.67,0.439,2.503c0.164,0.832,0.188,1.683,0.279,2.524   c0.104,0.841,0.099,1.69,0.121,2.535c0.006,0.412,0.028,0.871,0.021,1.243L90.158,50.9c-0.016,0.877-0.104,1.709-0.197,2.535   c-0.064,0.828-0.215,1.662-0.354,2.496c-0.115,0.836-0.33,1.652-0.512,2.479c-0.164,0.828-0.445,1.628-0.67,2.439   c-0.22,0.813-0.55,1.594-0.816,2.394c-0.286,0.792-0.646,1.557-0.963,2.337c-0.28,0.609-0.582,1.209-0.877,1.811L81.977,68.264z    M37.465,89.624c-1.543-0.487-3.062-1.048-4.545-1.683c0.816-0.793,1.674-1.629,2.582-2.512c1.188-1.152,2.465-2.396,3.781-3.679   l1.789,1.106l2.565,1.594c-1.586,1.626-3.095,3.176-4.493,4.617c-0.265,0.271-0.518,0.531-0.775,0.798   C38.068,89.789,37.765,89.712,37.465,89.624z M18.621,77.865c1.39-1.354,10.555-10.271,13.865-13.51   c0.353,1.859,1.102,5.773,1.102,5.773c-2.37,2.428-9.761,10.025-11.088,11.391C21.13,80.376,19.834,79.157,18.621,77.865z    M17.37,76.509c-0.654-0.752-1.216-1.575-1.827-2.354l-0.561-0.745c1.289-1.254,11.197-10.896,15.152-14.771l1.812,2.822   c0.108,0.604,0.225,1.205,0.337,1.807c-3.41,3.484-12.585,12.914-13.935,14.301C18.022,77.216,17.682,76.874,17.37,76.509z    M14.65,72.968l-0.776-1.259c-0.501-0.848-1.069-1.652-1.511-2.525c-0.136-0.274-0.27-0.551-0.405-0.826   c1.016-0.985,2.11-2.051,3.277-3.188c3.43-3.324,7.447-7.251,11.739-11.455l2.63,4.098c-3.929,4.015-13.633,13.981-14.876,15.262   L14.65,72.968z M29.353,11.743c1.074-0.53,2.109-1.04,3.104-1.531c0.49-0.263,1.013-0.422,1.509-0.61   c0.499-0.183,0.988-0.362,1.465-0.537c0.477-0.175,0.944-0.346,1.399-0.513c0.465-0.122,0.919-0.241,1.361-0.357   c-0.192,0.189-0.383,0.377-0.576,0.568l-1.083,0.373l0.565,0.138c-0.623,0.617-2.422,2.399-2.661,2.635   c-0.438,0.442-0.886,0.899-1.331,1.351l-1.103-0.839l3.207-1.64l-0.117-0.268l-3.686,1.407l-3.534,1.783l-3.36,2.115l-3.152,2.433   l-2.895,2.748l-2.629,3.015l-2.339,3.256l-1.818,3.112c0.772-1.598,1.618-3.125,2.537-4.557c3.421-5.273,7.736-9.276,11.974-12.13   C27.279,13.023,28.322,12.35,29.353,11.743z M84.124,27.719l-0.742-0.113l-0.538-0.082l-0.291-0.044l-0.27-0.032l-1.082-0.126   l-3.105-0.362c0.287-0.308,0.567-0.607,0.842-0.898l0.004,0.341l0.41-0.348l1.924-1.632l0.113-0.096l-0.041-0.135L80.88,22.67   l1.172,1.229l0.015,0.015l0.227-0.188l-1.658-2.211l-1.83-2.08l-1.971-1.96l-2.104-1.829l-0.4-0.346l-0.471,0.378l-0.332,0.268   L73.5,15.903c-0.212-0.321-0.443-0.634-0.664-0.951l-0.084-0.121c-0.27-0.62-0.629-1.127-1.021-1.597   c0.379,0.245,0.76,0.491,1.146,0.738c4.159,2.9,8.37,6.924,11.689,12.164c0.145,0.253,0.293,0.512,0.438,0.767   C84.723,27.164,84.43,27.434,84.124,27.719z M70.072,25.647l-0.102,0.086c-0.527-1.099-1.076-2.188-1.619-3.279l1.158-0.984   l0.896-0.759l0.447-0.379l0.461-0.419l3.052-2.813l1.726,1.245l2.098,1.723l1.982,1.862l0.133,0.138l0.579,2.104l-1.327,1.064   l-0.211-0.743l-4.054-2.962l-0.215-0.157l-0.21,0.179L70.072,25.647z M38.915,75.593l-0.247,0.466l0.161,0.532l0.581,1.925   l-1.461-0.945l-1.47-8.18c-0.535-2.925-1.039-5.854-1.608-8.773l-0.059-0.305l-0.158-0.244l-5.414-8.295   c0.371-2.564,0.701-5.14,1.045-7.709l0.124-0.929l-0.201-0.119l3.99-1.753l10.146,5.495l7.686,6.371l-3.148,7.721   c-1.682,2.422-3.387,4.838-5.105,7.225l-1.314,1.789c-0.127,0.168-0.271,0.354-0.4,0.518c-0.102,0.057-0.664,0.703-0.664,0.703   l-0.312,0.523C40.321,72.945,39.624,74.258,38.915,75.593z M7.834,55.499c-0.349-1.758-0.359-3.624-0.484-5.424   c-0.01-0.216-0.034-0.502-0.032-0.658l0.023-0.556c3.124-3.046,6.542-6.393,10.119-9.898l2.957,1.211l1.487,0.932   C16.773,46.339,11.913,51.299,7.834,55.499z M13.639,31.201l1.519-2.909l2.086-3.217l2.385-3.013l2.665-2.782l2.902-2.55   l3.135-2.278l3.226-1.907l3.056,2.424l0.13,0.104l0.139-0.098l4.26-3l5.21,0.1l1.795,4.457c-4.422,2.801-8.84,5.624-13.235,8.47   l-0.048,0.031l-0.047,0.048l-3.657,3.745l-0.152,0.156l-0.013,0.229l-0.146,2.517l-4.991-2.262l-0.293-0.133l-0.301,0.147   l-4.147,2.026l-0.552,0.27l0.174,0.603l1.342,4.656l0.104,0.361l-4.036-1.525C15.316,34.312,14.488,32.751,13.639,31.201z    M40.423,10.086l1.89,0.462l0.303,0.074l0.052-0.008c0.497-0.074,0.995-0.162,1.492-0.243c-0.341,0.329-0.687,0.67-1.033,1.009   l-4.071,0.041l-0.092,0.001l-0.07,0.051l-4.14,3.041l-0.278-0.212c0.397-0.39,0.798-0.784,1.186-1.168   c1.14-1.159,2.263-2.285,3.356-3.391L40.423,10.086z M46.011,9.912c0.193-0.451,0.379-0.907,0.563-1.365   c0.127-0.011,0.253-0.024,0.381-0.034l-0.965,1.45L46.011,9.912z M46.835,17.009l0.106-0.07l0.051,0.123l-4.275,2.779   c-0.059,0.058-0.116,0.115-0.175,0.173c-4.006,4.045-8.231,8.409-12.472,12.756c-0.004,0.004-0.009,0.009-0.013,0.013l0.003-0.067   l0.123-3.229l3.385-3.608C37.976,22.897,42.395,19.945,46.835,17.009z M25.533,35.2l1.06,0.455l0.458,0.196   c-0.219,0.223-0.438,0.447-0.656,0.67L25.533,35.2z M21.401,33.427c-0.202,0.206-0.405,0.414-0.606,0.619l-0.457-1.501l3.266-1.672   l0.212,0.091c-0.719,0.734-1.434,1.464-2.15,2.194L21.401,33.427z M22.588,33.936l1.531,0.657l-2.8,1.173l-0.137-0.451   C21.647,34.858,22.119,34.395,22.588,33.936z M23.323,33.215c0.583-0.571,1.162-1.139,1.748-1.712l4.101,1.761l0.291,0.125   c-0.005,0.005-0.011,0.011-0.016,0.017c-0.02-0.003-0.039-0.006-0.059-0.008c-0.668-0.042-1.346-0.018-2.017-0.041L23.323,33.215z    M21.649,37.971l-0.108-0.064l-0.085-0.032l-0.613-0.232l0.278-0.111l3.166-1.271l3.285,5.201L21.649,37.971z M27.076,37.564   c0.402-0.394,0.805-0.789,1.208-1.184l1.117,0.479c0.943,0.388,1.886,0.778,2.842,1.142l0.394,0.15c0,0-1.664,1.884-2.909,3.155   l-0.161,0.074L27.076,37.564z M32.159,36.538c0.269-0.021,0.539-0.042,0.811-0.085c0.189-0.022,0.379-0.056,0.57-0.094   c-0.322,0.158-0.644,0.317-0.966,0.476C32.437,36.734,32.297,36.638,32.159,36.538z M63.43,9.097   c0.111,0.043,0.219,0.085,0.332,0.129c0.473,0.182,0.956,0.369,1.45,0.56c0.491,0.196,1.009,0.362,1.491,0.633   c0.502,0.257,1.015,0.52,1.538,0.788c-0.599,0.554-1.226,1.139-1.916,1.789c-1.347,1.27-2.886,2.684-4.529,4.261   c-1.651,1.57-3.429,3.281-5.299,5.102c-1.88,1.81-3.817,3.764-5.849,5.76c-4.005,4.045-8.23,8.409-12.475,12.756   c-0.087,0.089-0.173,0.177-0.26,0.265l-3.25-1.698l-0.402-0.21l-0.4,0.183l-0.917,0.419c0.706-0.692,1.408-1.38,2.116-2.072   c4.347-4.241,8.711-8.465,12.756-12.471c1.996-2.029,3.953-3.967,5.76-5.847c1.819-1.87,3.53-3.647,5.104-5.298   c1.574-1.644,2.988-3.182,4.26-4.529C63.114,9.435,63.266,9.272,63.43,9.097z M61.212,33.709l-0.386,0.463   c-0.682,0.677-1.37,1.359-2.073,2.051c-3.448,3.481-7.06,7.201-10.703,10.941l-2.509-2.018l-0.083-0.067l-0.081-0.042l-0.882-0.461   c3.905-3.805,7.797-7.582,11.431-11.181c1.997-2.029,3.95-3.967,5.76-5.847c1.619-1.662,3.146-3.246,4.567-4.738   c0.46,1.101,0.918,2.203,1.388,3.301C65.49,28.638,63.335,31.161,61.212,33.709z M67.275,16.119l-0.4,1.19l0.995,0.293   c0.489,0.144,0.987,0.272,1.481,0.405c-1.086,1.015-2.262,2.106-3.504,3.301c-1.652,1.57-3.432,3.281-5.301,5.101   c-1.88,1.81-3.816,3.764-5.848,5.76c-3.694,3.73-7.575,7.731-11.482,11.74l-4.069-2.125c4.336-4.231,8.689-8.444,12.724-12.441   c1.997-2.029,3.95-3.967,5.76-5.848c1.821-1.87,3.532-3.648,5.104-5.298c1.576-1.646,2.99-3.182,4.261-4.529   c0.347-0.368,0.659-0.704,0.979-1.046l-0.045,0.182c-0.123,0.496-0.166,1.003-0.16,1.518   C67.773,14.323,67.514,15.409,67.275,16.119z M70.656,16.63c-0.274-0.16-0.551-0.31-0.827-0.465   c0.223-0.354,0.453-0.705,0.688-1.053l0.045-0.158c0.613,0.132,1.268,0.219,2.021,0.181c0.063,0.234,0.122,0.467,0.185,0.7   C72.063,16.099,71.355,16.359,70.656,16.63z M41.512,76.313c0.59-1.164,1.187-2.334,1.796-3.451l0.162-0.283   c0,0,0.767-0.896,1.008-1.223l1.31-1.854c1.471-2.121,2.908-4.252,4.347-6.385c1.723-1.688,3.455-3.387,5.197-5.092   c3.9-3.805,7.802-7.587,11.488-11.224l3.502,0.354c0.552,0.063,1.104,0.118,1.658,0.174c-0.354,0.35-0.703,0.697-1.063,1.051   c-4.007,4.045-8.231,8.409-12.474,12.758C52.755,66.95,47.07,72.74,42.024,77.902L41.512,76.313z M54.391,57.083   c-0.871,0.89-1.738,1.774-2.604,2.661l2.555-6.54l0.293-0.749l-0.612-0.493l-0.369-0.297c3.354-3.268,6.68-6.502,9.828-9.613   l1.349,3.706l0.17,0.466C61.55,49.725,57.982,53.402,54.391,57.083z M62.809,40.276c-3.311,3.343-6.772,6.907-10.271,10.496   l-3.391-2.727c3.703-3.607,7.384-7.183,10.832-10.597c0.461-0.468,0.916-0.926,1.369-1.385l1.479,4.196   C62.82,40.265,62.814,40.271,62.809,40.276z M75.123,22.247l3.727,2.564c-0.121,0.113-0.24,0.224-0.365,0.343   c-0.473,0.445-0.977,0.915-1.49,1.398l-0.669-1.267l-0.164-0.31l-0.334,0.032l-4.206,0.408L75.123,22.247z M62.27,8.943   c-1.348,1.27-2.886,2.684-4.527,4.261c-1.651,1.57-3.432,3.281-5.301,5.101c-1.879,1.81-3.815,3.764-5.844,5.76   c-3.664,3.7-7.513,7.667-11.388,11.643l-0.089-0.074c-0.299-0.251-0.607-0.447-0.915-0.636c-0.31-0.178-0.62-0.356-0.936-0.496   c-0.627-0.309-1.267-0.538-1.912-0.733c-0.106-0.033-0.213-0.055-0.32-0.083c4.339-4.233,8.695-8.449,12.732-12.448   c1.997-2.029,3.95-3.967,5.76-5.847c0.749-0.769,1.469-1.514,2.178-2.248c0.588,0.23,1.184,0.437,1.798,0.548l1.024,0.186   l0.539-0.766c0.309-0.437,0.556-0.917,0.813-1.389c0.211-0.394,0.435-0.779,0.661-1.161c0.648-0.256,1.299-0.507,1.941-0.776   l3.14-1.306c0.25,0.07,0.496,0.139,0.753,0.211c0.037,0.014,0.077,0.03,0.114,0.044C62.416,8.806,62.346,8.871,62.27,8.943z    M54.839,8.899L54.8,8.944c-0.353,0.403-0.72,0.795-1.096,1.181c-0.138,0.143-0.274,0.286-0.412,0.429   c-0.181-0.029-0.36-0.056-0.542-0.076c-0.032-0.17-0.061-0.339-0.096-0.509c-0.139-0.556-0.299-1.109-0.543-1.672   C53.02,8.513,53.93,8.705,54.839,8.899z M58.414,7.983c-0.566-0.036-1.131-0.072-1.691-0.102c0.159-0.171,0.314-0.337,0.471-0.504   c0.427,0.066,0.861,0.138,1.313,0.243c0.561,0.153,1.148,0.315,1.756,0.482L58.414,7.983z M55.104,7.812   c-1.063,0.04-2.127,0.072-3.191,0.142L51.84,7.959l-0.087,0.13c-0.385,0.573-0.646,1.156-0.896,1.74   c-0.223,0.586-0.424,1.173-0.568,1.765L50.07,12.48l0.104,0.043c-0.584,0.565-1.178,1.14-1.784,1.73   c-0.554,0.533-1.117,1.085-1.682,1.642l-1.727-4.051c0.165-0.169,0.332-0.339,0.493-0.507c1.61-1.653,3.128-3.229,4.545-4.715   c0.469,0.028,1.351,0.081,2.625,0.158c0.488,0.043,1.043,0.033,1.642,0.128c0.469,0.076,0.981,0.16,1.516,0.247   C55.57,7.37,55.339,7.589,55.104,7.812z M46.599,8.006l-0.022-0.015c-0.51-0.34-1.019-0.533-1.529-0.684   C44.603,7.17,44.16,7.1,43.718,7.054c0.431-0.066,0.848-0.13,1.234-0.189c0.599-0.089,1.157-0.075,1.649-0.113   c0.526-0.027,0.981-0.05,1.374-0.07C47.524,7.115,47.065,7.556,46.599,8.006z M11.27,31.267l0.208,0.434   c0.393,0.817,0.795,1.629,1.198,2.441c-1.311,1.338-2.596,2.649-3.857,3.938C9.462,35.694,10.29,33.416,11.27,31.267z    M13.171,35.14c0.368,0.737,0.737,1.474,1.104,2.213l0.189,0.381l0.425,0.174l1.514,0.62c-3.175,3.24-6.216,6.345-9.017,9.216   c0.005-0.123,0.01-0.247,0.015-0.37c0.058-0.901,0.023-1.807,0.155-2.69c0.18-1.653,0.463-3.268,0.819-4.845   C9.933,38.311,11.532,36.745,13.171,35.14z M7.952,56.262c4.315-4.188,9.464-9.229,14.902-14.562l4.019,2.52   c-5.942,6.063-11.579,11.813-16.103,16.481c-0.476,0.488-0.936,0.962-1.386,1.425C8.743,60.186,8.245,58.223,7.952,56.262z    M11.182,61.114c4.564-4.423,10.163-9.91,16.077-15.705c-0.348,2.164-0.699,4.327-1.015,6.495l-0.08,0.547l0.266,0.414   c-4.262,4.351-8.242,8.421-11.606,11.892c-1.095,1.125-2.121,2.181-3.079,3.164c-0.223-0.454-0.446-0.909-0.668-1.36   c-0.55-1.274-1.058-2.569-1.508-3.877C10.091,62.176,10.625,61.656,11.182,61.114z M33.777,71.111l1.132,5.871   c-1.361,1.396-2.658,2.729-3.874,3.982c-1.409,1.448-2.706,2.781-3.883,3.991c-0.254-0.157-0.509-0.313-0.759-0.476   c-1.24-0.846-2.425-1.758-3.578-2.701C24.173,80.46,31.5,73.335,33.777,71.111z M27.529,85.191c1.191-1.159,2.5-2.435,3.919-3.813   c1.142-1.106,2.369-2.3,3.629-3.528l0.164,0.85l0.12,0.625l0.521,0.32l2.766,1.715c-1.24,1.272-2.442,2.51-3.558,3.66   c-0.931,0.957-1.81,1.859-2.642,2.715C30.754,86.988,29.107,86.145,27.529,85.191z M44.014,84.066l-0.895-2.774l-0.805-2.495   c5.24-5.12,11.145-10.918,17.072-16.718c4.347-4.241,8.712-8.465,12.757-12.472c0.686-0.694,1.35-1.362,2.018-2.035   c0.115,0.014,0.236,0.025,0.354,0.04c0.241,0.03,0.467,0.065,0.695,0.099c0.081,0.44,0.152,0.944,0.215,1.418   c0.109,0.848,0.194,1.714,0.286,2.576c-0.247,0.245-0.487,0.484-0.737,0.73c-4.007,4.045-8.229,8.406-12.474,12.756   C56.023,71.805,49.54,78.405,44.014,84.066z M38.99,90.035c0.189-0.184,0.373-0.363,0.566-0.551   c6.542-6.34,15.202-14.857,23.883-23.354c4.256-4.153,8.524-8.288,12.5-12.22c0.11,1.204,0.215,2.412,0.285,3.596   c0,0,0.092,0.688,0.08,0.734l0.004,1.007c-3.185,3.241-6.459,6.612-9.76,9.995C60.738,75.182,54.927,81.1,49.798,86.348   c-0.196-0.397-0.389-0.802-0.593-1.199l-0.756-1.476l-0.821,1.222c-0.617,0.92-1.233,1.842-1.829,2.778   c-0.601,0.933-1.208,1.861-1.786,2.813l-0.075,0.123l0.168,0.115c0.164,0.11,0.335,0.207,0.505,0.306   C42.718,90.816,40.838,90.495,38.99,90.035z M48.547,89.525c-0.401,0.035-0.803,0.076-1.205,0.143   c-0.545,0.105-1.036,0.154-1.569,0.279c-0.353,0.072-0.709,0.175-1.076,0.297c0.664-0.612,1.32-1.23,1.972-1.852   c0.413-0.39,0.812-0.787,1.217-1.183c0.142,0.479,0.282,0.956,0.421,1.437C48.396,88.936,48.473,89.23,48.547,89.525z M51.878,90.4   c-0.407-0.893-0.946-1.729-1.369-2.613c-0.109-0.219-0.217-0.436-0.324-0.655c5.297-5.176,11.292-11.062,17.307-16.948   c3.156-3.08,6.307-6.139,9.35-9.123c0.104,0.316,0.21,0.629,0.317,0.943c0.387,1.124,0.786,2.237,1.188,3.348   c-2.549,2.606-5.139,5.271-7.744,7.942c-6.09,6.224-12.184,12.427-17.483,17.854c-0.132,0.006-0.265,0.01-0.394,0.021l-0.483,0.029   L51.878,90.4z"/></g><text x="0" y="115" fill="#000000" font-size="5px" font-weight="bold" font-family="'Helvetica Neue', Helvetica, Arial-Unicode, Arial, Sans-serif">Created by Juan Pablo Bravo</text><text x="0" y="120" fill="#000000" font-size="5px" font-weight="bold" font-family="'Helvetica Neue', Helvetica, Arial-Unicode, Arial, Sans-serif">from the Noun Project</text></svg>