<svg xmlns="http://www.w3.org/2000/svg" xmlns:xlink="http://www.w3.org/1999/xlink" version="1.1" x="0px" y="0px" viewBox="0 0 100 125" enable-background="new 0 0 100 100" xml:space="preserve"><g><path fill="none" d="M41.404,42.824c3.465,2.659,8.423,2.968,14.74,0.917c7.714-2.503,11.714-3.073,13.812-1.957   c1.435,0.762,1.859,2.243,2.353,3.957c0.604,2.102,1.357,4.699,4.279,6.974l14.737,1.476c0.116-2.616,0.333-5.1,0.598-7.359   c0.998-8.476,2.81-15.373,3.506-17.83l-24.812-7.592L35.91,28.429C35.887,30.2,36.065,38.727,41.404,42.824z"/><path fill="none" d="M87.302,64.768c-1.192,3.151-1.912,5.052-16.141,1.546c-7.279-1.797-12.729-1.223-16.205,1.698   c-3.55,2.982-4.005,7.646-4.044,9.406l15.76-2.777l28.307,5.337c-2.635-6.368-3.598-13.547-3.724-20.278   C88.614,61.373,87.88,63.241,87.302,64.768z"/></g><path d="M97.57,80.884c-9.714-20.398-0.048-51.934,0.051-52.25l0.301-0.96L70.716,19.35l-40.002,8.089L3.563,19.27l0.106,1.449  c2.955,40.387,0.037,60.933,0.008,61.136L3.508,83h27.246l35.906-6.326l31.755,5.987L97.57,80.884z M35.91,28.429l34.707-7.018  l24.812,7.592c-0.696,2.457-2.508,9.354-3.506,17.83c-0.266,2.258-0.483,4.742-0.598,7.359l-14.737-1.476  c-2.922-2.275-3.675-4.872-4.279-6.974c-0.493-1.714-0.918-3.194-2.353-3.957c-2.099-1.116-6.099-0.547-13.812,1.957  c-6.317,2.05-11.275,1.741-14.74-0.917C36.065,38.727,35.887,30.2,35.91,28.429z M32,29.287l3.576-0.757  c-0.012,2.055,0.193,10.534,5.606,14.69c3.604,2.767,8.678,3.103,15.159,0.998c7.472-2.426,11.466-3.022,13.402-1.991  c1.248,0.663,1.617,1.982,2.097,3.653c0.582,2.027,1.294,4.498,3.859,6.746L67.7,51.825l-24.589,0.988  C42.567,47.002,38,42.4,32,42.037V29.287z M30,29.212v12.852c-6,0.55-9.904,4.62-10.813,9.833L7.05,50.464  c-0.086-7.988-0.299-17.468-1.073-28.442L30,29.212z M30,81H5.799c0.361-3.133,1.273-12.677,1.184-28.52l11.851,1.409  c0,0.009,0.165,0.018,0.165,0.028c0,6.154,5,11.233,11,11.852V81z M20.834,53.917c0-5.468,4.523-9.917,10.083-9.917  S41,48.449,41,53.917c0,5.468-4.523,9.916-10.083,9.916S20.834,59.385,20.834,53.917z M32,80.808V65.796  c6-0.367,10.671-5.075,11.12-10.982l24.599-0.985l23.581,2.366c-0.021,0.957-0.046,1.928-0.035,2.91  c-3.009,1.8-3.796,3.835-4.421,5.485c-1.131,2.993-1.762,4.64-15.559,1.237c-7.441-1.832-13.045-1.229-16.652,1.805  c-3.758,3.16-4.026,8.107-4.055,9.874L32,80.808z M66.673,74.641l-15.76,2.777c0.04-1.76,0.494-6.424,4.044-9.406  c3.477-2.921,8.926-3.495,16.205-1.698c14.229,3.506,14.948,1.605,16.141-1.546c0.577-1.526,1.311-3.395,3.953-5.068  c0.125,6.731,1.088,13.909,3.724,20.278L66.673,74.641z"/><ellipse cx="30.833" cy="53.75" rx="5" ry="4.75"/><text x="0" y="115" fill="#000000" font-size="5px" font-weight="bold" font-family="'Helvetica Neue', Helvetica, Arial-Unicode, Arial, Sans-serif">Created by jayati bandyopadhyay</text><text x="0" y="120" fill="#000000" font-size="5px" font-weight="bold" font-family="'Helvetica Neue', Helvetica, Arial-Unicode, Arial, Sans-serif">from the Noun Project</text></svg>